Recursive Mono-Casual A Italic.ufo
<glyph name="quotedbl" format="2">
	<unicode hex="0022"/>
	<advance width="600"/>
	<outline>
		<contour>
			<point x="263.7621909788" y="438" type="qcurve"/>
			<point x="337.2798853137" y="692" type="line" smooth="yes"/>
			<point x="346.4238078302" y="722.5970149254"/>
			<point x="324.8737566421" y="754"/>
			<point x="292.7842044033" y="754" type="qcurve" smooth="yes"/>
			<point x="281.5901745526" y="754"/>
			<point x="265.6347759953" y="751.4925373134"/>
			<point x="260.7839257524" y="750" type="qcurve"/>
			<point x="262.4618345263" y="732.8358208955"/>
			<point x="259.1726194048" y="705.5373134328"/>
			<point x="250.0278650944" y="663" type="qcurve" smooth="yes"/>
			<point x="212.0144898491" y="471" type="line" smooth="yes"/>
			<point x="208.2818988747" y="453.0895522388"/>
			<point x="227.896519337" y="438"/>
			<point x="254.7621909788" y="438" type="qcurve" smooth="yes"/>
			<point x="257.0009969489" y="438"/>
			<point x="261.5233850086" y="438"/>
		</contour>
		<contour>
			<point x="483.7621909788" y="438" type="qcurve"/>
			<point x="554.2790493609" y="680" type="line" smooth="yes"/>
			<point x="565.662401693" y="719.552238806"/>
			<point x="544.3662939556" y="754"/>
			<point x="510.7842044033" y="754" type="qcurve" smooth="yes"/>
			<point x="504.8140551496" y="754"/>
			<point x="493.31393246" y="752.2388059701"/>
			<point x="486.7839257524" y="750" type="qcurve"/>
			<point x="432.0144898491" y="471" type="line" smooth="yes"/>
			<point x="428.2818988747" y="453.0895522388"/>
			<point x="447.896519337" y="438"/>
			<point x="474.7621909788" y="438" type="qcurve" smooth="yes"/>
			<point x="477.0009969489" y="438"/>
			<point x="481.5233850086" y="438"/>
		</contour>
	</outline>
	<guideline x="-65.7683212995" y="0" angle="179.1517819709" identifier="VBjEeWnYgq"/>
	<guideline x="-15.7683212995" y="0" angle="179.1517819709" identifier="NxCPR6LGQI"/>
	<guideline x="34.2316787005" y="0" angle="179.1517819709" identifier="1Rc64JdNrP"/>
	<guideline x="84.2316787005" y="0" angle="179.1517819709" identifier="arPIKrlQ0R"/>
	<guideline x="134.2316787005" y="0" angle="179.1517819709" identifier="WWubRydDwF"/>
	<guideline x="184.2316787005" y="0" angle="179.1517819709" identifier="ciqd5oHzUG"/>
	<guideline x="234.2316787005" y="0" angle="179.1517819709" identifier="uy8vUgwH1v"/>
	<guideline x="284.2316787005" y="0" angle="179.1517819709" identifier="DnrS3SlmE9"/>
	<guideline x="334.2316787005" y="0" angle="179.1517819709" identifier="ffGnSu0Kav"/>
	<guideline x="384.2316787005" y="0" angle="179.1517819709" identifier="cDaxQNtkba"/>
	<guideline x="434.2316787005" y="0" angle="179.1517819709" identifier="Mosve74sEN"/>
	<guideline x="484.2316787005" y="0" angle="179.1517819709" identifier="ECitPmlaDq"/>
	<guideline x="534.2316787005" y="0" angle="179.1517819709" identifier="Cw8VpZZiPZ"/>
	<guideline x="-128.2857369835" y="-250" angle="180" identifier="DVC0YxsmTb"/>
	<guideline x="-115.7822538467" y="-200" angle="180" identifier="783FYDjVeg"/>
	<guideline x="-103.2787707099" y="-150" angle="180" identifier="SqNx1lobXD"/>
	<guideline x="-90.7752875731" y="-100" angle="180" identifier="SxGIRhjaiw"/>
	<guideline x="-78.2718044363" y="-50" angle="180" identifier="Z1A5isKDEd"/>
	<guideline x="-65.7683212995" y="0" angle="180" identifier="ObKqynJ6fh"/>
	<guideline x="-53.2648381627" y="50" angle="180" identifier="7UZSIpS4Eu"/>
	<guideline x="-40.761355026" y="100" angle="180" identifier="tIalumA3zF"/>
	<guideline x="-28.2578718892" y="150" angle="180" identifier="bM18S8UI15"/>
	<guideline x="-15.7543887524" y="200" angle="180" identifier="AYav00ulVJ"/>
	<guideline x="-3.2509056156" y="250" angle="180" identifier="NkKI7zgy3h"/>
	<guideline x="9.2525775212" y="300" angle="180" identifier="TFhmwsAn2g"/>
	<guideline x="21.756060658" y="350" angle="180" identifier="tQOmS18jb5"/>
	<guideline x="34.2595437948" y="400" angle="180" identifier="XlpxNhC6uw"/>
	<guideline x="46.7630269316" y="450" angle="180" identifier="Lg6fuuJan3"/>
	<guideline x="59.2665100684" y="500" angle="180" identifier="pCFqUIeRA4"/>
	<guideline x="71.7699932052" y="550" angle="180" identifier="Oy6Vz7obWv"/>
	<guideline x="84.273476342" y="600" angle="180" identifier="xBcYaFeOEm"/>
	<guideline x="96.7769594788" y="650" angle="180" identifier="EjmUNFoIt6"/>
	<guideline x="109.2804426156" y="700" angle="180" identifier="CRKh4lK5Nr"/>
</glyph>
<glyph name="numbersign" format="2">
	<unicode hex="0023"/>
	<advance width="600"/>
	<outline>
		<contour>
			<point x="331.0314875566" y="715" type="qcurve"/>
			<point x="293.3344189949" y="564.2537313433"/>
			<point x="138.5423636253" y="174.8059701493"/>
			<point x="10.7307034222" y="-14" type="qcurve"/>
			<point x="15.3947265653" y="-16.2388059701"/>
			<point x="23.260136192" y="-20"/>
			<point x="29.2302854457" y="-20" type="qcurve" smooth="yes"/>
			<point x="42.6631212666" y="-20"/>
			<point x="62.8466069265" y="-10.671641791"/>
			<point x="73.4820270141" y="5" type="qcurve" smooth="yes"/>
			<point x="192.3380474397" y="187.8358208955"/>
			<point x="343.1150443492" y="575.3731343284"/>
			<point x="374.2804426156" y="700" type="qcurve" smooth="yes"/>
			<point x="377.8262064902" y="714.1791044776"/>
			<point x="361.9982537808" y="720"/>
			<point x="355.2818358703" y="720" type="qcurve" smooth="yes"/>
			<point x="349.3116866166" y="720"/>
			<point x="336.8152256075" y="717.2388059701"/>
		</contour>
		<contour>
			<point x="526.0314875566" y="715" type="qcurve"/>
			<point x="489.0808956001" y="567.2388059701"/>
			<point x="333.5423636253" y="174.8059701493"/>
			<point x="205.7307034222" y="-14" type="qcurve"/>
			<point x="210.3947265653" y="-16.2388059701"/>
			<point x="218.260136192" y="-20"/>
			<point x="224.2302854457" y="-20" type="qcurve" smooth="yes"/>
			<point x="237.6631212666" y="-20"/>
			<point x="257.8466069265" y="-10.671641791"/>
			<point x="268.4820270141" y="5" type="qcurve" smooth="yes"/>
			<point x="387.3380474397" y="187.8358208955"/>
			<point x="538.1150443492" y="575.3731343284"/>
			<point x="569.2804426156" y="700" type="qcurve" smooth="yes"/>
			<point x="572.8262064902" y="714.1791044776"/>
			<point x="556.9982537808" y="720"/>
			<point x="550.2818358703" y="720" type="qcurve" smooth="yes"/>
			<point x="544.3116866166" y="720"/>
			<point x="531.8152256075" y="717.2388059701"/>
		</contour>
		<contour>
			<point x="606.7630269316" y="450" type="line"/>
			<point x="607.3228843855" y="452.2388059701"/>
			<point x="608.7038661051" y="457.7611940299"/>
			<point x="609.263723559" y="460" type="qcurve" smooth="yes"/>
			<point x="612.2496299797" y="471.9402985075"/>
			<point x="611.4933577981" y="489.0298507463"/>
			<point x="607.0161617547" y="495" type="qcurve" smooth="yes"/>
			<point x="605.3372132385" y="497.2388059701"/>
			<point x="599.997853352" y="500"/>
			<point x="596.2665100684" y="500" type="qcurve" smooth="yes"/>
			<point x="139.2665100684" y="500" type="line"/>
			<point x="138.7066526145" y="497.7611940299"/>
			<point x="137.3256708949" y="492.2388059701"/>
			<point x="136.765813441" y="490" type="qcurve" smooth="yes"/>
			<point x="132.6601921125" y="473.5820895522"/>
			<point x="136.3301911107" y="450"/>
			<point x="149.7630269316" y="450" type="qcurve" smooth="yes"/>
		</contour>
		<contour>
			<point x="36.7490943844" y="250" type="line"/>
			<point x="36.1892369305" y="247.7611940299"/>
			<point x="34.808255211" y="242.2388059701"/>
			<point x="34.2483977571" y="240" type="qcurve" smooth="yes"/>
			<point x="31.2624913363" y="228.0597014925"/>
			<point x="32.018763518" y="210.9701492537"/>
			<point x="36.4959595613" y="205" type="qcurve" smooth="yes"/>
			<point x="38.1749080776" y="202.7611940299"/>
			<point x="43.5142679641" y="200"/>
			<point x="47.2456112476" y="200" type="qcurve" smooth="yes"/>
			<point x="504.2456112476" y="200" type="line"/>
			<point x="504.8054687015" y="202.2388059701"/>
			<point x="506.1864504211" y="207.7611940299"/>
			<point x="506.746307875" y="210" type="qcurve" smooth="yes"/>
			<point x="510.8519292035" y="226.4179104478"/>
			<point x="507.1819302053" y="250"/>
			<point x="493.7490943844" y="250" type="qcurve" smooth="yes"/>
		</contour>
	</outline>
</glyph>
<glyph name="dollar" format="2">
	<unicode hex="0024"/>
	<advance width="600"/>
	<outline>
		<contour>
			<point x="492.2818358703" y="720" type="qcurve" smooth="yes"/>
			<point x="372.8788507957" y="720"/>
			<point x="169.7983490939" y="582.1044776119"/>
			<point x="150.0167190566" y="503" type="qcurve" smooth="yes"/>
			<point x="147.5160224293" y="493" type="line" smooth="yes"/>
			<point x="142.6639244956" y="473.5970149254"/>
			<point x="176.1995577048" y="449.4776119403"/>
			<point x="188.5126786179" y="445" type="qcurve"/>
			<point x="190.0062556737" y="459.9253731343"/>
			<point x="196.034266368" y="487.0746268657"/>
			<point x="199.7666493939" y="502" type="qcurve" smooth="yes"/>
			<point x="215.8158964053" y="566.1791044776"/>
			<point x="386.494770644" y="670"/>
			<point x="479.7783527335" y="670" type="qcurve" smooth="yes"/>
			<point x="529.7783527335" y="670"/>
			<point x="587.9560057308" y="649.1641791045"/>
			<point x="611.2757055495" y="632" type="qcurve"/>
			<point x="616.2757055495" y="632" type="line"/>
			<point x="619.074576922" y="637.223880597"/>
			<point x="623.1611162795" y="647.5373134328"/>
			<point x="625.0273077925" y="655" type="qcurve" smooth="yes"/>
			<point x="627.1088290954" y="663.3237657865"/>
			<point x="628.0775755389" y="680.2686567164"/>
			<point x="625.2793280118" y="684" type="qcurve" smooth="yes"/>
			<point x="611.8477398817" y="701.9104477612"/>
			<point x="546.7594478106" y="720"/>
		</contour>
		<contour>
			<point x="386.5051550425" y="337" type="qcurve" smooth="yes"/>
			<point x="309.2573145873" y="368" type="line" smooth="yes"/>
			<point x="217.5259595084" y="404.8123172206"/>
			<point x="191.3110564812" y="468.1870503597"/>
			<point x="199.7666493939" y="502" type="qcurve" smooth="yes"/>
			<point x="203.4104673988" y="516.5712117379"/>
			<point x="211.0868705313" y="544.9734647049"/>
			<point x="218.771107809" y="566" type="qcurve"/>
			<point x="198.9978270477" y="559.2207513713"/>
			<point x="155.5296683378" y="525.0456540825"/>
			<point x="147.5160224293" y="493" type="qcurve" smooth="yes"/>
			<point x="133.5477353396" y="437.1424164096"/>
			<point x="193.1808040046" y="356.6720908511"/>
			<point x="285.0039011132" y="319" type="qcurve" smooth="yes"/>
			<point x="363.0016719057" y="287" type="line" smooth="yes"/>
			<point x="429.211686391" y="259.8361408024"/>
			<point x="460.5397161013" y="185.1805488686"/>
			<point x="446.7407348561" y="130" type="qcurve" smooth="yes"/>
			<point x="445.8076390996" y="126.2686567164"/>
			<point x="443.1725766834" y="115.7313432836"/>
			<point x="442.2394809269" y="112" type="qcurve"/>
			<point x="455.7130660689" y="115.9053081413"/>
			<point x="497.2055615645" y="155.8521031208"/>
			<point x="500.4934517028" y="169" type="qcurve"/>
			<point x="513.9300305961" y="222.7313432836"/>
			<point x="458.3314857539" y="307.8955223881"/>
		</contour>
		<contour>
			<point x="231.2308427476" y="-12" type="qcurve" smooth="yes"/>
			<point x="330.4845740909" y="-12"/>
			<point x="478.9016158979" y="82.6567164179"/>
			<point x="499.2431033891" y="164" type="qcurve" smooth="yes"/>
			<point x="500.4934517028" y="169" type="line" smooth="yes"/>
			<point x="506.278645393" y="192.1343283582"/>
			<point x="484.560054713" y="214.5074626866"/>
			<point x="472.2467258514" y="216" type="qcurve"/>
			<point x="471.5002492462" y="213.0149253731"/>
			<point x="468.9846230868" y="202.9552238806"/>
			<point x="466.7451932712" y="194" type="qcurve" smooth="yes"/>
			<point x="448.0832781417" y="119.3731343284"/>
			<point x="331.794027377" y="38"/>
			<point x="243.7343258844" y="38" type="qcurve" smooth="yes"/>
			<point x="167.6149228993" y="38"/>
			<point x="76.3120865335" y="82.9850746269"/>
			<point x="53.7407348561" y="130" type="qcurve"/>
			<point x="49.7407348561" y="130" type="line"/>
			<point x="44.596412845" y="120.0445900192"/>
			<point x="36.9541961199" y="102.8614072495"/>
			<point x="34.4881573349" y="93" type="qcurve" smooth="yes"/>
			<point x="31.5022509142" y="81.0597014925"/>
			<point x="32.209927255" y="62.7014925373"/>
			<point x="39.4853708255" y="53" type="qcurve" smooth="yes"/>
			<point x="63.4061821685" y="21.1026221312"/>
			<point x="162.5741263297" y="-12"/>
		</contour>
		<contour>
			<point x="371.7599617712" y="406" type="line"/>
			<point x="514.039568434" y="831" type="line" smooth="yes"/>
			<point x="523.5565213047" y="860.1044776119"/>
			<point x="513.9313899232" y="885"/>
			<point x="491.5433302217" y="885" type="qcurve" smooth="yes"/>
			<point x="484.0806436546" y="885"/>
			<point x="469.3939018137" y="882.4925373134"/>
			<point x="464.5430515708" y="881" type="qcurve"/>
			<point x="464.54180388" y="863.0895522388"/>
			<point x="458.9309134293" y="824.5970149254"/>
			<point x="449.7869909128" y="794" type="qcurve" smooth="yes"/>
			<point x="342.7619123278" y="434" type="line" smooth="yes"/>
			<point x="338.6564989478" y="420.5671641791"/>
			<point x="352.0883199802" y="406"/>
			<point x="367.7599617712" y="406" type="qcurve" smooth="yes"/>
		</contour>
		<contour>
			<point x="283.7493730354" y="254" type="line"/>
			<point x="148.9718562547" y="-141" type="line" smooth="yes"/>
			<point x="138.7086347273" y="-170.1044776119"/>
			<point x="149.0800347655" y="-195"/>
			<point x="171.468094467" y="-195" type="qcurve" smooth="yes"/>
			<point x="178.9307810341" y="-195"/>
			<point x="193.617522875" y="-192.4925373134"/>
			<point x="198.4683731179" y="-191" type="qcurve"/>
			<point x="198.4696208087" y="-173.0895522388"/>
			<point x="204.0805112594" y="-134.5970149254"/>
			<point x="213.2244337759" y="-104" type="qcurve" smooth="yes"/>
			<point x="312.7474224788" y="226" type="line" smooth="yes"/>
			<point x="316.8528358588" y="239.4328358209"/>
			<point x="303.4210148264" y="254"/>
			<point x="287.7493730354" y="254" type="qcurve" smooth="yes"/>
		</contour>
	</outline>
</glyph>
<glyph name="percent" format="2">
	<unicode hex="0025"/>
	<advance width="600"/>
	<outline>
		<contour>
			<point x="251.7783527335" y="670" type="qcurve"/>
			<point x="321.9276064649" y="670"/>
			<point x="376.3713542535" y="612.3880597015"/>
			<point x="358.2692965778" y="540" type="qcurve" smooth="yes"/>
			<point x="356.7688786014" y="534" type="line" smooth="yes"/>
			<point x="342.3992039517" y="476.5373134328"/>
			<point x="266.46539464" y="409"/>
			<point x="207.5101707594" y="409" type="qcurve" smooth="yes"/>
			<point x="180.6444991177" y="409"/>
			<point x="149.1270162703" y="425.8507462687"/>
			<point x="134.7627482807" y="446" type="qcurve"/>
			<point x="93.7156847281" y="413.1641791045"/>
			<point x="166.6893144553" y="356"/>
			<point x="203.2564786344" y="356" type="qcurve"/>
			<point x="275.6445383359" y="356"/>
			<point x="385.3599295648" y="448.3880597015"/>
			<point x="404.7683212995" y="526" type="qcurve" smooth="yes"/>
			<point x="406.268739276" y="532" type="line" smooth="yes"/>
			<point x="426.2369884646" y="611.8507462687"/>
			<point x="366.6915870041" y="710"/>
			<point x="298.7811392429" y="710" type="qcurve"/>
			<point x="283.1094974519" y="710"/>
			<point x="255.883974062" y="686.4179104478"/>
		</contour>
		<contour>
			<point x="243.2592651439" y="396" type="qcurve"/>
			<point x="182.8115039498" y="396"/>
			<point x="130.5812547671" y="465.2686567164"/>
			<point x="144.0178336604" y="519" type="qcurve" smooth="yes"/>
			<point x="145.5182516368" y="525" type="line" smooth="yes"/>
			<point x="160.6344028917" y="585.447761194"/>
			<point x="241.5277257689" y="661"/>
			<point x="291.5277257689" y="661" type="qcurve" smooth="yes"/>
			<point x="316.1545914405" y="661"/>
			<point x="350.7919306006" y="650.6567164179"/>
			<point x="366.2757055495" y="632" type="qcurve"/>
			<point x="392.3965641739" y="652.8955223881"/>
			<point x="337.5871093922" y="710"/>
			<point x="298.7811392429" y="710" type="qcurve"/>
			<point x="228.6318855116" y="710"/>
			<point x="116.6733986277" y="609.5970149254"/>
			<point x="96.5185302877" y="529" type="qcurve" smooth="yes"/>
			<point x="95.0181123113" y="523" type="line" smooth="yes"/>
			<point x="75.7963397279" y="446.1343283582"/>
			<point x="133.8534935598" y="356"/>
			<point x="203.2564786344" y="356" type="qcurve"/>
			<point x="214.4505084852" y="356"/>
			<point x="239.9001204206" y="382.5671641791"/>
		</contour>
		<contour>
			<point x="391.2528561722" y="304" type="qcurve"/>
			<point x="461.4021099035" y="304"/>
			<point x="515.8458576922" y="246.3880597015"/>
			<point x="497.7438000165" y="174" type="qcurve" smooth="yes"/>
			<point x="496.2433820401" y="168" type="line" smooth="yes"/>
			<point x="481.8737073903" y="110.5373134328"/>
			<point x="405.9398980787" y="43"/>
			<point x="346.9846741981" y="43" type="qcurve" smooth="yes"/>
			<point x="320.1190025563" y="43"/>
			<point x="288.601519709" y="59.8507462687"/>
			<point x="274.2372517193" y="80" type="qcurve"/>
			<point x="233.1901881668" y="47.1641791045"/>
			<point x="306.163817894" y="-10"/>
			<point x="342.7309820731" y="-10" type="qcurve"/>
			<point x="415.1190417746" y="-10"/>
			<point x="524.8344330035" y="82.3880597015"/>
			<point x="544.2428247382" y="160" type="qcurve" smooth="yes"/>
			<point x="545.7432427146" y="166" type="line" smooth="yes"/>
			<point x="565.7114919032" y="245.8507462687"/>
			<point x="506.1660904428" y="344"/>
			<point x="438.2556426816" y="344" type="qcurve"/>
			<point x="422.5840008906" y="344"/>
			<point x="395.3584775007" y="320.4179104478"/>
		</contour>
		<contour>
			<point x="382.7337685825" y="30" type="qcurve"/>
			<point x="322.2860073885" y="30"/>
			<point x="270.0557582058" y="99.2686567164"/>
			<point x="283.4923370991" y="153" type="qcurve" smooth="yes"/>
			<point x="284.9927550755" y="159" type="line" smooth="yes"/>
			<point x="300.1089063304" y="219.447761194"/>
			<point x="381.0022292075" y="295"/>
			<point x="431.0022292075" y="295" type="qcurve" smooth="yes"/>
			<point x="455.6290948792" y="295"/>
			<point x="490.2664340393" y="284.6567164179"/>
			<point x="505.7502089882" y="266" type="qcurve"/>
			<point x="531.8710676125" y="286.8955223881"/>
			<point x="477.0616128309" y="344"/>
			<point x="438.2556426816" y="344" type="qcurve"/>
			<point x="368.1063889503" y="344"/>
			<point x="256.1479020663" y="243.5970149254"/>
			<point x="235.9930337264" y="163" type="qcurve" smooth="yes"/>
			<point x="234.49261575" y="157" type="line" smooth="yes"/>
			<point x="215.2708431666" y="80.1343283582"/>
			<point x="273.3279969985" y="-10"/>
			<point x="342.7309820731" y="-10" type="qcurve"/>
			<point x="353.9250119238" y="-10"/>
			<point x="379.3746238592" y="16.5671641791"/>
		</contour>
		<contour>
			<point x="407.5107280613" y="417" type="qcurve"/>
			<point x="416.465536045" y="411.0298507463"/>
			<point x="431.5659319205" y="406"/>
			<point x="442.7599617712" y="406" type="qcurve" smooth="yes"/>
			<point x="450.9689169951" y="406"/>
			<point x="462.4132618878" y="410.5223880597"/>
			<point x="468.0105887359" y="415" type="qcurve" smooth="yes"/>
			<point x="529.3466319867" y="464.0661001376"/>
			<point x="635.7252635631" y="605.8055311677"/>
			<point x="653.0287010472" y="675" type="qcurve" smooth="yes"/>
			<point x="656.3878457705" y="688.4328358209"/>
			<point x="638.4375770099" y="706"/>
			<point x="619.780860592" y="706" type="qcurve" smooth="yes"/>
			<point x="610.8256367114" y="706"/>
			<point x="594.9186925899" y="702.7313432836"/>
			<point x="585.0303729529" y="699" type="qcurve"/>
			<point x="558.5434859397" y="613.1159867096"/>
			<point x="481.6367344046" y="487.5915130908"/>
		</contour>
		<contour>
			<point x="235.751323592" y="282" type="qcurve"/>
			<point x="226.7965156083" y="287.9701492537"/>
			<point x="211.6961197328" y="293"/>
			<point x="200.5020898821" y="293" type="qcurve" smooth="yes"/>
			<point x="192.2931346582" y="293"/>
			<point x="180.8487897655" y="288.4776119403"/>
			<point x="175.2514629175" y="284" type="qcurve" smooth="yes"/>
			<point x="114.6137553967" y="235.4925373134"/>
			<point x="7.5889316766" y="93.4029850746"/>
			<point x="-9.7666493939" y="24" type="qcurve" smooth="yes"/>
			<point x="-13.1257941172" y="10.5671641791"/>
			<point x="4.8244746434" y="-7"/>
			<point x="23.4811910613" y="-7" type="qcurve" smooth="yes"/>
			<point x="32.4364149419" y="-7"/>
			<point x="48.3433590634" y="-3.7313432836"/>
			<point x="58.2316787005" y="0" type="qcurve"/>
			<point x="84.9167616964" y="85.8208955224"/>
			<point x="162.0523549652" y="211.1044776119"/>
		</contour>
	</outline>
	<guideline x="-65.7683212995" y="0" angle="179.1517819709" identifier="Pp4ZP1AUdN"/>
	<guideline x="-15.7683212995" y="0" angle="179.1517819709" identifier="Bm4TcWRjfY"/>
	<guideline x="34.2316787005" y="0" angle="179.1517819709" identifier="W1kdsUC1CX"/>
	<guideline x="84.2316787005" y="0" angle="179.1517819709" identifier="GWUrxq9PwW"/>
	<guideline x="134.2316787005" y="0" angle="179.1517819709" identifier="euo3lsMqP4"/>
	<guideline x="184.2316787005" y="0" angle="179.1517819709" identifier="RA8I8pzREc"/>
	<guideline x="234.2316787005" y="0" angle="179.1517819709" identifier="vUCt8QITEc"/>
	<guideline x="284.2316787005" y="0" angle="179.1517819709" identifier="w2R7Rk1fH5"/>
	<guideline x="334.2316787005" y="0" angle="179.1517819709" identifier="5fBhzbIAnc"/>
	<guideline x="384.2316787005" y="0" angle="179.1517819709" identifier="Ed3xWw4VL5"/>
	<guideline x="434.2316787005" y="0" angle="179.1517819709" identifier="vRxLzKhOXY"/>
	<guideline x="484.2316787005" y="0" angle="179.1517819709" identifier="jfLGNJBcut"/>
	<guideline x="534.2316787005" y="0" angle="179.1517819709" identifier="oacPHzRGw5"/>
	<guideline x="-128.2857369835" y="-250" angle="180" identifier="RW2LytsF5B"/>
	<guideline x="-115.7822538467" y="-200" angle="180" identifier="RpO5zzvDOx"/>
	<guideline x="-103.2787707099" y="-150" angle="180" identifier="tdA1jn9kAT"/>
	<guideline x="-90.7752875731" y="-100" angle="180" identifier="LxwEzZFnK4"/>
	<guideline x="-78.2718044363" y="-50" angle="180" identifier="UNttI3JkaR"/>
	<guideline x="-65.7683212995" y="0" angle="180" identifier="lz5G93xhFd"/>
	<guideline x="-53.2648381627" y="50" angle="180" identifier="z5CDTmn3wI"/>
	<guideline x="-40.761355026" y="100" angle="180" identifier="fo2YtEfXvO"/>
	<guideline x="-28.2578718892" y="150" angle="180" identifier="GiXVVf8fBk"/>
	<guideline x="-15.7543887524" y="200" angle="180" identifier="7S1nezb7Pj"/>
	<guideline x="-3.2509056156" y="250" angle="180" identifier="00WyyvbijQ"/>
	<guideline x="9.2525775212" y="300" angle="180" identifier="pn10ta4FEX"/>
	<guideline x="21.756060658" y="350" angle="180" identifier="uFhaj07ARN"/>
	<guideline x="34.2595437948" y="400" angle="180" identifier="guSMtPL1NB"/>
	<guideline x="46.7630269316" y="450" angle="180" identifier="tTofUIYf39"/>
	<guideline x="59.2665100684" y="500" angle="180" identifier="HXXs95RtJr"/>
	<guideline x="71.7699932052" y="550" angle="180" identifier="lZ8GrSnqPF"/>
	<guideline x="84.273476342" y="600" angle="180" identifier="7gxWhXdFPn"/>
	<guideline x="96.7769594788" y="650" angle="180" identifier="j6BYashz9A"/>
	<guideline x="109.2804426156" y="700" angle="180" identifier="jRgv8d4Df0"/>
</glyph>
<glyph name="ampersand" format="2">
	<unicode hex="0026"/>
	<advance width="600"/>
	<outline>
		<contour>
			<point x="426.7811392429" y="710" type="qcurve" smooth="yes"/>
			<point x="343.1990496907" y="710"/>
			<point x="211.177827638" y="619.6119402985"/>
			<point x="191.7694359033" y="542" type="qcurve" smooth="yes"/>
			<point x="187.6638145748" y="525.5820895522"/>
			<point x="197.3884601303" y="483"/>
			<point x="222.0153258019" y="483" type="qcurve"/>
			<point x="222.3891879499" y="493.447761194"/>
			<point x="225.7821362279" y="510.0597014925"/>
			<point x="228.7680426486" y="522" type="qcurve" smooth="yes"/>
			<point x="242.2046215419" y="575.7313432836"/>
			<point x="343.0648998763" y="659"/>
			<point x="413.0275864434" y="659" type="qcurve" smooth="yes"/>
			<point x="464.5201237568" y="659"/>
			<point x="523.7273654854" y="634.4029850746"/>
			<point x="539.024521283" y="615" type="qcurve"/>
			<point x="543.024521283" y="615" type="line"/>
			<point x="545.8233926555" y="620.223880597"/>
			<point x="549.7830309901" y="630.0298507463"/>
			<point x="551.2759842005" y="636" type="qcurve" smooth="yes"/>
			<point x="554.7151085601" y="649.7526652452"/>
			<point x="555.6254747523" y="671.5373134328"/>
			<point x="550.0289796981" y="679" type="qcurve" smooth="yes"/>
			<point x="540.514938106" y="691.6865671642"/>
			<point x="479.0199452131" y="710"/>
		</contour>
		<contour>
			<point x="252.5062696462" y="353" type="qcurve" smooth="yes"/>
			<point x="237.582063451" y="405.1529575996"/>
			<point x="231.8534785682" y="502.3472199442"/>
			<point x="240.7691572524" y="538" type="qcurve" smooth="yes"/>
			<point x="246.5350455131" y="561.0571281523"/>
			<point x="266.1354668856" y="598.7254273586"/>
			<point x="285.7750089222" y="622" type="qcurve"/>
			<point x="260.0294680851" y="632.447761194"/>
			<point x="200.3539168629" y="576.328358209"/>
			<point x="191.7694359033" y="542" type="qcurve" smooth="yes"/>
			<point x="191.0192269151" y="539" type="line" smooth="yes"/>
			<point x="179.6354586861" y="493.4776119403"/>
			<point x="187.9528936541" y="390.2388059701"/>
			<point x="201.7552247052" y="338" type="qcurve" smooth="yes"/>
			<point x="221.5260414223" y="261.8805970149"/>
			<point x="294.3144030794" y="116.2388059701"/>
			<point x="334.2361371156" y="64" type="qcurve" smooth="yes"/>
			<point x="361.2182740279" y="27.0139591721"/>
			<point x="414.8951611776" y="-10"/>
			<point x="447.7309820731" y="-10" type="qcurve" smooth="yes"/>
			<point x="450.7309820731" y="-10" type="line" smooth="yes"/>
			<point x="475.9847134164" y="-10"/>
			<point x="503.7550482769" y="14.0895522388"/>
			<point x="508.233907908" y="32" type="qcurve" smooth="yes"/>
			<point x="510.100099421" y="39.4626865672"/>
			<point x="512.2354425677" y="54.0298507463"/>
			<point x="512.2358584646" y="60" type="qcurve"/>
			<point x="508.2358584646" y="60" type="line"/>
			<point x="498.906772436" y="49.552238806"/>
			<point x="476.1598383442" y="40"/>
			<point x="461.2344652099" y="40" type="qcurve" smooth="yes"/>
			<point x="441.8314801353" y="40"/>
			<point x="398.1957463374" y="73.3880597015"/>
			<point x="377.4887146368" y="101" type="qcurve" smooth="yes"/>
			<point x="334.3957027194" y="158.4626865672"/>
			<point x="269.6660818329" y="290.3134328358"/>
		</contour>
		<contour>
			<point x="146.7309820731" y="-10" type="qcurve" smooth="yes"/>
			<point x="211.6563552074" y="-10"/>
			<point x="306.516162013" y="33.2211133704"/>
			<point x="341.9863461038" y="67" type="qcurve" smooth="yes"/>
			<point x="348.6835214149" y="73.5157289371"/>
			<point x="340.4416019135" y="97.9275989199"/>
			<point x="328.2392022759" y="108" type="qcurve"/>
			<point x="289.4383017159" y="71.4838995308"/>
			<point x="212.7194005113" y="38"/>
			<point x="159.7343258844" y="38" type="qcurve" smooth="yes"/>
			<point x="99.2865646904" y="38"/>
			<point x="54.116312287" y="111.5074626866"/>
			<point x="66.9930337264" y="163" type="qcurve" smooth="yes"/>
			<point x="67.7432427146" y="166" type="line" smooth="yes"/>
			<point x="83.2667847966" y="228.0768705492"/>
			<point x="173.9638107416" y="294.8764471451"/>
			<point x="232.5032044859" y="309" type="qcurve"/>
			<point x="233.9963656447" y="317.9552238806"/>
			<point x="226.2860840015" y="352.4776119403"/>
			<point x="207.2559213326" y="348" type="qcurve" smooth="yes"/>
			<point x="155.9917687195" y="333.1411253614"/>
			<point x="38.061857397" y="247.2518178339"/>
			<point x="16.9930337264" y="163" type="qcurve" smooth="yes"/>
			<point x="16.2428247382" y="160" type="line" smooth="yes"/>
			<point x="-1.8592329375" y="87.6119402985"/>
			<point x="60.9100865507" y="-10"/>
		</contour>
		<contour>
			<point x="479.7580112146" y="378" type="qcurve" smooth="yes"/>
			<point x="478.2654739012" y="378"/>
			<point x="475.2505485281" y="378"/>
			<point x="473.7580112146" y="378" type="qcurve"/>
			<point x="471.7052005504" y="369.7910447761"/>
			<point x="467.8085926713" y="354.2089552239"/>
			<point x="465.7557820071" y="346" type="qcurve" smooth="yes"/>
			<point x="448.7734392392" y="278.0895522388"/>
			<point x="392.3222278882" y="175"/>
			<point x="345.4903865424" y="125" type="qcurve" smooth="yes"/>
			<point x="336.3479196652" y="115.2985074627"/>
			<point x="356.341195286" y="92.9365893117"/>
			<point x="365.9877393585" y="87" type="qcurve"/>
			<point x="429.0521196915" y="154.1641791045"/>
			<point x="498.7025239617" y="277.8059701493"/>
			<point x="514.0052943679" y="339" type="qcurve" smooth="yes"/>
			<point x="517.2561999835" y="352" type="line" smooth="yes"/>
			<point x="520.9885830094" y="366.9253731343"/>
			<point x="504.3848768863" y="378"/>
		</contour>
	</outline>
	<guideline x="-65.7683212995" y="0" angle="179.1517819709" identifier="xoX49mHweH"/>
	<guideline x="-15.7683212995" y="0" angle="179.1517819709" identifier="xv15ogG9Nu"/>
	<guideline x="34.2316787005" y="0" angle="179.1517819709" identifier="HMOCUQh15E"/>
	<guideline x="84.2316787005" y="0" angle="179.1517819709" identifier="IONb71kM8d"/>
	<guideline x="134.2316787005" y="0" angle="179.1517819709" identifier="6WlfMzTsBJ"/>
	<guideline x="184.2316787005" y="0" angle="179.1517819709" identifier="IywKTbVZ58"/>
	<guideline x="234.2316787005" y="0" angle="179.1517819709" identifier="ChhulCCEnD"/>
	<guideline x="284.2316787005" y="0" angle="179.1517819709" identifier="so2qPAYX6Y"/>
	<guideline x="334.2316787005" y="0" angle="179.1517819709" identifier="sz0qN89xeu"/>
	<guideline x="384.2316787005" y="0" angle="179.1517819709" identifier="D01YFtSZiN"/>
	<guideline x="434.2316787005" y="0" angle="179.1517819709" identifier="yJwT1kYSkA"/>
	<guideline x="484.2316787005" y="0" angle="179.1517819709" identifier="re2QzIosW0"/>
	<guideline x="534.2316787005" y="0" angle="179.1517819709" identifier="vc9MLYpKXa"/>
	<guideline x="-128.2857369835" y="-250" angle="180" identifier="owloZBnJGD"/>
	<guideline x="-115.7822538467" y="-200" angle="180" identifier="Mx1Qcqgl4g"/>
	<guideline x="-103.2787707099" y="-150" angle="180" identifier="0uI2vVL76j"/>
	<guideline x="-90.7752875731" y="-100" angle="180" identifier="VqLiKHndFn"/>
	<guideline x="-78.2718044363" y="-50" angle="180" identifier="jmrQWO4v4l"/>
	<guideline x="-65.7683212995" y="0" angle="180" identifier="WinFGxRRZ5"/>
	<guideline x="-53.2648381627" y="50" angle="180" identifier="Rap1UKYU4t"/>
	<guideline x="-40.761355026" y="100" angle="180" identifier="bI8rJVI8Sr"/>
	<guideline x="-28.2578718892" y="150" angle="180" identifier="HwJDx20D7O"/>
	<guideline x="-15.7543887524" y="200" angle="180" identifier="68ZajmnXMc"/>
	<guideline x="-3.2509056156" y="250" angle="180" identifier="pVTaQibmEV"/>
	<guideline x="9.2525775212" y="300" angle="180" identifier="Mry62jTvYz"/>
	<guideline x="21.756060658" y="350" angle="180" identifier="JAN9MwPX5n"/>
	<guideline x="34.2595437948" y="400" angle="180" identifier="EeYmkFFKkC"/>
	<guideline x="46.7630269316" y="450" angle="180" identifier="vtr7RGqJIV"/>
	<guideline x="59.2665100684" y="500" angle="180" identifier="wna1k8VJr2"/>
	<guideline x="71.7699932052" y="550" angle="180" identifier="TVzmR097uL"/>
	<guideline x="84.273476342" y="600" angle="180" identifier="Qbb5lqXvyJ"/>
	<guideline x="96.7769594788" y="650" angle="180" identifier="UBBAFSNs4N"/>
	<guideline x="109.2804426156" y="700" angle="180" identifier="phQ13K7JEQ"/>
</glyph>
<glyph name="parenright" format="2">
	<unicode hex="0029"/>
	<advance width="600"/>
	<outline>
		<contour>
			<point x="81.7206719882" y="-158" type="qcurve" smooth="yes"/>
			<point x="191.7043645903" y="-70.0179491746"/>
			<point x="346.5376829972" y="161.1791044776"/>
			<point x="380.502368533" y="297" type="qcurve" smooth="yes"/>
			<point x="381.502647184" y="301" type="line" smooth="yes"/>
			<point x="415.4673327197" y="436.8208955224"/>
			<point x="376.3229853685" y="667.9402985075"/>
			<point x="310.2843437288" y="756" type="qcurve" smooth="yes"/>
			<point x="304.6878486746" y="763.4626865672"/>
			<point x="292.994274231" y="770"/>
			<point x="284.7853190071" y="770" type="qcurve" smooth="yes"/>
			<point x="271.3524831862" y="770"/>
			<point x="250.6169541919" y="763.4776119403"/>
			<point x="242.034552717" y="759" type="qcurve"/>
			<point x="241.0342740661" y="755" type="line"/>
			<point x="319.1992095191" y="658.7313432836"/>
			<point x="359.1609986607" y="431.5970149254"/>
			<point x="326.502647184" y="301" type="qcurve" smooth="yes"/>
			<point x="325.502368533" y="297" type="line" smooth="yes"/>
			<point x="293.0306362076" y="167.1492537313"/>
			<point x="139.4272260791" y="-60.7300783791"/>
			<point x="12.9707416509" y="-157" type="qcurve"/>
			<point x="11.970463" y="-161" type="line"/>
			<point x="18.3134346594" y="-165.4776119403"/>
			<point x="35.786860889" y="-172"/>
			<point x="49.2196967099" y="-172" type="qcurve" smooth="yes"/>
			<point x="57.4286519338" y="-172"/>
			<point x="72.3917939081" y="-165.4626865672"/>
		</contour>
	</outline>
</glyph>
<glyph name="asterisk" format="2">
	<unicode hex="002A"/>
	<advance width="600"/>
	<outline>
		<contour>
			<point x="343.0214561227" y="571" type="qcurve"/>
			<point x="343.7668929855" y="559.0597014925"/>
			<point x="343.1234549889" y="535.4179104478"/>
			<point x="339.0178336604" y="519" type="qcurve" smooth="yes"/>
			<point x="295.5032044859" y="309" type="line"/>
			<point x="228.9888539623" y="103" type="line" smooth="yes"/>
			<point x="219.4719010916" y="73.8955223881"/>
			<point x="228.8765349056" y="44"/>
			<point x="257.2347438608" y="44" type="qcurve" smooth="yes"/>
			<point x="263.9511617713" y="44"/>
			<point x="277.2124784907" y="45.7611940299"/>
			<point x="285.2350225118" y="48" type="qcurve"/>
			<point x="283.7433169922" y="59.9402985075"/>
			<point x="284.8158417908" y="83.328358209"/>
			<point x="287.9885753113" y="99" type="qcurve" smooth="yes"/>
			<point x="331.5032044859" y="309" type="line"/>
			<point x="398.0175550094" y="515" type="line" smooth="yes"/>
			<point x="407.7211270314" y="544.8507462687"/>
			<point x="398.6300133916" y="576"/>
			<point x="370.2718044363" y="576" type="qcurve" smooth="yes"/>
			<point x="363.3687673746" y="575.2537313433"/>
			<point x="350.8573809924" y="572.4925373134"/>
		</contour>
		<contour>
			<point x="565.5143505236" y="469" type="qcurve"/>
			<point x="305.7543887524" y="326" type="line"/>
			<point x="72.7471438278" y="222" type="line" smooth="yes"/>
			<point x="58.381004302" y="215.2835820896"/>
			<point x="46.0244815169" y="185.9253731343"/>
			<point x="51.9935910283" y="171" type="qcurve" smooth="yes"/>
			<point x="54.0453619502" y="164.2835820896"/>
			<point x="59.6343007411" y="155.4776119403"/>
			<point x="62.9921977736" y="151" type="qcurve"/>
			<point x="322.0022292075" y="295" type="line"/>
			<point x="556.2595437948" y="400" type="line" smooth="yes"/>
			<point x="570.6256833207" y="406.7164179104"/>
			<point x="579.6162911643" y="432.5820895522"/>
			<point x="575.5129572689" y="449" type="qcurve" smooth="yes"/>
			<point x="574.5804853578" y="454.223880597"/>
			<point x="570.3647848696" y="464.5223880597"/>
		</contour>
		<contour>
			<point x="531.4962382123" y="209" type="qcurve"/>
			<point x="329.5043190896" y="325" type="line"/>
			<point x="162.2631662571" y="452" type="line" smooth="yes"/>
			<point x="151.8160289085" y="460.9552238806"/>
			<point x="124.3192351819" y="453.4179104478"/>
			<point x="110.512121316" y="437" type="qcurve" smooth="yes"/>
			<point x="106.4073317814" y="432.5223880597"/>
			<point x="99.4922782536" y="419.9701492537"/>
			<point x="95.7605190731" y="414" type="qcurve"/>
			<point x="296.7521595448" y="294" type="line"/>
			<point x="463.7432427146" y="166" type="line" smooth="yes"/>
			<point x="474.3769992145" y="157.7910447761"/>
			<point x="501.6911141213" y="167.5820895522"/>
			<point x="516.2444966439" y="184" type="qcurve" smooth="yes"/>
			<point x="521.8420314404" y="191.4626865672"/>
			<point x="528.3241285372" y="202.2835820896"/>
		</contour>
	</outline>
</glyph>
<glyph name="comma" format="2">
	<unicode hex="002C"/>
	<advance width="600"/>
	<outline>
		<contour>
			<point x="127.7184427806" y="-190" type="qcurve" smooth="yes"/>
			<point x="135.9273980045" y="-190"/>
			<point x="146.1216732345" y="-186.4776119403"/>
			<point x="151.7190000825" y="-182" type="qcurve" smooth="yes"/>
			<point x="198.0128291556" y="-145.5618755986"/>
			<point x="293.3583010724" y="-3.4925373134"/>
			<point x="318.7385056486" y="98" type="qcurve" smooth="yes"/>
			<point x="323.7772227336" y="118.1492537313"/>
			<point x="297.8218977704" y="133"/>
			<point x="282.4909438443" y="133" type="qcurve" smooth="yes"/>
			<point x="271.1960668778" y="133"/>
			<point x="253.7342160938" y="129.3009721394"/>
			<point x="245.4903865424" y="125" type="qcurve"/>
			<point x="217.3108946968" y="12.3134328358"/>
			<point x="155.4539286884" y="-107.5602915993"/>
			<point x="92.4692090707" y="-179" type="qcurve"/>
			<point x="100.6777483977" y="-184.9701492537"/>
			<point x="115.7781442732" y="-190"/>
		</contour>
	</outline>
	<guideline x="-65.7683212995" y="0" angle="179.1517819709" identifier="9MH5MNCKUJ"/>
	<guideline x="-15.7683212995" y="0" angle="179.1517819709" identifier="65udC1xVCW"/>
	<guideline x="34.2316787005" y="0" angle="179.1517819709" identifier="Yk6u0WcYIu"/>
	<guideline x="84.2316787005" y="0" angle="179.1517819709" identifier="KFb8CgYIpX"/>
	<guideline x="134.2316787005" y="0" angle="179.1517819709" identifier="KfaiGaaeD2"/>
	<guideline x="184.2316787005" y="0" angle="179.1517819709" identifier="HdecXxDBVY"/>
	<guideline x="234.2316787005" y="0" angle="179.1517819709" identifier="QJTcpUNrCi"/>
	<guideline x="284.2316787005" y="0" angle="179.1517819709" identifier="LkqmYR1kGC"/>
	<guideline x="334.2316787005" y="0" angle="179.1517819709" identifier="Bdosy8EEQB"/>
	<guideline x="384.2316787005" y="0" angle="179.1517819709" identifier="yIlryDNDM3"/>
	<guideline x="434.2316787005" y="0" angle="179.1517819709" identifier="w87J3GdTvc"/>
	<guideline x="484.2316787005" y="0" angle="179.1517819709" identifier="evPU5DNs6u"/>
	<guideline x="534.2316787005" y="0" angle="179.1517819709" identifier="xLRvWxStVy"/>
	<guideline x="-128.2857369835" y="-250" angle="180" identifier="alhMbqYIlg"/>
	<guideline x="-115.7822538467" y="-200" angle="180" identifier="atue5PiK2k"/>
	<guideline x="-103.2787707099" y="-150" angle="180" identifier="ITS8FP19RL"/>
	<guideline x="-90.7752875731" y="-100" angle="180" identifier="RJKEgub1W5"/>
	<guideline x="-78.2718044363" y="-50" angle="180" identifier="WEpnGSziHA"/>
	<guideline x="-65.7683212995" y="0" angle="180" identifier="xom91nti12"/>
	<guideline x="-53.2648381627" y="50" angle="180" identifier="Qks5et2Pbh"/>
	<guideline x="-40.761355026" y="100" angle="180" identifier="39hRwjdhDQ"/>
	<guideline x="-28.2578718892" y="150" angle="180" identifier="1Jeq25SYm0"/>
	<guideline x="-15.7543887524" y="200" angle="180" identifier="FCJ4BhU2PX"/>
	<guideline x="-3.2509056156" y="250" angle="180" identifier="tORflSMoNP"/>
	<guideline x="9.2525775212" y="300" angle="180" identifier="DgQcfz3hHf"/>
	<guideline x="21.756060658" y="350" angle="180" identifier="Rbo5yw1SeB"/>
	<guideline x="34.2595437948" y="400" angle="180" identifier="57ihIX7xCh"/>
	<guideline x="46.7630269316" y="450" angle="180" identifier="ALA7op78Rz"/>
	<guideline x="59.2665100684" y="500" angle="180" identifier="YtE8kGCxDl"/>
	<guideline x="71.7699932052" y="550" angle="180" identifier="CxB5ivcxkk"/>
	<guideline x="84.273476342" y="600" angle="180" identifier="xNvbrla9bD"/>
	<guideline x="96.7769594788" y="650" angle="180" identifier="90bqZIC7gZ"/>
	<guideline x="109.2804426156" y="700" angle="180" identifier="XS2JugSICp"/>
</glyph>
<glyph name="hyphen" format="2">
	<unicode hex="002D"/>
	<advance width="600"/>
	<outline>
		<contour>
			<point x="125.5043190896" y="325" type="line"/>
			<point x="124.9444616357" y="322.7611940299"/>
			<point x="123.5634799162" y="317.2388059701"/>
			<point x="123.0036224623" y="315" type="qcurve" smooth="yes"/>
			<point x="120.0177160415" y="303.0597014925"/>
			<point x="120.7739882231" y="285.9701492537"/>
			<point x="125.2511842665" y="280" type="qcurve" smooth="yes"/>
			<point x="126.9301327828" y="277.7611940299"/>
			<point x="132.2694926692" y="275"/>
			<point x="136.0008359528" y="275" type="qcurve" smooth="yes"/>
			<point x="493.0008359528" y="275" type="line"/>
			<point x="493.5606934067" y="277.2388059701"/>
			<point x="494.9416751263" y="282.7611940299"/>
			<point x="495.5015325802" y="285" type="qcurve" smooth="yes"/>
			<point x="499.6071539087" y="301.4179104478"/>
			<point x="495.9371549105" y="325"/>
			<point x="482.5043190896" y="325" type="qcurve" smooth="yes"/>
		</contour>
	</outline>
	<guideline x="-65.7683212995" y="0" angle="179.1517819709" identifier="w5Z8m475k3"/>
	<guideline x="-15.7683212995" y="0" angle="179.1517819709" identifier="XOsS9AxEn4"/>
	<guideline x="34.2316787005" y="0" angle="179.1517819709" identifier="lwIniVZ0Tb"/>
	<guideline x="84.2316787005" y="0" angle="179.1517819709" identifier="maoydewdt8"/>
	<guideline x="134.2316787005" y="0" angle="179.1517819709" identifier="zP8wrILjai"/>
	<guideline x="184.2316787005" y="0" angle="179.1517819709" identifier="Izhxu19hQP"/>
	<guideline x="234.2316787005" y="0" angle="179.1517819709" identifier="yoTpHp8I6A"/>
	<guideline x="284.2316787005" y="0" angle="179.1517819709" identifier="VjI3lH30FK"/>
	<guideline x="334.2316787005" y="0" angle="179.1517819709" identifier="N3eqlwWzyi"/>
	<guideline x="384.2316787005" y="0" angle="179.1517819709" identifier="aNGrrSj3ox"/>
	<guideline x="434.2316787005" y="0" angle="179.1517819709" identifier="UkGxnoIZwj"/>
	<guideline x="484.2316787005" y="0" angle="179.1517819709" identifier="onEmnSMVDw"/>
	<guideline x="534.2316787005" y="0" angle="179.1517819709" identifier="h2orVdak8d"/>
	<guideline x="-128.2857369835" y="-250" angle="180" identifier="Aa385MeZwx"/>
	<guideline x="-115.7822538467" y="-200" angle="180" identifier="cwxiven151"/>
	<guideline x="-103.2787707099" y="-150" angle="180" identifier="eaaiKDaSOx"/>
	<guideline x="-90.7752875731" y="-100" angle="180" identifier="5lZTz0yWRh"/>
	<guideline x="-78.2718044363" y="-50" angle="180" identifier="WzM7omdIXh"/>
	<guideline x="-65.7683212995" y="0" angle="180" identifier="MdM6MLiYxu"/>
	<guideline x="-53.2648381627" y="50" angle="180" identifier="1X8NqH5GGP"/>
	<guideline x="-40.761355026" y="100" angle="180" identifier="hHjM3Kljdw"/>
	<guideline x="-28.2578718892" y="150" angle="180" identifier="8VCILJYIAe"/>
	<guideline x="-15.7543887524" y="200" angle="180" identifier="gYTtfpcrGB"/>
	<guideline x="-3.2509056156" y="250" angle="180" identifier="d69seR3qye"/>
	<guideline x="9.2525775212" y="300" angle="180" identifier="QNL6G5SRRi"/>
	<guideline x="21.756060658" y="350" angle="180" identifier="Sj5FA8bNqh"/>
	<guideline x="34.2595437948" y="400" angle="180" identifier="AgkL6af8lH"/>
	<guideline x="46.7630269316" y="450" angle="180" identifier="vE9z0nK0qO"/>
	<guideline x="59.2665100684" y="500" angle="180" identifier="QjK17fBpr6"/>
	<guideline x="71.7699932052" y="550" angle="180" identifier="BzSLjpqpNt"/>
	<guideline x="84.273476342" y="600" angle="180" identifier="7sxhKU82fB"/>
	<guideline x="96.7769594788" y="650" angle="180" identifier="3wX5v3bk62"/>
	<guideline x="109.2804426156" y="700" angle="180" identifier="JoVfgwHlsK"/>
</glyph>
<glyph name="zero" format="2">
	<unicode hex="0030"/>
	<advance width="600"/>
	<outline>
		<contour>
			<point x="408" y="720" type="qcurve" smooth="yes"/>
			<point x="313.9701492537" y="720"/>
			<point x="147.5373134328" y="558.1194029851"/>
			<point x="105" y="382" type="qcurve" smooth="yes"/>
			<point x="93" y="332" type="line" smooth="yes"/>
			<point x="54.1940298507" y="170.8059701493"/>
			<point x="134" y="-20"/>
			<point x="234" y="-20" type="qcurve" smooth="yes"/>
			<point x="248.1791044776" y="-20"/>
			<point x="262.0149253731" y="1.0447761194"/>
			<point x="265" y="10" type="qcurve"/>
			<point x="139.6268656716" y="24.9253731343"/>
			<point x="123.3582089552" y="246.4626865672"/>
			<point x="145" y="339" type="qcurve" smooth="yes"/>
			<point x="155" y="382" type="line" smooth="yes"/>
			<point x="185.5970149254" y="512.5970149254"/>
			<point x="310.7014925373" y="670"/>
			<point x="401" y="670" type="qcurve" smooth="yes"/>
			<point x="433.0895522388" y="670"/>
			<point x="487.8656716418" y="655.4328358209"/>
			<point x="511" y="642" type="qcurve"/>
			<point x="516.223880597" y="662.1492537313"/>
			<point x="459.4925373134" y="720"/>
		</contour>
		<contour>
			<point x="234" y="-20" type="qcurve" smooth="yes"/>
			<point x="328.776119403" y="-20"/>
			<point x="496.4626865672" y="145.8805970149"/>
			<point x="539" y="322" type="qcurve" smooth="yes"/>
			<point x="551" y="372" type="line" smooth="yes"/>
			<point x="589.8059701493" y="533.1940298507"/>
			<point x="508.7462686567" y="720"/>
			<point x="408" y="720" type="qcurve" smooth="yes"/>
			<point x="394.5671641791" y="720"/>
			<point x="381.2388059701" y="698.9552238806"/>
			<point x="379" y="690" type="qcurve"/>
			<point x="503.6268656716" y="675.0746268657"/>
			<point x="523.1343283582" y="456.7910447761"/>
			<point x="500" y="365" type="qcurve" smooth="yes"/>
			<point x="489" y="322" type="line" smooth="yes"/>
			<point x="456.1641791045" y="192.1492537313"/>
			<point x="333.2985074627" y="30"/>
			<point x="243" y="30" type="qcurve" smooth="yes"/>
			<point x="210.9104477612" y="30"/>
			<point x="154.1343283582" y="43.8208955224"/>
			<point x="131" y="58" type="qcurve"/>
			<point x="125.0298507463" y="33.3731343284"/>
			<point x="185.4925373134" y="-20"/>
		</contour>
		<contour>
			<point x="98" y="123" type="qcurve"/>
			<point x="224.1194029851" y="216.2835820896"/>
			<point x="436.5223880597" y="414.5820895522"/>
			<point x="541" y="531" type="qcurve" smooth="yes"/>
			<point x="557.4179104478" y="549.6567164179"/>
			<point x="552.7014925373" y="591.5373134328"/>
			<point x="543" y="599" type="qcurve"/>
			<point x="428.8208955224" y="465.4179104478"/>
			<point x="220.9104477612" y="278.7910447761"/>
			<point x="103" y="187" type="qcurve" smooth="yes"/>
			<point x="94.7910447761" y="181.0298507463"/>
			<point x="86.8059701493" y="133.447761194"/>
		</contour>
	</outline>
	<guideline x="-66" y="0" angle="75.96" identifier="AJuZ9efS9w"/>
	<guideline x="-16" y="0" angle="75.96" identifier="zyM168AcwP"/>
	<guideline x="34" y="0" angle="75.96" identifier="HwGGlslAI5"/>
	<guideline x="84" y="0" angle="75.96" identifier="63tPy5qKAf"/>
	<guideline x="134" y="0" angle="75.96" identifier="fKFpoQfung"/>
	<guideline x="184" y="0" angle="75.96" identifier="bcXIFDfqFK"/>
	<guideline x="234" y="0" angle="75.96" identifier="kHZ0gvMUzs"/>
	<guideline x="284" y="0" angle="75.96" identifier="QLdw9lkQ2m"/>
	<guideline x="334" y="0" angle="75.96" identifier="N13beObkLY"/>
	<guideline x="384" y="0" angle="75.96" identifier="xTGDf3N5IP"/>
	<guideline x="434" y="0" angle="75.96" identifier="pPeRgK3bO5"/>
	<guideline x="484" y="0" angle="75.96" identifier="PEVNxWl0S0"/>
	<guideline x="534" y="0" angle="75.96" identifier="10f1paf1gZ"/>
	<guideline x="-66" y="-250" angle="0" identifier="vIzo9u12qA"/>
	<guideline x="-66" y="-200" angle="0" identifier="RXDSSlqhdN"/>
	<guideline x="-66" y="-150" angle="0" identifier="V6Efog8HAd"/>
	<guideline x="-66" y="-100" angle="0" identifier="hMgGLBiXWp"/>
	<guideline x="-66" y="-50" angle="0" identifier="Ghy9ivizuI"/>
	<guideline x="-66" y="0" angle="0" identifier="t1EPDdYWRA"/>
	<guideline x="-66" y="50" angle="0" identifier="oo58U8Ps2G"/>
	<guideline x="-66" y="100" angle="0" identifier="27fQS4wt3P"/>
	<guideline x="-66" y="150" angle="0" identifier="kmkrA23nRF"/>
	<guideline x="-66" y="200" angle="0" identifier="B0JcE9t038"/>
	<guideline x="-66" y="250" angle="0" identifier="af7mXMUtyg"/>
	<guideline x="-66" y="300" angle="0" identifier="pS6ZYMEANB"/>
	<guideline x="-66" y="350" angle="0" identifier="uV4EwTfynS"/>
	<guideline x="-66" y="400" angle="0" identifier="sl8ZuymbRZ"/>
	<guideline x="-66" y="450" angle="0" identifier="iqcUzme0pv"/>
	<guideline x="-66" y="500" angle="0" identifier="tCL1EGzQqR"/>
	<guideline x="-66" y="550" angle="0" identifier="JgaNzJJMZF"/>
	<guideline x="-66" y="600" angle="0" identifier="6J7BrnCgQO"/>
	<guideline x="-66" y="650" angle="0" identifier="1MBaNb12K5"/>
	<guideline x="-66" y="700" angle="0" identifier="vdXj828gXL"/>
</glyph>
<glyph name="six" format="2">
	<unicode hex="0036"/>
	<advance width="600"/>
	<outline>
		<contour>
			<point x="116" y="110" type="qcurve"/>
			<point x="107.0447761194" y="58.5074626866"/>
			<point x="191.0895522388" y="-20"/>
			<point x="259" y="-20" type="qcurve"/>
			<point x="361.2388059701" y="-20"/>
			<point x="475.8656716418" y="84.2089552239"/>
			<point x="499" y="176" type="qcurve" smooth="yes"/>
			<point x="500" y="181" type="line" smooth="yes"/>
			<point x="516.4179104478" y="243.6865671642"/>
			<point x="470.0447761194" y="334.1940298507"/>
			<point x="429" y="323" type="qcurve"/>
			<point x="452.1343283582" y="290.1641791045"/>
			<point x="462.447761194" y="228.7910447761"/>
			<point x="452" y="187" type="qcurve" smooth="yes"/>
			<point x="450" y="181" type="line" smooth="yes"/>
			<point x="432.8358208955" y="110.1044776119"/>
			<point x="347.8656716418" y="27"/>
			<point x="271" y="27" type="qcurve" smooth="yes"/>
			<point x="220.2537313433" y="27"/>
			<point x="154.8059701493" y="62.2388059701"/>
		</contour>
		<contour>
			<point x="230" y="593" type="qcurve"/>
			<point x="281.4925373134" y="631.0597014925"/>
			<point x="367.2985074627" y="670"/>
			<point x="427" y="670" type="qcurve" smooth="yes"/>
			<point x="478.4925373134" y="670"/>
			<point x="555.5970149254" y="643.8656716418"/>
			<point x="575" y="617" type="qcurve"/>
			<point x="579" y="617" type="line"/>
			<point x="582.7313432836" y="622.9701492537"/>
			<point x="586.7611940299" y="633.5373134328"/>
			<point x="589" y="641" type="qcurve" smooth="yes"/>
			<point x="591.9850746269" y="653.6865671642"/>
			<point x="589.4776119403" y="672.0298507463"/>
			<point x="585" y="678" type="qcurve" smooth="yes"/>
			<point x="571.5671641791" y="695.9104477612"/>
			<point x="492" y="720"/>
			<point x="442" y="720" type="qcurve" smooth="yes"/>
			<point x="374.8358208955" y="720"/>
			<point x="225.5223880597" y="644.4925373134"/>
		</contour>
		<contour>
			<point x="99" y="360" type="qcurve" smooth="yes"/>
			<point x="96" y="347" type="line" smooth="yes"/>
			<point x="53.4626865672" y="164.1641791045"/>
			<point x="138.8507462687" y="-20"/>
			<point x="259" y="-20" type="qcurve" smooth="yes"/>
			<point x="268.7014925373" y="-20"/>
			<point x="293.0149253731" y="-0.447761194"/>
			<point x="296" y="10" type="qcurve"/>
			<point x="184.8059701493" y="10"/>
			<point x="104.4626865672" y="177.1044776119"/>
			<point x="147" y="348" type="qcurve" smooth="yes"/>
			<point x="150" y="360" type="line" smooth="yes"/>
			<point x="194.776119403" y="539.1044776119"/>
			<point x="336.8358208955" y="692"/>
			<point x="454" y="692" type="qcurve"/>
			<point x="456.9850746269" y="702.447761194"/>
			<point x="448.7164179104" y="720"/>
			<point x="442" y="720" type="qcurve" smooth="yes"/>
			<point x="302.447761194" y="719.2537313433"/>
			<point x="143.776119403" y="552.5373134328"/>
		</contour>
		<contour>
			<point x="328" y="385" type="qcurve" smooth="yes"/>
			<point x="263.0746268657" y="385"/>
			<point x="154.5671641791" y="346.3582089552"/>
			<point x="118" y="318" type="qcurve" smooth="yes"/>
			<point x="112.0298507463" y="312.776119403"/>
			<point x="99.223880597" y="283.8955223881"/>
			<point x="94" y="263" type="qcurve"/>
			<point x="144" y="298.8208955224"/>
			<point x="257.0447761194" y="335"/>
			<point x="316" y="335" type="qcurve" smooth="yes"/>
			<point x="402.5671641791" y="335"/>
			<point x="482.8955223881" y="235.8358208955"/>
			<point x="462" y="153" type="qcurve" smooth="yes"/>
			<point x="460.5074626866" y="146.2835820896"/>
			<point x="454.9850746269" y="131.223880597"/>
			<point x="452" y="126" type="qcurve"/>
			<point x="466.1791044776" y="126"/>
			<point x="497.0149253731" y="167.5671641791"/>
			<point x="500" y="181" type="qcurve" smooth="yes"/>
			<point x="523.8805970149" y="276.5223880597"/>
			<point x="417.552238806" y="385"/>
		</contour>
	</outline>
	<guideline x="-66" y="0" angle="75.96" identifier="Au5doZzneU"/>
	<guideline x="-16" y="0" angle="75.96" identifier="c9PovPhmeq"/>
	<guideline x="34" y="0" angle="75.96" identifier="9js2qNmPRG"/>
	<guideline x="84" y="0" angle="75.96" identifier="zTMXhe5aNt"/>
	<guideline x="134" y="0" angle="75.96" identifier="C194JTjadj"/>
	<guideline x="184" y="0" angle="75.96" identifier="aw49setfp5"/>
	<guideline x="234" y="0" angle="75.96" identifier="xcsqrQYhWb"/>
	<guideline x="284" y="0" angle="75.96" identifier="T0Sj91VEvw"/>
	<guideline x="334" y="0" angle="75.96" identifier="Dc72SjLcLw"/>
	<guideline x="384" y="0" angle="75.96" identifier="SMo9iFWD9h"/>
	<guideline x="434" y="0" angle="75.96" identifier="JklulHF2BQ"/>
	<guideline x="484" y="0" angle="75.96" identifier="ANwBtAMdJX"/>
	<guideline x="534" y="0" angle="75.96" identifier="PdjvEWtCmH"/>
	<guideline x="-66" y="-250" angle="0" identifier="yCTnzbs0Hk"/>
	<guideline x="-66" y="-200" angle="0" identifier="7ezORQRa7z"/>
	<guideline x="-66" y="-150" angle="0" identifier="RITL64mOQn"/>
	<guideline x="-66" y="-100" angle="0" identifier="4AQhvQnuMx"/>
	<guideline x="-66" y="-50" angle="0" identifier="nx1rU7sb12"/>
	<guideline x="-66" y="0" angle="0" identifier="uO5jNTC8zQ"/>
	<guideline x="-66" y="50" angle="0" identifier="M5NY5AFtj9"/>
	<guideline x="-66" y="100" angle="0" identifier="vtqQ40izzl"/>
	<guideline x="-66" y="150" angle="0" identifier="FY0uHRoHUB"/>
	<guideline x="-66" y="200" angle="0" identifier="VxAQQ39L5U"/>
	<guideline x="-66" y="250" angle="0" identifier="ytfw18Dnm4"/>
	<guideline x="-66" y="300" angle="0" identifier="ZbaRgUiaKi"/>
	<guideline x="-66" y="350" angle="0" identifier="1Pg0WXEFZI"/>
	<guideline x="-66" y="400" angle="0" identifier="Zd0yoMWjPd"/>
	<guideline x="-66" y="450" angle="0" identifier="V2qBAViWjg"/>
	<guideline x="-66" y="500" angle="0" identifier="9akxMbtMxn"/>
	<guideline x="-66" y="550" angle="0" identifier="gXHvTC4Hqz"/>
	<guideline x="-66" y="600" angle="0" identifier="z6p3f6ACXQ"/>
	<guideline x="-66" y="650" angle="0" identifier="1BzQNequHr"/>
	<guideline x="-66" y="700" angle="0" identifier="RxESsM8WV5"/>
</glyph>
<glyph name="less" format="2">
	<unicode hex="003C"/>
	<advance width="600"/>
	<outline>
		<contour>
			<point x="584.0172763585" y="511" type="qcurve"/>
			<point x="586.5179729859" y="521" type="line" smooth="yes"/>
			<point x="591.3700709195" y="540.4029850746"/>
			<point x="581.979505731" y="558"/>
			<point x="573.7705505071" y="558" type="qcurve" smooth="yes"/>
			<point x="564.0690579698" y="558"/>
			<point x="511.8294118878" y="545.9402985075"/>
			<point x="473.7688786014" y="534" type="qcurve" smooth="yes"/>
			<point x="350.4452277619" y="494.447761194"/>
			<point x="168.7181611024" y="395.1492537313"/>
			<point x="85.5043190896" y="325" type="qcurve"/>
			<point x="77.7521595448" y="294" type="line"/>
			<point x="76.0725871832" y="287.2835820896"/>
			<point x="94.012295117" y="278.8059701493"/>
			<point x="108.7518808939" y="290" type="qcurve" smooth="yes"/>
			<point x="226.2953288064" y="378.0597014925"/>
			<point x="410.5070063677" y="470.7014925373"/>
		</contour>
		<contour>
			<point x="462.4842562217" y="37" type="qcurve"/>
			<point x="465.0965084429" y="41.4776119403"/>
			<point x="468.9292457546" y="50.776119403"/>
			<point x="470.2355798137" y="56" type="qcurve" smooth="yes"/>
			<point x="473.4081053857" y="68.6865671642"/>
			<point x="469.1931036043" y="89.0149253731"/>
			<point x="460.2380876722" y="92" type="qcurve" smooth="yes"/>
			<point x="322.7409469636" y="133.0447761194"/>
			<point x="196.683339804" y="216.671641791"/>
			<point x="121.502647184" y="301" type="qcurve" smooth="yes"/>
			<point x="117.3984814947" y="305.4776119403"/>
			<point x="114.8841862054" y="314.5223880597"/>
			<point x="116.0039011132" y="319" type="qcurve" smooth="yes"/>
			<point x="116.5637585671" y="321.2388059701"/>
			<point x="119.139102855" y="331.5373134328"/>
			<point x="121.0052943679" y="339" type="qcurve"/>
			<point x="103.2808419126" y="330.7910447761"/>
			<point x="82.1115829191" y="311.4328358209"/>
			<point x="78.7524381958" y="298" type="qcurve" smooth="yes"/>
			<point x="76.2517415684" y="288" type="line" smooth="yes"/>
			<point x="72.8925968451" y="274.5671641791"/>
			<point x="82.312871375" y="254.9402985075"/>
			<point x="94.9986067453" y="243" type="qcurve" smooth="yes"/>
			<point x="160.8520848729" y="175.0895522388"/>
			<point x="306.1435719954" y="74.3134328358"/>
		</contour>
	</outline>
</glyph>
<glyph name="equal" format="2">
	<unicode hex="003D"/>
	<advance width="600"/>
	<outline>
		<contour>
			<point x="106.7630269316" y="450" type="line"/>
			<point x="106.2031694777" y="447.7611940299"/>
			<point x="104.8221877581" y="442.2388059701"/>
			<point x="104.2623303043" y="440" type="qcurve" smooth="yes"/>
			<point x="101.2764238835" y="428.0597014925"/>
			<point x="102.0326960651" y="410.9701492537"/>
			<point x="106.5098921085" y="405" type="qcurve" smooth="yes"/>
			<point x="108.1888406248" y="402.7611940299"/>
			<point x="113.5282005112" y="400"/>
			<point x="117.2595437948" y="400" type="qcurve" smooth="yes"/>
			<point x="574.2595437948" y="400" type="line"/>
			<point x="574.8194012487" y="402.2388059701"/>
			<point x="576.2003829683" y="407.7611940299"/>
			<point x="576.7602404222" y="410" type="qcurve" smooth="yes"/>
			<point x="580.8658617507" y="426.4179104478"/>
			<point x="577.1958627525" y="450"/>
			<point x="563.7630269316" y="450" type="qcurve" smooth="yes"/>
		</contour>
		<contour>
			<point x="511.7421281108" y="150" type="line"/>
			<point x="512.3019855647" y="152.2388059701"/>
			<point x="513.6829672843" y="157.7611940299"/>
			<point x="514.2428247382" y="160" type="qcurve" smooth="yes"/>
			<point x="517.2287311589" y="171.9402985075"/>
			<point x="516.4724589773" y="189.0298507463"/>
			<point x="511.995262934" y="195" type="qcurve" smooth="yes"/>
			<point x="510.3163144177" y="197.2388059701"/>
			<point x="504.9769545312" y="200"/>
			<point x="501.2456112476" y="200" type="qcurve" smooth="yes"/>
			<point x="44.2456112476" y="200" type="line"/>
			<point x="43.6857537938" y="197.7611940299"/>
			<point x="42.3047720742" y="192.2388059701"/>
			<point x="41.7449146203" y="190" type="qcurve" smooth="yes"/>
			<point x="37.6392932918" y="173.5820895522"/>
			<point x="41.3092922899" y="150"/>
			<point x="54.7421281108" y="150" type="qcurve" smooth="yes"/>
		</contour>
	</outline>
	<guideline x="-65.7683212995" y="0" angle="179.1517819709" identifier="82l8Dh2AW1"/>
	<guideline x="-15.7683212995" y="0" angle="179.1517819709" identifier="AcO2awqRmJ"/>
	<guideline x="34.2316787005" y="0" angle="179.1517819709" identifier="ahAY2qk3lG"/>
	<guideline x="84.2316787005" y="0" angle="179.1517819709" identifier="n9y7zZvvGy"/>
	<guideline x="134.2316787005" y="0" angle="179.1517819709" identifier="3UlSiPUivc"/>
	<guideline x="184.2316787005" y="0" angle="179.1517819709" identifier="PUvkqHnOOo"/>
	<guideline x="234.2316787005" y="0" angle="179.1517819709" identifier="CBZ2KwUZtT"/>
	<guideline x="284.2316787005" y="0" angle="179.1517819709" identifier="jBK6DiLn0v"/>
	<guideline x="334.2316787005" y="0" angle="179.1517819709" identifier="GtmeaZT2Eg"/>
	<guideline x="384.2316787005" y="0" angle="179.1517819709" identifier="BRVaSgV22q"/>
	<guideline x="434.2316787005" y="0" angle="179.1517819709" identifier="uM5L884SZa"/>
	<guideline x="484.2316787005" y="0" angle="179.1517819709" identifier="Lhjx12C5uv"/>
	<guideline x="534.2316787005" y="0" angle="179.1517819709" identifier="JIp3m2U1Nc"/>
	<guideline x="-128.2857369835" y="-250" angle="180" identifier="HpYjoimjiS"/>
	<guideline x="-115.7822538467" y="-200" angle="180" identifier="85WiAFKT6V"/>
	<guideline x="-103.2787707099" y="-150" angle="180" identifier="d6sMdJAPHn"/>
	<guideline x="-90.7752875731" y="-100" angle="180" identifier="KRl2b9IS6o"/>
	<guideline x="-78.2718044363" y="-50" angle="180" identifier="YIwcLCr4ZM"/>
	<guideline x="-65.7683212995" y="0" angle="180" identifier="dDXY7pVbBv"/>
	<guideline x="-53.2648381627" y="50" angle="180" identifier="glzgvHYqmC"/>
	<guideline x="-40.761355026" y="100" angle="180" identifier="RMvGASjSP9"/>
	<guideline x="-28.2578718892" y="150" angle="180" identifier="AQKeLMsISk"/>
	<guideline x="-15.7543887524" y="200" angle="180" identifier="3Uk0WPrDU0"/>
	<guideline x="-3.2509056156" y="250" angle="180" identifier="Z3lNS5lX1l"/>
	<guideline x="9.2525775212" y="300" angle="180" identifier="7nvRIkB1GG"/>
	<guideline x="21.756060658" y="350" angle="180" identifier="13EKJEBjyT"/>
	<guideline x="34.2595437948" y="400" angle="180" identifier="Cs7drL8B1B"/>
	<guideline x="46.7630269316" y="450" angle="180" identifier="KXhCIJuvxg"/>
	<guideline x="59.2665100684" y="500" angle="180" identifier="6Eq1o0lSaL"/>
	<guideline x="71.7699932052" y="550" angle="180" identifier="cIHngJG6Fh"/>
	<guideline x="84.273476342" y="600" angle="180" identifier="kMIars9O4A"/>
	<guideline x="96.7769594788" y="650" angle="180" identifier="S6IZJQrqI1"/>
	<guideline x="109.2804426156" y="700" angle="180" identifier="eSGSg2FRbS"/>
</glyph>
<glyph name="greater" format="2">
	<unicode hex="003E"/>
	<advance width="600"/>
	<outline>
		<contour>
			<point x="34.487878684" y="89" type="qcurve"/>
			<point x="31.9871820566" y="79" type="line" smooth="yes"/>
			<point x="27.1350841229" y="59.5970149254"/>
			<point x="36.5256493115" y="42"/>
			<point x="44.7346045354" y="42" type="qcurve" smooth="yes"/>
			<point x="54.4360970727" y="42"/>
			<point x="106.6757431546" y="54.0597014925"/>
			<point x="144.736276441" y="66" type="qcurve" smooth="yes"/>
			<point x="268.0599272806" y="105.552238806"/>
			<point x="449.78699394" y="204.8507462687"/>
			<point x="533.0008359528" y="275" type="qcurve"/>
			<point x="540.7529954976" y="306" type="line"/>
			<point x="542.4325678593" y="312.7164179104"/>
			<point x="524.4928599255" y="321.1940298507"/>
			<point x="509.7532741486" y="310" type="qcurve" smooth="yes"/>
			<point x="392.209826236" y="221.9402985075"/>
			<point x="207.9981486748" y="129.2985074627"/>
		</contour>
		<contour>
			<point x="156.0208988208" y="563" type="qcurve"/>
			<point x="153.4086465996" y="558.5223880597"/>
			<point x="149.5759092879" y="549.223880597"/>
			<point x="148.2695752288" y="544" type="qcurve" smooth="yes"/>
			<point x="145.0970496568" y="531.3134328358"/>
			<point x="149.3120514382" y="510.9850746269"/>
			<point x="158.2670673703" y="508" type="qcurve" smooth="yes"/>
			<point x="295.7642080789" y="466.9552238806"/>
			<point x="421.8218152385" y="383.328358209"/>
			<point x="497.0025078585" y="299" type="qcurve" smooth="yes"/>
			<point x="501.1066735477" y="294.5223880597"/>
			<point x="503.620968837" y="285.4776119403"/>
			<point x="502.5012539292" y="281" type="qcurve" smooth="yes"/>
			<point x="501.9413964754" y="278.7611940299"/>
			<point x="499.3660521875" y="268.4626865672"/>
			<point x="497.4998606745" y="261" type="qcurve"/>
			<point x="515.2243131298" y="269.2089552239"/>
			<point x="536.3935721234" y="288.5671641791"/>
			<point x="539.7527168467" y="302" type="qcurve" smooth="yes"/>
			<point x="542.2534134741" y="312" type="line" smooth="yes"/>
			<point x="545.6125581974" y="325.4328358209"/>
			<point x="536.1922836675" y="345.0597014925"/>
			<point x="523.5065482972" y="357" type="qcurve" smooth="yes"/>
			<point x="457.6530701695" y="424.9104477612"/>
			<point x="312.361583047" y="525.6865671642"/>
		</contour>
	</outline>
	<guideline x="-65.7683212995" y="0" angle="179.1517819709" identifier="TERJnPLu1v"/>
	<guideline x="-15.7683212995" y="0" angle="179.1517819709" identifier="4dHnGnCeiF"/>
	<guideline x="34.2316787005" y="0" angle="179.1517819709" identifier="scCaEmMq15"/>
	<guideline x="84.2316787005" y="0" angle="179.1517819709" identifier="vM8ZwGzGMI"/>
	<guideline x="134.2316787005" y="0" angle="179.1517819709" identifier="RWxceenJ6n"/>
	<guideline x="184.2316787005" y="0" angle="179.1517819709" identifier="RfKcrJw7BE"/>
	<guideline x="234.2316787005" y="0" angle="179.1517819709" identifier="DnS7129GI1"/>
	<guideline x="284.2316787005" y="0" angle="179.1517819709" identifier="mtuKHXs3dM"/>
	<guideline x="334.2316787005" y="0" angle="179.1517819709" identifier="aLFgS1Ue4c"/>
	<guideline x="384.2316787005" y="0" angle="179.1517819709" identifier="q6VbQBNgWg"/>
	<guideline x="434.2316787005" y="0" angle="179.1517819709" identifier="M1fDc5Utvi"/>
	<guideline x="484.2316787005" y="0" angle="179.1517819709" identifier="nMx0eMx2CN"/>
	<guideline x="534.2316787005" y="0" angle="179.1517819709" identifier="an553OeXxx"/>
	<guideline x="-128.2857369835" y="-250" angle="180" identifier="IuP0obY78d"/>
	<guideline x="-115.7822538467" y="-200" angle="180" identifier="0fRwgaCzGE"/>
	<guideline x="-103.2787707099" y="-150" angle="180" identifier="z4uW5aciKB"/>
	<guideline x="-90.7752875731" y="-100" angle="180" identifier="SWprXnZliP"/>
	<guideline x="-78.2718044363" y="-50" angle="180" identifier="MXy1BHqK5F"/>
	<guideline x="-65.7683212995" y="0" angle="180" identifier="VKHX9MuCkl"/>
	<guideline x="-53.2648381627" y="50" angle="180" identifier="DBhqE3gQA5"/>
	<guideline x="-40.761355026" y="100" angle="180" identifier="ercPAfp8uO"/>
	<guideline x="-28.2578718892" y="150" angle="180" identifier="YPXNndoRJV"/>
	<guideline x="-15.7543887524" y="200" angle="180" identifier="wZH7jQOfJC"/>
	<guideline x="-3.2509056156" y="250" angle="180" identifier="fEb5c19dUM"/>
	<guideline x="9.2525775212" y="300" angle="180" identifier="HOMVOA03M6"/>
	<guideline x="21.756060658" y="350" angle="180" identifier="4AdFm2eiz1"/>
	<guideline x="34.2595437948" y="400" angle="180" identifier="rbiDUzL6ep"/>
	<guideline x="46.7630269316" y="450" angle="180" identifier="FhZsRp5zG6"/>
	<guideline x="59.2665100684" y="500" angle="180" identifier="7FF0xsXYpx"/>
	<guideline x="71.7699932052" y="550" angle="180" identifier="lpq6nbKfbF"/>
	<guideline x="84.273476342" y="600" angle="180" identifier="V1xXPU1dns"/>
	<guideline x="96.7769594788" y="650" angle="180" identifier="IKQNOjOn8Y"/>
	<guideline x="109.2804426156" y="700" angle="180" identifier="aGkPEdhwi5"/>
</glyph>
<glyph name="A" format="2">
	<unicode hex="0041"/>
	<advance width="600"/>
	<outline>
		<contour>
			<point x="52" y="-7" type="qcurve"/>
			<point x="104.2388059701" y="201.9552238806"/>
			<point x="281.6119402985" y="546.5970149254"/>
			<point x="404" y="666" type="qcurve" smooth="yes"/>
			<point x="416.6865671642" y="678.6865671642"/>
			<point x="409.2089552239" y="710"/>
			<point x="401" y="710" type="qcurve" smooth="yes"/>
			<point x="379" y="710" type="line"/>
			<point x="234.223880597" y="566.7164179104"/>
			<point x="63.7164179104" y="240.6119402985"/>
			<point x="7" y="13" type="qcurve" smooth="yes"/>
			<point x="3.2686567164" y="-0.4328358209"/>
			<point x="22.0447761194" y="-10"/>
			<point x="31" y="-10" type="qcurve"/>
			<point x="38.4626865672" y="-10"/>
			<point x="47.5223880597" y="-8.4925373134"/>
		</contour>
		<contour>
			<point x="462" y="-7" type="qcurve"/>
			<point x="512" y="192"/>
			<point x="499.5820895522" y="537.0149253731"/>
			<point x="466" y="640" type="qcurve" smooth="yes"/>
			<point x="456.2985074627" y="669.1044776119"/>
			<point x="440.4776119403" y="695.0298507463"/>
			<point x="436" y="701" type="qcurve" smooth="yes"/>
			<point x="433.0149253731" y="705.4776119403"/>
			<point x="415.1791044776" y="710"/>
			<point x="401" y="710" type="qcurve" smooth="yes"/>
			<point x="392.7910447761" y="710"/>
			<point x="375.2388059701" y="689.9552238806"/>
			<point x="373" y="681" type="qcurve"/>
			<point x="376.7313432836" y="681"/>
			<point x="382.7611940299" y="681"/>
			<point x="385" y="681" type="qcurve" smooth="yes"/>
			<point x="388.7313432836" y="681"/>
			<point x="404.2985074627" y="665.8507462687"/>
			<point x="414" y="636" type="qcurve" smooth="yes"/>
			<point x="452.8059701493" y="518.8358208955"/>
			<point x="454.5671641791" y="160.776119403"/>
			<point x="418" y="16" type="qcurve" smooth="yes"/>
			<point x="416.5074626866" y="10.0298507463"/>
			<point x="417.7611940299" y="2.9850746269"/>
			<point x="420" y="0" type="qcurve" smooth="yes"/>
			<point x="423.7313432836" y="-5.223880597"/>
			<point x="437.5373134328" y="-10"/>
			<point x="445" y="-10" type="qcurve" smooth="yes"/>
			<point x="449.4776119403" y="-10"/>
			<point x="458.2686567164" y="-8.4925373134"/>
		</contour>
		<contour>
			<point x="51" y="268" type="line"/>
			<point x="49" y="258" type="line" smooth="yes"/>
			<point x="46.0149253731" y="246.8059701493"/>
			<point x="46.5223880597" y="230.9701492537"/>
			<point x="51" y="225" type="qcurve" smooth="yes"/>
			<point x="53.2388059701" y="222.7611940299"/>
			<point x="58.2686567164" y="220"/>
			<point x="62" y="220" type="qcurve"/>
			<point x="460" y="220" type="line"/>
			<point x="466.7164179104" y="246.8656716418"/>
			<point x="434.8208955224" y="268"/>
			<point x="399" y="268" type="qcurve" smooth="yes"/>
		</contour>
	</outline>
	<anchor name="top" x="411.5494605425" y="710"/>
	<anchor name="ring" x="407.0487639151" y="700"/>
	<anchor name="ogonek" x="461.9994426981" y="-8"/>
	<anchor name="bottom" x="233.7499303373" y="-1"/>
	<guideline x="0" y="0" angle="75.96" identifier="Bkj6sYmMHP"/>
	<guideline x="50" y="0" angle="75.96" identifier="M0TDOPn06F"/>
	<guideline x="100" y="0" angle="75.96" identifier="bbl12NZyMt"/>
	<guideline x="150" y="0" angle="75.96" identifier="9Q68dRzAJh"/>
	<guideline x="200" y="0" angle="75.96" identifier="LWifu6MIBB"/>
	<guideline x="250" y="0" angle="75.96" identifier="yGHDXaMOyt"/>
	<guideline x="300" y="0" angle="75.96" identifier="frFs4loy89"/>
	<guideline x="350" y="0" angle="75.96" identifier="4uVTCTVRmU"/>
	<guideline x="400" y="0" angle="75.96" identifier="I0vZhl1iAe"/>
	<guideline x="450" y="0" angle="75.96" identifier="v3LwXHC9E4"/>
	<guideline x="500" y="0" angle="75.96" identifier="oV9odHeDQP"/>
	<guideline x="550" y="0" angle="75.96" identifier="nM6l4x20Bn"/>
	<guideline x="600" y="0" angle="75.96" identifier="GJL9Asdn8v"/>
	<guideline x="0" y="-250" angle="0" identifier="JkWIamorlf"/>
	<guideline x="0" y="-200" angle="0" identifier="JX48sF9VXE"/>
	<guideline x="0" y="-150" angle="0" identifier="w514qwaG8v"/>
	<guideline x="0" y="-100" angle="0" identifier="UsCP2L6eF0"/>
	<guideline x="0" y="-50" angle="0" identifier="ZyQnIGz38D"/>
	<guideline x="0" y="0" angle="0" identifier="Uu4ukA2Lrk"/>
	<guideline x="0" y="50" angle="0" identifier="foVxvhxyEb"/>
	<guideline x="0" y="100" angle="0" identifier="FqZaPWsxx4"/>
	<guideline x="0" y="150" angle="0" identifier="YRGD6VNw3A"/>
	<guideline x="0" y="200" angle="0" identifier="xbTv8jFuIw"/>
	<guideline x="0" y="250" angle="0" identifier="cBco3jOGu6"/>
	<guideline x="0" y="300" angle="0" identifier="N4mJrVEjmg"/>
	<guideline x="0" y="350" angle="0" identifier="nyYOLh0c9x"/>
	<guideline x="0" y="400" angle="0" identifier="PAXyffCnGD"/>
	<guideline x="0" y="450" angle="0" identifier="EnMGKsl2d4"/>
	<guideline x="0" y="500" angle="0" identifier="6CTAeNonf1"/>
	<guideline x="0" y="550" angle="0" identifier="znA3mHh1EZ"/>
	<guideline x="0" y="600" angle="0" identifier="J5zoG1Qzyq"/>
	<guideline x="0" y="650" angle="0" identifier="q0zOvvYPJk"/>
	<guideline x="0" y="700" angle="0" identifier="KY4tBxgAl2"/>
</glyph>
<glyph name="D" format="2">
	<unicode hex="0044"/>
	<advance width="600"/>
	<outline>
		<contour>
			<point x="89" y="19" type="qcurve"/>
			<point x="237" y="613" type="line" smooth="yes"/>
			<point x="246.7014925373" y="651.0597014925"/>
			<point x="231.1194029851" y="684"/>
			<point x="205" y="684" type="qcurve"/>
			<point x="44" y="39" type="line"/>
			<point x="41.7611940299" y="31.5373134328"/>
			<point x="65.8656716418" y="19"/>
		</contour>
		<contour>
			<point x="159" y="700" type="qcurve"/>
			<point x="158.2537313433" y="697.7611940299"/>
			<point x="157" y="692.2388059701"/>
			<point x="157" y="690" type="qcurve" smooth="yes"/>
			<point x="154.0149253731" y="678.0597014925"/>
			<point x="154.5223880597" y="662.9701492537"/>
			<point x="159" y="657" type="qcurve" smooth="yes"/>
			<point x="161.2388059701" y="654.0149253731"/>
			<point x="169.0149253731" y="652"/>
			<point x="172" y="652" type="qcurve" smooth="yes"/>
			<point x="177.223880597" y="652"/>
			<point x="191.0447761194" y="653.5074626866"/>
			<point x="200" y="655" type="qcurve" smooth="yes"/>
			<point x="238.8059701493" y="661.7164179104"/>
			<point x="341.9402985075" y="672"/>
			<point x="380" y="672" type="qcurve" smooth="yes"/>
			<point x="441.9402985075" y="672"/>
			<point x="515.9402985075" y="645.7910447761"/>
			<point x="554" y="604" type="qcurve"/>
			<point x="564.447761194" y="632.3582089552"/>
			<point x="482.3582089552" y="720"/>
			<point x="404" y="720" type="qcurve" smooth="yes"/>
			<point x="348.776119403" y="720"/>
			<point x="234.3731343284" y="711.9402985075"/>
		</contour>
		<contour>
			<point x="551" y="347" type="qcurve" smooth="yes"/>
			<point x="565" y="400" type="line" smooth="yes"/>
			<point x="601.5671641791" y="538.0597014925"/>
			<point x="533.1044776119" y="720"/>
			<point x="404" y="720" type="qcurve" smooth="yes"/>
			<point x="396.5373134328" y="720"/>
			<point x="382.2388059701" y="700.9552238806"/>
			<point x="380" y="692" type="qcurve"/>
			<point x="496.4179104478" y="692"/>
			<point x="549.8059701493" y="538.9850746269"/>
			<point x="511" y="386" type="qcurve" smooth="yes"/>
			<point x="501" y="346" type="line" smooth="yes"/>
			<point x="460.7014925373" y="189.2835820896"/>
			<point x="286.1194029851" y="38"/>
			<point x="160" y="38" type="qcurve" smooth="yes"/>
			<point x="131.6417910448" y="38"/>
			<point x="83.4029850746" y="50.328358209"/>
			<point x="64" y="66" type="qcurve"/>
			<point x="55.7910447761" y="60.776119403"/>
			<point x="46.2388059701" y="47.9552238806"/>
			<point x="44" y="39" type="qcurve" smooth="yes"/>
			<point x="38.776119403" y="18.1044776119"/>
			<point x="94.2985074627" y="-10"/>
			<point x="154" y="-10" type="qcurve" smooth="yes"/>
			<point x="159" y="-10" type="line" smooth="yes"/>
			<point x="308.2537313433" y="-10"/>
			<point x="504.7313432836" y="171.6268656716"/>
		</contour>
	</outline>
	<anchor name="top" x="398.7995302052" y="711"/>
	<guideline x="0" y="0" angle="75.96" identifier="4rM6squOvj"/>
	<guideline x="50" y="0" angle="75.96" identifier="hA2xdlz1KQ"/>
	<guideline x="100" y="0" angle="75.96" identifier="YDKgtMv8te"/>
	<guideline x="150" y="0" angle="75.96" identifier="2RT3Arcvv8"/>
	<guideline x="200" y="0" angle="75.96" identifier="In2ommcNvJ"/>
	<guideline x="250" y="0" angle="75.96" identifier="whpcLoM989"/>
	<guideline x="300" y="0" angle="75.96" identifier="oDYQeYHQxY"/>
	<guideline x="350" y="0" angle="75.96" identifier="7KVSh5P4LS"/>
	<guideline x="400" y="0" angle="75.96" identifier="7UfcASFG9z"/>
	<guideline x="450" y="0" angle="75.96" identifier="IYrcy8XgDU"/>
	<guideline x="500" y="0" angle="75.96" identifier="lwyU8kqnrC"/>
	<guideline x="550" y="0" angle="75.96" identifier="cAKQNeQufZ"/>
	<guideline x="600" y="0" angle="75.96" identifier="1edT2D79Hd"/>
	<guideline x="0" y="-250" angle="0" identifier="xbVbEKCs3W"/>
	<guideline x="0" y="-200" angle="0" identifier="hWhCGdSyIw"/>
	<guideline x="0" y="-150" angle="0" identifier="sve0mXlHqq"/>
	<guideline x="0" y="-100" angle="0" identifier="Ge0AfBgshi"/>
	<guideline x="0" y="-50" angle="0" identifier="ZhiB32xn4g"/>
	<guideline x="0" y="0" angle="0" identifier="XP5k6cf5KR"/>
	<guideline x="0" y="50" angle="0" identifier="ujvQOCgTup"/>
	<guideline x="0" y="100" angle="0" identifier="nyU7vJDa1F"/>
	<guideline x="0" y="150" angle="0" identifier="QKTHcMepF2"/>
	<guideline x="0" y="200" angle="0" identifier="REhExDtDiZ"/>
	<guideline x="0" y="250" angle="0" identifier="krg9FFVrks"/>
	<guideline x="0" y="300" angle="0" identifier="788Y2m0ENX"/>
	<guideline x="0" y="350" angle="0" identifier="gDlcwqW215"/>
	<guideline x="0" y="400" angle="0" identifier="XLRz1ILzd2"/>
	<guideline x="0" y="450" angle="0" identifier="L5t3Mo2BQW"/>
	<guideline x="0" y="500" angle="0" identifier="bA3bqNmlZ5"/>
	<guideline x="0" y="550" angle="0" identifier="yCNFLRRxAe"/>
	<guideline x="0" y="600" angle="0" identifier="T4eGIaITJH"/>
	<guideline x="0" y="650" angle="0" identifier="moSpjQTfnj"/>
	<guideline x="0" y="700" angle="0" identifier="TIOxBR8dur"/>
</glyph>
<glyph name="L" format="2">
	<unicode hex="004C"/>
	<advance width="600"/>
	<outline>
		<contour>
			<point x="89" y="20" type="qcurve"/>
			<point x="247" y="650" type="line" smooth="yes"/>
			<point x="250.7313432836" y="666.4179104478"/>
			<point x="252.7164179104" y="693.0447761194"/>
			<point x="246" y="702" type="qcurve" smooth="yes"/>
			<point x="243.0149253731" y="705.7313432836"/>
			<point x="232.447761194" y="710"/>
			<point x="222" y="710" type="qcurve" smooth="yes"/>
			<point x="217.5223880597" y="710"/>
			<point x="208.4776119403" y="708.4925373134"/>
			<point x="204" y="707" type="qcurve"/>
			<point x="201.7611940299" y="680.8805970149"/>
			<point x="190.7164179104" y="627.6119402985"/>
			<point x="184" y="600" type="qcurve" smooth="yes"/>
			<point x="46" y="48" type="line" smooth="yes"/>
			<point x="43.0149253731" y="34.5671641791"/>
			<point x="70.3432835821" y="20"/>
		</contour>
		<contour>
			<point x="46" y="48" type="line"/>
			<point x="44" y="39" type="line" smooth="yes"/>
			<point x="41.0149253731" y="25.5671641791"/>
			<point x="52.0597014925" y="0"/>
			<point x="64" y="0" type="qcurve" smooth="yes"/>
			<point x="464" y="0" type="line"/>
			<point x="464.7462686567" y="2.2388059701"/>
			<point x="466.2537313433" y="7.7611940299"/>
			<point x="467" y="10" type="qcurve" smooth="yes"/>
			<point x="471.4776119403" y="29.4029850746"/>
			<point x="464.1940298507" y="48"/>
			<point x="453" y="48" type="qcurve"/>
		</contour>
	</outline>
	<anchor name="top" x="237.7995302052" y="711"/>
	<anchor name="caronslovak" x="477.5383145047" y="550"/>
	<anchor name="bottom" x="244.7499303373" y="-1"/>
	<anchor name="dot" x="395.0278650944" y="400"/>
</glyph>
<glyph name="P" format="2">
	<unicode hex="0050"/>
	<advance width="600"/>
	<outline>
		<contour>
			<point x="89" y="-7" type="qcurve"/>
			<point x="91.2388059701" y="19.1194029851"/>
			<point x="102.2835820896" y="72.3880597015"/>
			<point x="109" y="100" type="qcurve" smooth="yes"/>
			<point x="237" y="613" type="line" smooth="yes"/>
			<point x="246.7014925373" y="651.0597014925"/>
			<point x="231.1194029851" y="684"/>
			<point x="205" y="684" type="qcurve"/>
			<point x="47" y="50" type="line" smooth="yes"/>
			<point x="42.5223880597" y="33.5820895522"/>
			<point x="41.0298507463" y="6.9552238806"/>
			<point x="47" y="-2" type="qcurve" smooth="yes"/>
			<point x="49.9850746269" y="-5.7313432836"/>
			<point x="60.552238806" y="-10"/>
			<point x="71" y="-10" type="qcurve" smooth="yes"/>
			<point x="75.4776119403" y="-10"/>
			<point x="84.5223880597" y="-8.4925373134"/>
		</contour>
		<contour>
			<point x="159" y="700" type="qcurve"/>
			<point x="158.2537313433" y="697.7611940299"/>
			<point x="157" y="692.2388059701"/>
			<point x="157" y="690" type="qcurve" smooth="yes"/>
			<point x="154.0149253731" y="678.0597014925"/>
			<point x="154.5223880597" y="662.9701492537"/>
			<point x="159" y="657" type="qcurve" smooth="yes"/>
			<point x="161.2388059701" y="654.0149253731"/>
			<point x="169.0149253731" y="652"/>
			<point x="172" y="652" type="qcurve" smooth="yes"/>
			<point x="177.223880597" y="652"/>
			<point x="191.0447761194" y="653.5074626866"/>
			<point x="200" y="655" type="qcurve" smooth="yes"/>
			<point x="238.8059701493" y="661.7164179104"/>
			<point x="341.9402985075" y="672"/>
			<point x="380" y="672" type="qcurve" smooth="yes"/>
			<point x="448.6567164179" y="672"/>
			<point x="522.9253731343" y="642.0447761194"/>
			<point x="558" y="601" type="qcurve"/>
			<point x="576.6567164179" y="643.5373134328"/>
			<point x="468.6865671642" y="720"/>
			<point x="406" y="720" type="qcurve" smooth="yes"/>
			<point x="350.776119403" y="720"/>
			<point x="234.3731343284" y="711.9402985075"/>
		</contour>
		<contour>
			<point x="570" y="447" type="qcurve" smooth="yes"/>
			<point x="587" y="516" type="line" smooth="yes"/>
			<point x="608.6417910448" y="601.0746268657"/>
			<point x="514.2089552239" y="720"/>
			<point x="406" y="720" type="qcurve" smooth="yes"/>
			<point x="390.328358209" y="720"/>
			<point x="372.2388059701" y="705.447761194"/>
			<point x="370" y="695" type="qcurve"/>
			<point x="464.776119403" y="695"/>
			<point x="559.1343283582" y="602.0298507463"/>
			<point x="536" y="508" type="qcurve" smooth="yes"/>
			<point x="524" y="460" type="line" smooth="yes"/>
			<point x="499.3731343284" y="362.9850746269"/>
			<point x="298.4179104478" y="235"/>
			<point x="182" y="235" type="qcurve" smooth="yes"/>
			<point x="155.1343283582" y="235"/>
			<point x="136.223880597" y="235"/>
			<point x="131" y="235" type="qcurve"/>
			<point x="127.2686567164" y="232.7611940299"/>
			<point x="122.7462686567" y="227.7313432836"/>
			<point x="122" y="224" type="qcurve" smooth="yes"/>
			<point x="118.2686567164" y="209.8208955224"/>
			<point x="154.0895522388" y="187"/>
			<point x="172" y="187" type="qcurve" smooth="yes"/>
			<point x="176" y="187" type="line" smooth="yes"/>
			<point x="320.776119403" y="187"/>
			<point x="541.6417910448" y="333.5671641791"/>
		</contour>
	</outline>
</glyph>
<glyph name="X" format="2">
	<unicode hex="0058"/>
	<advance width="600"/>
	<outline>
		<contour>
			<point x="469" y="-6" type="qcurve" smooth="yes"/>
			<point x="477.2089552239" y="-6"/>
			<point x="495.5373134328" y="-2.9850746269"/>
			<point x="503" y="0" type="qcurve"/>
			<point x="452.2537313433" y="54.4776119403"/>
			<point x="352.0597014925" y="211.4626865672"/>
			<point x="314" y="304" type="qcurve" smooth="yes"/>
			<point x="311.7611940299" y="309.9701492537"/>
			<point x="306.2388059701" y="321.0298507463"/>
			<point x="304" y="327" type="qcurve" smooth="yes"/>
			<point x="263.7014925373" y="424.7611940299"/>
			<point x="224.447761194" y="620.5820895522"/>
			<point x="214" y="687" type="qcurve"/>
			<point x="212.5074626866" y="695.9552238806"/>
			<point x="191.3880597015" y="706"/>
			<point x="169" y="706" type="qcurve"/>
			<point x="156" y="706" type="line"/>
			<point x="169.4328358209" y="614.9552238806"/>
			<point x="218.447761194" y="392.7611940299"/>
			<point x="258" y="295" type="qcurve" smooth="yes"/>
			<point x="260.2388059701" y="290.5223880597"/>
			<point x="264.5074626866" y="280.4776119403"/>
			<point x="266" y="276" type="qcurve" smooth="yes"/>
			<point x="304.0597014925" y="187.9402985075"/>
			<point x="397.9253731343" y="50.0447761194"/>
			<point x="433" y="9" type="qcurve" smooth="yes"/>
			<point x="439.7164179104" y="1.5373134328"/>
			<point x="453.328358209" y="-6"/>
		</contour>
		<contour>
			<point x="621" y="706" type="qcurve" smooth="yes"/>
			<point x="615" y="706" type="line"/>
			<point x="546.3432835821" y="599.2835820896"/>
			<point x="383.7014925373" y="416.776119403"/>
			<point x="274" y="322" type="qcurve" smooth="yes"/>
			<point x="257.5820895522" y="307.8208955224"/>
			<point x="293.1044776119" y="289.2686567164"/>
			<point x="314" y="293" type="qcurve"/>
			<point x="422.9552238806" y="388.5223880597"/>
			<point x="589.3731343284" y="570.2985074627"/>
			<point x="664" y="680" type="qcurve" smooth="yes"/>
			<point x="666.9850746269" y="684.4776119403"/>
			<point x="666.9850746269" y="693.0149253731"/>
			<point x="664" y="696" type="qcurve" smooth="yes"/>
			<point x="658.0298507463" y="701.9701492537"/>
			<point x="633.6865671642" y="706"/>
		</contour>
		<contour>
			<point x="20" y="-6" type="qcurve" smooth="yes"/>
			<point x="26" y="-6" type="line"/>
			<point x="80.4776119403" y="75.3432835821"/>
			<point x="222.8805970149" y="226.8059701493"/>
			<point x="299" y="288" type="qcurve" smooth="yes"/>
			<point x="317.6567164179" y="302.9253731343"/>
			<point x="276.6417910448" y="319.7313432836"/>
			<point x="255" y="316" type="qcurve"/>
			<point x="171.4179104478" y="246.5970149254"/>
			<point x="33.2089552239" y="98.8507462687"/>
			<point x="-25" y="19" type="qcurve" smooth="yes"/>
			<point x="-29.4776119403" y="13.0298507463"/>
			<point x="-28.9850746269" y="5.9850746269"/>
			<point x="-26" y="3" type="qcurve" smooth="yes"/>
			<point x="-21.5223880597" y="-1.4776119403"/>
			<point x="1.3432835821" y="-6"/>
		</contour>
	</outline>
</glyph>
<glyph name="backslash" format="2">
	<unicode hex="005C"/>
	<advance width="600"/>
	<outline>
		<contour>
			<point x="217.7839257524" y="750" type="qcurve"/>
			<point x="217.3938436241" y="506.7164179104"/>
			<point x="283.438226465" y="72.5671641791"/>
			<point x="348.7237371486" y="-114" type="qcurve" smooth="yes"/>
			<point x="353.9465780033" y="-128.9253731343"/>
			<point x="374.8003537891" y="-139"/>
			<point x="390.4719955802" y="-139" type="qcurve" smooth="yes"/>
			<point x="399.4272194608" y="-139"/>
			<point x="414.509519041" y="-135.9850746269"/>
			<point x="421.9724135566" y="-133" type="qcurve"/>
			<point x="411.5256921049" y="-118.0746268657"/>
			<point x="397.3750017416" y="-85.1343283582"/>
			<point x="389.7273596108" y="-62" type="qcurve" smooth="yes"/>
			<point x="332.2771499516" y="117.1044776119"/>
			<point x="275.0737570212" y="518.328358209"/>
			<point x="273.7828111486" y="734" type="qcurve" smooth="yes"/>
			<point x="273.5972317396" y="748.1791044776"/>
			<point x="253.9858362661" y="756"/>
			<point x="244.2843437288" y="756" type="qcurve" smooth="yes"/>
			<point x="236.0753885049" y="756"/>
			<point x="223.7542829546" y="752.9850746269"/>
		</contour>
	</outline>
</glyph>
<glyph name="exclamdown" format="2">
	<unicode hex="00A1"/>
	<advance width="600"/>
	<outline>
		<contour>
			<point x="285.0022292075" y="295" type="line"/>
			<point x="265.2220548095" y="236.7910447761"/>
			<point x="230.855881428" y="122.4626865672"/>
			<point x="216.4862067783" y="65" type="qcurve"/>
			<point x="166.4722742311" y="-134" type="line" smooth="yes"/>
			<point x="160.687080541" y="-158.1343283582"/>
			<point x="179.3799354829" y="-174"/>
			<point x="211.4694877217" y="-174" type="qcurve" smooth="yes"/>
			<point x="218.1859056321" y="-174"/>
			<point x="229.368846467" y="-173.4925373134"/>
			<point x="234.2196967099" y="-171" type="qcurve"/>
			<point x="236.2737550649" y="-145.8805970149"/>
			<point x="247.0722420247" y="-92.6119402985"/>
			<point x="253.9771506226" y="-64" type="qcurve" smooth="yes"/>
			<point x="286.736276441" y="66" type="line" smooth="yes"/>
			<point x="309.3171937478" y="156.2985074627"/>
			<point x="331.0865559933" y="273.552238806"/>
			<point x="323.2514629175" y="284" type="qcurve" smooth="yes"/>
			<point x="318.2146173687" y="290.7164179104"/>
			<point x="299.4499904016" y="295"/>
			<point x="289.0022292075" y="295" type="qcurve" smooth="yes"/>
		</contour>
		<contour>
			<point x="303.7683212995" y="526" type="qcurve"/>
			<point x="288.5140718727" y="465" type="line" smooth="yes"/>
			<point x="282.1690207286" y="439.6268656716"/>
			<point x="310.4468075864" y="410"/>
			<point x="347.7602404222" y="410" type="qcurve" smooth="yes"/>
			<point x="364.1781508699" y="410"/>
			<point x="390.8801508015" y="417.2835820896"/>
			<point x="402.2612157005" y="424" type="qcurve"/>
			<point x="417.5154651274" y="485" type="line" smooth="yes"/>
			<point x="423.8605162714" y="510.3731343284"/>
			<point x="395.5827294137" y="540"/>
			<point x="358.2692965778" y="540" type="qcurve" smooth="yes"/>
			<point x="341.8513861301" y="540"/>
			<point x="315.1493861985" y="532.7164179104"/>
		</contour>
	</outline>
	<guideline x="-65.7683212995" y="0" angle="179.1517819709" identifier="1aoTBGoB6v"/>
	<guideline x="-15.7683212995" y="0" angle="179.1517819709" identifier="bwSiwikFN0"/>
	<guideline x="34.2316787005" y="0" angle="179.1517819709" identifier="V93mYzeHP2"/>
	<guideline x="84.2316787005" y="0" angle="179.1517819709" identifier="FKrR5ntuYv"/>
	<guideline x="134.2316787005" y="0" angle="179.1517819709" identifier="KyKtazIZ7b"/>
	<guideline x="184.2316787005" y="0" angle="179.1517819709" identifier="5DbBzq4GWr"/>
	<guideline x="234.2316787005" y="0" angle="179.1517819709" identifier="UPuF2MwLiu"/>
	<guideline x="284.2316787005" y="0" angle="179.1517819709" identifier="H5KS7VODpz"/>
	<guideline x="334.2316787005" y="0" angle="179.1517819709" identifier="zTZFu1jWwu"/>
	<guideline x="384.2316787005" y="0" angle="179.1517819709" identifier="oKDRgB6zLr"/>
	<guideline x="434.2316787005" y="0" angle="179.1517819709" identifier="prL8umfNOC"/>
	<guideline x="484.2316787005" y="0" angle="179.1517819709" identifier="c3ywissUP7"/>
	<guideline x="534.2316787005" y="0" angle="179.1517819709" identifier="zKreT52Hd9"/>
	<guideline x="-128.2857369835" y="-250" angle="180" identifier="UwsW7W6HPR"/>
	<guideline x="-115.7822538467" y="-200" angle="180" identifier="y5M0Gwg1AH"/>
	<guideline x="-103.2787707099" y="-150" angle="180" identifier="dnlPh6jJIJ"/>
	<guideline x="-90.7752875731" y="-100" angle="180" identifier="K3zf0Kv4tg"/>
	<guideline x="-78.2718044363" y="-50" angle="180" identifier="08awwktOf7"/>
	<guideline x="-65.7683212995" y="0" angle="180" identifier="ZX5fyHQe71"/>
	<guideline x="-53.2648381627" y="50" angle="180" identifier="DrOfv9XXDk"/>
	<guideline x="-40.761355026" y="100" angle="180" identifier="hSxQ5zt6va"/>
	<guideline x="-28.2578718892" y="150" angle="180" identifier="7n0YM7eieH"/>
	<guideline x="-15.7543887524" y="200" angle="180" identifier="0F5bXIgNnV"/>
	<guideline x="-3.2509056156" y="250" angle="180" identifier="fak8cwWU9n"/>
	<guideline x="9.2525775212" y="300" angle="180" identifier="U3Hp1J791U"/>
	<guideline x="21.756060658" y="350" angle="180" identifier="6qZVcyrjNK"/>
	<guideline x="34.2595437948" y="400" angle="180" identifier="42DHZZhB8Q"/>
	<guideline x="46.7630269316" y="450" angle="180" identifier="lI6SHESEU8"/>
	<guideline x="59.2665100684" y="500" angle="180" identifier="4Dq6nJxpCi"/>
	<guideline x="71.7699932052" y="550" angle="180" identifier="lY7hKKV2zk"/>
	<guideline x="84.273476342" y="600" angle="180" identifier="KwG4x2DT89"/>
	<guideline x="96.7769594788" y="650" angle="180" identifier="imKUWpu9iK"/>
	<guideline x="109.2804426156" y="700" angle="180" identifier="eVupKpoDmI"/>
</glyph>
<glyph name="cent" format="2">
	<unicode hex="00A2"/>
	<advance width="600"/>
	<outline>
		<contour>
			<point x="384.0114246887" y="427" type="line"/>
			<point x="474.2812785684" y="712" type="line" smooth="yes"/>
			<point x="483.7982314391" y="741.1044776119"/>
			<point x="474.1731000577" y="766"/>
			<point x="451.7850403562" y="766" type="qcurve" smooth="yes"/>
			<point x="444.322353789" y="766"/>
			<point x="429.6356119481" y="763.4925373134"/>
			<point x="424.7847617052" y="762" type="qcurve"/>
			<point x="424.7835140144" y="744.0895522388"/>
			<point x="417.6800862503" y="705.5970149254"/>
			<point x="410.0287010472" y="675" type="qcurve" smooth="yes"/>
			<point x="355.0133752453" y="455" type="line" smooth="yes"/>
			<point x="351.654230522" y="441.5671641791"/>
			<point x="364.3397828976" y="427"/>
			<point x="380.0114246887" y="427" type="qcurve" smooth="yes"/>
		</contour>
		<contour>
			<point x="303.0002786509" y="267" type="line"/>
			<point x="212.7304247712" y="-18" type="line" smooth="yes"/>
			<point x="203.2134719005" y="-47.1044776119"/>
			<point x="212.838603282" y="-72"/>
			<point x="235.2266629835" y="-72" type="qcurve" smooth="yes"/>
			<point x="242.6893495506" y="-72"/>
			<point x="257.3760913915" y="-69.4925373134"/>
			<point x="262.2269416344" y="-68" type="qcurve"/>
			<point x="262.2281893252" y="-50.0895522388"/>
			<point x="269.3316170893" y="-11.5970149254"/>
			<point x="276.9830022924" y="19" type="qcurve" smooth="yes"/>
			<point x="331.9983280943" y="239" type="line" smooth="yes"/>
			<point x="335.3574728177" y="252.4328358209"/>
			<point x="322.671920442" y="267"/>
			<point x="307.0002786509" y="267" type="qcurve" smooth="yes"/>
		</contour>
		<contour>
			<point x="428.0250785849" y="623" type="qcurve" smooth="yes"/>
			<point x="317.5773173909" y="623"/>
			<point x="125.3871708498" y="464.4925373134"/>
			<point x="87.5034831368" y="313" type="qcurve" smooth="yes"/>
			<point x="83.7524381958" y="298" type="line" smooth="yes"/>
			<point x="58.3722336196" y="196.5074626866"/>
			<point x="154.5915203431" y="77"/>
			<point x="275.4870427311" y="77" type="qcurve" smooth="yes"/>
			<point x="282.2034606416" y="77"/>
			<point x="300.1375919814" y="95.5970149254"/>
			<point x="304.9896899151" y="115" type="qcurve"/>
			<point x="194.5419287211" y="115"/>
			<point x="113.5341193444" y="217.1492537313"/>
			<point x="133.502368533" y="297" type="qcurve" smooth="yes"/>
			<point x="137.5034831368" y="313" type="line" smooth="yes"/>
			<point x="165.4963558311" y="424.9402985075"/>
			<point x="310.506670075" y="573"/>
			<point x="407.5215954481" y="573" type="qcurve" smooth="yes"/>
			<point x="466.4768193287" y="573"/>
			<point x="525.5827003009" y="539.5820895522"/>
			<point x="550.7669280448" y="506" type="qcurve"/>
			<point x="554.7669280448" y="506" type="line"/>
			<point x="556.2596733067" y="508.9850746269"/>
			<point x="559.525159101" y="517.0298507463"/>
			<point x="561.0181123113" y="523" type="qcurve" smooth="yes"/>
			<point x="564.1906378834" y="535.6865671642"/>
			<point x="566.6780186587" y="568.7910447761"/>
			<point x="560.5218740991" y="577" type="qcurve" smooth="yes"/>
			<point x="542.6130899256" y="600.8805970149"/>
			<point x="475.7862726148" y="623"/>
		</contour>
		<contour>
			<point x="122.7454719222" y="198" type="qcurve"/>
			<point x="93.2652606261" y="160.6865671642"/>
			<point x="193.3974904923" y="77"/>
			<point x="275.4870427311" y="77" type="qcurve" smooth="yes"/>
			<point x="328.472117358" y="77"/>
			<point x="425.6198762318" y="109.1044776119"/>
			<point x="451.7407348561" y="130" type="qcurve" smooth="yes"/>
			<point x="462.9353885523" y="138.9552238806"/>
			<point x="476.0047881774" y="171.0447761194"/>
			<point x="478.2442179929" y="180" type="qcurve" smooth="yes"/>
			<point x="479.7371712033" y="185.9701492537"/>
			<point x="480.495194311" y="194.0149253731"/>
			<point x="480.4954022594" y="197" type="qcurve"/>
			<point x="476.4954022594" y="197" type="line"/>
			<point x="434.1422125963" y="161.9253731343"/>
			<point x="344.4532124351" y="127"/>
			<point x="286.9905258679" y="127" type="qcurve" smooth="yes"/>
			<point x="225.0502273605" y="127"/>
			<point x="148.8623795257" y="162.1791044776"/>
		</contour>
	</outline>
	<guideline x="-65.7683212995" y="0" angle="179.1517819709" identifier="6k2nhr9PYB"/>
	<guideline x="-15.7683212995" y="0" angle="179.1517819709" identifier="lkfzjrercK"/>
	<guideline x="34.2316787005" y="0" angle="179.1517819709" identifier="2ikxQ6VYXi"/>
	<guideline x="84.2316787005" y="0" angle="179.1517819709" identifier="IBMkTCT2Bp"/>
	<guideline x="134.2316787005" y="0" angle="179.1517819709" identifier="NvJAOPkbYV"/>
	<guideline x="184.2316787005" y="0" angle="179.1517819709" identifier="6wnGxLNMyq"/>
	<guideline x="234.2316787005" y="0" angle="179.1517819709" identifier="XV4xh9Etgh"/>
	<guideline x="284.2316787005" y="0" angle="179.1517819709" identifier="L24WLQk7S7"/>
	<guideline x="334.2316787005" y="0" angle="179.1517819709" identifier="Xiet9RdwYk"/>
	<guideline x="384.2316787005" y="0" angle="179.1517819709" identifier="wyZclMmOft"/>
	<guideline x="434.2316787005" y="0" angle="179.1517819709" identifier="tnV0IQoP7O"/>
	<guideline x="484.2316787005" y="0" angle="179.1517819709" identifier="j7HJc8AC14"/>
	<guideline x="534.2316787005" y="0" angle="179.1517819709" identifier="k6FaeMfsdi"/>
	<guideline x="-128.2857369835" y="-250" angle="180" identifier="vrLEIaLyxi"/>
	<guideline x="-115.7822538467" y="-200" angle="180" identifier="mmK0oiaJwb"/>
	<guideline x="-103.2787707099" y="-150" angle="180" identifier="QRieewPHLU"/>
	<guideline x="-90.7752875731" y="-100" angle="180" identifier="d7ERs5kMLN"/>
	<guideline x="-78.2718044363" y="-50" angle="180" identifier="MT3rJ0QfzR"/>
	<guideline x="-65.7683212995" y="0" angle="180" identifier="IPlQqjEMBD"/>
	<guideline x="-53.2648381627" y="50" angle="180" identifier="g1RkR4uyYa"/>
	<guideline x="-40.761355026" y="100" angle="180" identifier="VHS0gtZelW"/>
	<guideline x="-28.2578718892" y="150" angle="180" identifier="Sw8qm5lsvC"/>
	<guideline x="-15.7543887524" y="200" angle="180" identifier="6sDRxScWvf"/>
	<guideline x="-3.2509056156" y="250" angle="180" identifier="T0NZxuN4EY"/>
	<guideline x="9.2525775212" y="300" angle="180" identifier="iedYtDE2k4"/>
	<guideline x="21.756060658" y="350" angle="180" identifier="7Nrrj32bj8"/>
	<guideline x="34.2595437948" y="400" angle="180" identifier="U8esBSrJ7O"/>
	<guideline x="46.7630269316" y="450" angle="180" identifier="XCTupk1yPq"/>
	<guideline x="59.2665100684" y="500" angle="180" identifier="LKKYEMZO0u"/>
	<guideline x="71.7699932052" y="550" angle="180" identifier="CYGfyNjuvg"/>
	<guideline x="84.273476342" y="600" angle="180" identifier="Y7TTLPFN68"/>
	<guideline x="96.7769594788" y="650" angle="180" identifier="L9BImZHunx"/>
	<guideline x="109.2804426156" y="700" angle="180" identifier="26DhkbrWCp"/>
</glyph>
<glyph name="currency" format="2">
	<unicode hex="00A4"/>
	<advance width="600"/>
	<outline>
		<contour>
			<point x="264.5101707594" y="409" type="qcurve"/>
			<point x="246.7875898403" y="427.6567164179"/>
			<point x="216.0740249828" y="468.6119402985"/>
			<point x="203.0158831038" y="491" type="qcurve" smooth="yes"/>
			<point x="201.1505233847" y="495.4776119403"/>
			<point x="194.7477836893" y="499"/>
			<point x="191.0164404057" y="499" type="qcurve" smooth="yes"/>
			<point x="183.5537538385" y="499"/>
			<point x="164.7806140451" y="488.2089552239"/>
			<point x="155.2651168137" y="480" type="qcurve" smooth="yes"/>
			<point x="153.3993411977" y="478.5074626866"/>
			<point x="148.3804047906" y="474.4925373134"/>
			<point x="146.5146291745" y="473" type="qcurve"/>
			<point x="159.5727710536" y="450.6119402985"/>
			<point x="189.5922540732" y="408.9104477612"/>
			<point x="206.0089168302" y="391" type="qcurve" smooth="yes"/>
			<point x="212.9113300465" y="382.7910447761"/>
			<point x="241.7663660001" y="390.8059701493"/>
			<point x="255.7596831203" y="402" type="qcurve" smooth="yes"/>
			<point x="257.6254587363" y="403.4925373134"/>
			<point x="262.6443951434" y="407.5074626866"/>
		</contour>
		<contour>
			<point x="408.5101707594" y="409" type="qcurve"/>
			<point x="409.6294697703" y="407.5074626866"/>
			<point x="412.6403841094" y="403.4925373134"/>
			<point x="413.7596831203" y="402" type="qcurve" smooth="yes"/>
			<point x="422.1544257016" y="390.8059701493"/>
			<point x="444.3741205879" y="384.2835820896"/>
			<point x="455.0089168302" y="391" type="qcurve"/>
			<point x="480.3832988493" y="408.9104477612"/>
			<point x="532.3935626017" y="449.1194029851"/>
			<point x="558.5146291745" y="473" type="qcurve"/>
			<point x="557.3953301637" y="474.4925373134"/>
			<point x="554.3844158245" y="478.5074626866"/>
			<point x="553.2651168137" y="480" type="qcurve" smooth="yes"/>
			<point x="547.8552409108" y="488.2089552239"/>
			<point x="534.4791269728" y="499"/>
			<point x="527.0164404057" y="499" type="qcurve" smooth="yes"/>
			<point x="523.2850971221" y="499"/>
			<point x="516.1841231499" y="495.7313432836"/>
			<point x="512.2659527665" y="492" type="qcurve" smooth="yes"/>
			<point x="486.8911548504" y="468.1194029851"/>
			<point x="434.444202284" y="426.1641791045"/>
		</contour>
		<contour>
			<point x="352.2447752948" y="188" type="qcurve"/>
			<point x="369.9673562139" y="169.3432835821"/>
			<point x="400.6809210714" y="128.3880597015"/>
			<point x="413.7390629505" y="106" type="qcurve" smooth="yes"/>
			<point x="416.3506913263" y="101.5223880597"/>
			<point x="422.007162365" y="98"/>
			<point x="425.7385056486" y="98" type="qcurve" smooth="yes"/>
			<point x="433.2011922157" y="98"/>
			<point x="451.9743320091" y="108.7910447761"/>
			<point x="461.4898292406" y="117" type="qcurve" smooth="yes"/>
			<point x="463.3556048566" y="118.4925373134"/>
			<point x="468.3745412637" y="122.5074626866"/>
			<point x="470.2403168797" y="124" type="qcurve"/>
			<point x="457.1821750007" y="146.3880597015"/>
			<point x="427.162691981" y="188.0895522388"/>
			<point x="410.7460292241" y="206" type="qcurve" smooth="yes"/>
			<point x="403.8436160077" y="214.2089552239"/>
			<point x="374.9885800541" y="206.1940298507"/>
			<point x="360.995262934" y="195" type="qcurve" smooth="yes"/>
			<point x="359.1294873179" y="193.5074626866"/>
			<point x="354.1105509108" y="189.4925373134"/>
		</contour>
		<contour>
			<point x="204.9947056321" y="187" type="qcurve"/>
			<point x="203.8754066212" y="188.4925373134"/>
			<point x="200.8644922821" y="192.5074626866"/>
			<point x="199.7451932712" y="194" type="qcurve" smooth="yes"/>
			<point x="191.3504506899" y="205.1940298507"/>
			<point x="169.1307558036" y="211.7164179104"/>
			<point x="158.4959595613" y="205" type="qcurve"/>
			<point x="133.1215775422" y="187.0895522388"/>
			<point x="81.1113137898" y="146.8805970149"/>
			<point x="54.990247217" y="123" type="qcurve"/>
			<point x="56.1095462278" y="121.5074626866"/>
			<point x="59.120460567" y="117.4925373134"/>
			<point x="60.2397595778" y="116" type="qcurve" smooth="yes"/>
			<point x="65.6496354807" y="107.7910447761"/>
			<point x="79.0257494187" y="97"/>
			<point x="86.4884359858" y="97" type="qcurve" smooth="yes"/>
			<point x="90.2197792694" y="97"/>
			<point x="97.3207532416" y="100.2686567164"/>
			<point x="101.238923625" y="104" type="qcurve" smooth="yes"/>
			<point x="126.6137215411" y="127.8805970149"/>
			<point x="179.0606741075" y="169.8358208955"/>
		</contour>
		<contour>
			<point x="292.9935910283" y="171" type="qcurve"/>
			<point x="234.7846358044" y="171"/>
			<point x="185.4422030235" y="236.776119403"/>
			<point x="199.2520202193" y="292" type="qcurve" smooth="yes"/>
			<point x="200.7524381958" y="298" type="line" smooth="yes"/>
			<point x="215.1221128455" y="355.4626865672"/>
			<point x="290.5408574585" y="421"/>
			<point x="346.5110067123" y="421" type="qcurve" smooth="yes"/>
			<point x="371.1378723839" y="421"/>
			<point x="406.416969317" y="410.1791044776"/>
			<point x="425.2592651439" y="396" type="qcurve"/>
			<point x="441.6790471278" y="422.8656716418"/>
			<point x="392.0702510101" y="468"/>
			<point x="353.2642808609" y="468" type="qcurve" smooth="yes"/>
			<point x="281.6224898161" y="468"/>
			<point x="167.5412543482" y="373.1343283582"/>
			<point x="149.2525775212" y="300" type="qcurve" smooth="yes"/>
			<point x="147.7521595448" y="294" type="line" smooth="yes"/>
			<point x="129.8367210204" y="222.3582089552"/>
			<point x="195.8305657459" y="134"/>
			<point x="263.7410135071" y="134" type="qcurve" smooth="yes"/>
			<point x="271.2037000742" y="134"/>
			<point x="289.8210654563" y="158.3134328358"/>
		</contour>
		<contour>
			<point x="324.0117033396" y="431" type="qcurve"/>
			<point x="382.2206585635" y="431"/>
			<point x="431.5630913445" y="365.223880597"/>
			<point x="417.7532741486" y="310" type="qcurve" smooth="yes"/>
			<point x="416.2528561722" y="304" type="line" smooth="yes"/>
			<point x="401.8831815224" y="246.5373134328"/>
			<point x="326.4644369094" y="181"/>
			<point x="270.4942876557" y="181" type="qcurve" smooth="yes"/>
			<point x="245.867421984" y="181"/>
			<point x="210.5883250509" y="191.8208955224"/>
			<point x="191.7460292241" y="206" type="qcurve"/>
			<point x="175.3262472401" y="179.1343283582"/>
			<point x="224.9350433578" y="134"/>
			<point x="263.7410135071" y="134" type="qcurve" smooth="yes"/>
			<point x="335.3828045518" y="134"/>
			<point x="449.4640400197" y="228.8656716418"/>
			<point x="467.7527168467" y="302" type="qcurve" smooth="yes"/>
			<point x="469.2531348231" y="308" type="line" smooth="yes"/>
			<point x="487.1685733475" y="379.6417910448"/>
			<point x="421.1747286221" y="468"/>
			<point x="353.2642808609" y="468" type="qcurve" smooth="yes"/>
			<point x="345.8015942937" y="468"/>
			<point x="327.1842289117" y="443.6865671642"/>
		</contour>
	</outline>
	<guideline x="-65.7683212995" y="0" angle="179.1517819709" identifier="6q9P3VE33S"/>
	<guideline x="-15.7683212995" y="0" angle="179.1517819709" identifier="vKlj7VR5jP"/>
	<guideline x="34.2316787005" y="0" angle="179.1517819709" identifier="Dalh40Dr17"/>
	<guideline x="84.2316787005" y="0" angle="179.1517819709" identifier="WcyQVoBhyL"/>
	<guideline x="134.2316787005" y="0" angle="179.1517819709" identifier="oBwJTITYCP"/>
	<guideline x="184.2316787005" y="0" angle="179.1517819709" identifier="AlPn4y2H1d"/>
	<guideline x="234.2316787005" y="0" angle="179.1517819709" identifier="cFsOc5uvV1"/>
	<guideline x="284.2316787005" y="0" angle="179.1517819709" identifier="r6litPu8Ga"/>
	<guideline x="334.2316787005" y="0" angle="179.1517819709" identifier="aWbyNpOSdG"/>
	<guideline x="384.2316787005" y="0" angle="179.1517819709" identifier="86yyRlFMYp"/>
	<guideline x="434.2316787005" y="0" angle="179.1517819709" identifier="AspvxEeFOY"/>
	<guideline x="484.2316787005" y="0" angle="179.1517819709" identifier="pyXT1QX7vI"/>
	<guideline x="534.2316787005" y="0" angle="179.1517819709" identifier="8sWVAQmnKo"/>
	<guideline x="-128.2857369835" y="-250" angle="180" identifier="hufd9lDBob"/>
	<guideline x="-115.7822538467" y="-200" angle="180" identifier="D4xIGBI08B"/>
	<guideline x="-103.2787707099" y="-150" angle="180" identifier="qriZ1vuVXZ"/>
	<guideline x="-90.7752875731" y="-100" angle="180" identifier="VBzvFEVbvR"/>
	<guideline x="-78.2718044363" y="-50" angle="180" identifier="eNUtxgwHdy"/>
	<guideline x="-65.7683212995" y="0" angle="180" identifier="IiHvVvCdh6"/>
	<guideline x="-53.2648381627" y="50" angle="180" identifier="C2ypzG4WDi"/>
	<guideline x="-40.761355026" y="100" angle="180" identifier="SnXddo78YV"/>
	<guideline x="-28.2578718892" y="150" angle="180" identifier="frRymxxjT0"/>
	<guideline x="-15.7543887524" y="200" angle="180" identifier="7BNSP5dwFz"/>
	<guideline x="-3.2509056156" y="250" angle="180" identifier="JOpA9Zr7IQ"/>
	<guideline x="9.2525775212" y="300" angle="180" identifier="HdZW5aDzQ1"/>
	<guideline x="21.756060658" y="350" angle="180" identifier="TgVRuxgFhO"/>
	<guideline x="34.2595437948" y="400" angle="180" identifier="GyoEGKLpme"/>
	<guideline x="46.7630269316" y="450" angle="180" identifier="Rr3pQJrdSn"/>
	<guideline x="59.2665100684" y="500" angle="180" identifier="vIAVGP2Bci"/>
	<guideline x="71.7699932052" y="550" angle="180" identifier="Y7DfeFPhgr"/>
	<guideline x="84.273476342" y="600" angle="180" identifier="v6tSlmPcxx"/>
	<guideline x="96.7769594788" y="650" angle="180" identifier="MGwYBLemjO"/>
	<guideline x="109.2804426156" y="700" angle="180" identifier="RNWILGy4vc"/>
</glyph>
<glyph name="ordfeminine" format="2">
	<unicode hex="00AA"/>
	<advance width="600"/>
	<outline>
		<contour>
			<point x="408.034552717" y="759" type="qcurve" smooth="yes"/>
			<point x="369.760238016" y="759"/>
			<point x="283.5153258257" y="742.5855332682"/>
			<point x="267.7825324977" y="730" type="qcurve" smooth="yes"/>
			<point x="260.3194300336" y="724.0298507463"/>
			<point x="251.5795905595" y="709.1940298507"/>
			<point x="248.7803032901" y="698" type="qcurve" smooth="yes"/>
			<point x="247.6605883823" y="693.5223880597"/>
			<point x="247.2197471294" y="685.7313432836"/>
			<point x="247.7791886863" y="682" type="qcurve"/>
			<point x="251.7791886863" y="682" type="line"/>
			<point x="278.3264638221" y="692.6186141656"/>
			<point x="351.3495610157" y="709"/>
			<point x="387.5310695802" y="709" type="qcurve" smooth="yes"/>
			<point x="473.6454415406" y="709"/>
			<point x="519.2620178808" y="630.7912354632"/>
			<point x="506.0200628679" y="551" type="qcurve"/>
			<point x="517.9603613754" y="551"/>
			<point x="534.0358283529" y="563.0597014925"/>
			<point x="537.0217347736" y="575" type="qcurve" smooth="yes"/>
			<point x="558.6695563239" y="661.5671641791"/>
			<point x="493.0900444889" y="759"/>
		</contour>
		<contour>
			<point x="472.0312089057" y="711" type="qcurve"/>
			<point x="491.0080791566" y="680.6336229507"/>
			<point x="499.3272885075" y="624.2085029398"/>
			<point x="487.0217347736" y="575" type="qcurve" smooth="yes"/>
			<point x="474.5182516368" y="525"/>
			<point x="453.4004284762" y="440.552238806"/>
			<point x="443.5096134576" y="401" type="qcurve" smooth="yes"/>
			<point x="431.3793686234" y="352.4925373134"/>
			<point x="463.0751990159" y="324.776119403"/>
			<point x="489.7546674033" y="330" type="qcurve"/>
			<point x="485.2783031538" y="347.9104477612"/>
			<point x="487.9110389187" y="378.6119402985"/>
			<point x="493.5096134576" y="401" type="qcurve" smooth="yes"/>
			<point x="505.4532391405" y="448.7611940299"/>
			<point x="520.9724877622" y="510.8208955224"/>
			<point x="537.0217347736" y="575" type="qcurve" smooth="yes"/>
			<point x="552.403676941" y="636.5106286748"/>
			<point x="509.9280013979" y="716.2270935667"/>
		</contour>
		<contour>
			<point x="561.0061303208" y="351" type="line"/>
			<point x="557.0061303208" y="351" type="line"/>
			<point x="546.1849228757" y="346.5223880597"/>
			<point x="522.1920008576" y="341"/>
			<point x="509.5054336934" y="341" type="qcurve" smooth="yes"/>
			<point x="493.0875232456" y="341"/>
			<point x="475.578091579" y="366.2985074627"/>
			<point x="489.761355026" y="426" type="qcurve"/>
			<point x="467.7465336271" y="427.4925373134"/>
			<point x="447.0553773322" y="415.1791044776"/>
			<point x="443.5096134576" y="401" type="qcurve" smooth="yes"/>
			<point x="429.5131771104" y="345.0298507463"/>
			<point x="456.4646371238" y="291"/>
			<point x="499.0019505566" y="291" type="qcurve" smooth="yes"/>
			<point x="502.0019505566" y="291" type="line" smooth="yes"/>
			<point x="528.1213535417" y="291"/>
			<point x="553.4704489914" y="320.8656716418"/>
			<point x="559.2556426816" y="344" type="qcurve"/>
		</contour>
		<contour>
			<point x="199.2606583986" y="416" type="qcurve" smooth="yes"/>
			<point x="201.2612157005" y="424" type="line" smooth="yes"/>
			<point x="210.6588229621" y="461.5799573561"/>
			<point x="256.7461217398" y="503.8677709872"/>
			<point x="276.7677639977" y="518" type="qcurve"/>
			<point x="236.7023217556" y="529.2862615419"/>
			<point x="159.2481106597" y="455.9386800935"/>
			<point x="151.5112853632" y="425" type="qcurve" smooth="yes"/>
			<point x="148.5104494104" y="413" type="line" smooth="yes"/>
			<point x="134.3273939119" y="356.2835820896"/>
			<point x="185.9777472488" y="291"/>
			<point x="246.0019505566" y="291" type="qcurve" smooth="yes"/>
			<point x="307.6169524701" y="291"/>
			<point x="412.8122750067" y="362.6597800741"/>
			<point x="449.2598224458" y="404" type="qcurve" smooth="yes"/>
			<point x="459.7084154337" y="415.9402985075"/>
			<point x="473.4231014253" y="444.6417910448"/>
			<point x="480.5146291745" y="473" type="qcurve"/>
			<point x="413.5274690741" y="404.3927097656"/>
			<point x="304.576254672" y="342"/>
			<point x="260.7555033561" y="342" type="qcurve" smooth="yes"/>
			<point x="257.7555033561" y="342" type="line" smooth="yes"/>
			<point x="221.0267758596" y="342"/>
			<point x="190.3029391364" y="380.1791044776"/>
		</contour>
		<contour>
			<point x="493.7691572524" y="538" type="qcurve" smooth="yes"/>
			<point x="487.0533631873" y="546.9552238806"/>
			<point x="416.7223913581" y="563"/>
			<point x="357.0208988208" y="563" type="qcurve" smooth="yes"/>
			<point x="277.1701525521" y="563"/>
			<point x="167.3739132233" y="488.4328358209"/>
			<point x="151.5112853632" y="425" type="qcurve" smooth="yes"/>
			<point x="149.2718555477" y="416.0447761194"/>
			<point x="158.3423299744" y="410"/>
			<point x="174.7602404222" y="410" type="qcurve"/>
			<point x="200.3235290257" y="461.4925373134"/>
			<point x="278.1144306093" y="513"/>
			<point x="347.517415684" y="513" type="qcurve" smooth="yes"/>
			<point x="385.5771171765" y="513"/>
			<point x="457.4422980599" y="505.9552238806"/>
			<point x="492.5163010802" y="497" type="qcurve"/>
			<point x="497.1815719141" y="512.671641791"/>
			<point x="498.8060028012" y="531.2835820896"/>
		</contour>
	</outline>
	<guideline x="-65.7683212995" y="0" angle="179.1517819709" identifier="rFnxTmFCEy"/>
	<guideline x="-15.7683212995" y="0" angle="179.1517819709" identifier="c2k1el5XB0"/>
	<guideline x="34.2316787005" y="0" angle="179.1517819709" identifier="xb6X5gvzuv"/>
	<guideline x="84.2316787005" y="0" angle="179.1517819709" identifier="NmsCt1unXb"/>
	<guideline x="134.2316787005" y="0" angle="179.1517819709" identifier="VDYLFE3rdH"/>
	<guideline x="184.2316787005" y="0" angle="179.1517819709" identifier="wn76nXNx6u"/>
	<guideline x="234.2316787005" y="0" angle="179.1517819709" identifier="WKlgYmc4RI"/>
	<guideline x="284.2316787005" y="0" angle="179.1517819709" identifier="fKwjn3Jhg7"/>
	<guideline x="334.2316787005" y="0" angle="179.1517819709" identifier="u5velFshr6"/>
	<guideline x="384.2316787005" y="0" angle="179.1517819709" identifier="jodgWYHAq0"/>
	<guideline x="434.2316787005" y="0" angle="179.1517819709" identifier="KWkfEfG9rq"/>
	<guideline x="484.2316787005" y="0" angle="179.1517819709" identifier="TBU9FOrypx"/>
	<guideline x="534.2316787005" y="0" angle="179.1517819709" identifier="m4SX9SzVd4"/>
	<guideline x="-128.2857369835" y="-250" angle="180" identifier="U0uz9isgwk"/>
	<guideline x="-115.7822538467" y="-200" angle="180" identifier="Q0hQU0V75S"/>
	<guideline x="-103.2787707099" y="-150" angle="180" identifier="0sEKiyhqbR"/>
	<guideline x="-90.7752875731" y="-100" angle="180" identifier="ewSb5OLgAM"/>
	<guideline x="-78.2718044363" y="-50" angle="180" identifier="o3N47I9719"/>
	<guideline x="-65.7683212995" y="0" angle="180" identifier="st0pTQ5f1K"/>
	<guideline x="-53.2648381627" y="50" angle="180" identifier="eipmrVqu7B"/>
	<guideline x="-40.761355026" y="100" angle="180" identifier="4M9k8ZEwpM"/>
	<guideline x="-28.2578718892" y="150" angle="180" identifier="YSEIRK0Gxo"/>
	<guideline x="-15.7543887524" y="200" angle="180" identifier="hO2Vh7mkhj"/>
	<guideline x="-3.2509056156" y="250" angle="180" identifier="QmlD84utYA"/>
	<guideline x="9.2525775212" y="300" angle="180" identifier="VHAtyAuiGV"/>
	<guideline x="21.756060658" y="350" angle="180" identifier="gwVERyx95y"/>
	<guideline x="34.2595437948" y="400" angle="180" identifier="EvKuym3ENJ"/>
	<guideline x="46.7630269316" y="450" angle="180" identifier="i7fzUgISCF"/>
	<guideline x="59.2665100684" y="500" angle="180" identifier="6eMUUjgS7n"/>
	<guideline x="71.7699932052" y="550" angle="180" identifier="TmR4KwZE1Y"/>
	<guideline x="84.273476342" y="600" angle="180" identifier="MdrlkfV2s2"/>
	<guideline x="96.7769594788" y="650" angle="180" identifier="WOk5ENRgUp"/>
	<guideline x="109.2804426156" y="700" angle="180" identifier="n69OURFyL7"/>
</glyph>
<glyph name="guillemotleft" format="2">
	<unicode hex="00AB"/>
	<advance width="601"/>
	<outline>
		<contour>
			<point x="367.0161617547" y="495" type="line"/>
			<point x="358.2477649739" y="498.7313432836"/>
			<point x="337.4532165581" y="502"/>
			<point x="324.7666493939" y="502" type="qcurve" smooth="yes"/>
			<point x="315.0651568566" y="502"/>
			<point x="294.6244195778" y="495.7014925373"/>
			<point x="278.7655347901" y="486" type="qcurve" smooth="yes"/>
			<point x="228.0169787003" y="453.1641791045"/>
			<point x="142.5604569293" y="380.9701492537"/>
			<point x="90.5043190896" y="325" type="qcurve"/>
			<point x="85.5029258349" y="305" type="line"/>
			<point x="81.770542809" y="290.0746268657"/>
			<point x="111.8375094371" y="287.2388059701"/>
			<point x="116.5015325802" y="285" type="qcurve"/>
			<point x="178.4468218508" y="356.6417910448"/>
			<point x="277.5794081847" y="438.7611940299"/>
			<point x="366.0158831038" y="491" type="qcurve"/>
		</contour>
		<contour>
			<point x="270.4892719387" y="109" type="line"/>
			<point x="210.2316650198" y="160.4925373134"/>
			<point x="147.954080164" y="246.5820895522"/>
			<point x="126.5034831368" y="313" type="qcurve"/>
			<point x="113.8169159726" y="313"/>
			<point x="88.5560151501" y="317.2089552239"/>
			<point x="86.5032044859" y="309" type="qcurve"/>
			<point x="84.502647184" y="301" type="line"/>
			<point x="79.8371684016" y="282.3432835821"/>
			<point x="85.4921630062" y="257.6268656716"/>
			<point x="96.4979101179" y="233" type="qcurve" smooth="yes"/>
			<point x="120.7482103115" y="183.7462686567"/>
			<point x="155.8980896758" y="139.1641791045"/>
			<point x="174.7401775542" y="122" type="qcurve" smooth="yes"/>
			<point x="189.8511300975" y="107.8208955224"/>
			<point x="213.0519384844" y="98"/>
			<point x="225.7385056486" y="98" type="qcurve" smooth="yes"/>
			<point x="239.9176101262" y="98"/>
			<point x="260.3469423074" y="101.2686567164"/>
			<point x="269.4889932877" y="105" type="qcurve"/>
		</contour>
		<contour>
			<point x="607.0161617547" y="495" type="line"/>
			<point x="598.2477649739" y="498.7313432836"/>
			<point x="577.4532165581" y="502"/>
			<point x="564.7666493939" y="502" type="qcurve" smooth="yes"/>
			<point x="555.0651568566" y="502"/>
			<point x="534.6244195778" y="495.7014925373"/>
			<point x="518.7655347901" y="486" type="qcurve" smooth="yes"/>
			<point x="468.0169787003" y="453.1641791045"/>
			<point x="382.5604569293" y="380.9701492537"/>
			<point x="330.5043190896" y="325" type="qcurve"/>
			<point x="325.5029258349" y="305" type="line"/>
			<point x="321.770542809" y="290.0746268657"/>
			<point x="351.8375094371" y="287.2388059701"/>
			<point x="356.5015325802" y="285" type="qcurve"/>
			<point x="418.4468218508" y="356.6417910448"/>
			<point x="517.5794081847" y="438.7611940299"/>
			<point x="606.0158831038" y="491" type="qcurve"/>
		</contour>
		<contour>
			<point x="510.4892719387" y="109" type="line"/>
			<point x="450.2316650198" y="160.4925373134"/>
			<point x="387.954080164" y="246.5820895522"/>
			<point x="366.5034831368" y="313" type="qcurve"/>
			<point x="353.8169159726" y="313"/>
			<point x="328.5560151501" y="317.2089552239"/>
			<point x="326.5032044859" y="309" type="qcurve"/>
			<point x="324.502647184" y="301" type="line"/>
			<point x="319.8371684016" y="282.3432835821"/>
			<point x="325.4921630062" y="257.6268656716"/>
			<point x="336.4979101179" y="233" type="qcurve" smooth="yes"/>
			<point x="360.7482103115" y="183.7462686567"/>
			<point x="395.8980896758" y="139.1641791045"/>
			<point x="414.7401775542" y="122" type="qcurve" smooth="yes"/>
			<point x="429.8511300975" y="107.8208955224"/>
			<point x="453.0519384844" y="98"/>
			<point x="465.7385056486" y="98" type="qcurve" smooth="yes"/>
			<point x="479.9176101262" y="98"/>
			<point x="500.3469423074" y="101.2686567164"/>
			<point x="509.4889932877" y="105" type="qcurve"/>
		</contour>
	</outline>
	<guideline x="-65.7683212995" y="0" angle="179.1517819709" identifier="QpGF0CwDaF"/>
	<guideline x="-15.7683212995" y="0" angle="179.1517819709" identifier="T1FeEPqy6a"/>
	<guideline x="34.2316787005" y="0" angle="179.1517819709" identifier="1HRf8vLQA9"/>
	<guideline x="84.2316787005" y="0" angle="179.1517819709" identifier="wX5BG7b2hm"/>
	<guideline x="134.2316787005" y="0" angle="179.1517819709" identifier="T4SAqtltAR"/>
	<guideline x="184.2316787005" y="0" angle="179.1517819709" identifier="zwRnhYRLOk"/>
	<guideline x="234.2316787005" y="0" angle="179.1517819709" identifier="NGE2T9kZ7P"/>
	<guideline x="284.2316787005" y="0" angle="179.1517819709" identifier="8NDLyLyAqW"/>
	<guideline x="334.2316787005" y="0" angle="179.1517819709" identifier="G1YqWWe4Nb"/>
	<guideline x="384.2316787005" y="0" angle="179.1517819709" identifier="WjkxR5F4mr"/>
	<guideline x="434.2316787005" y="0" angle="179.1517819709" identifier="L8055g9Njc"/>
	<guideline x="484.2316787005" y="0" angle="179.1517819709" identifier="yGg0W4EfIz"/>
	<guideline x="534.2316787005" y="0" angle="179.1517819709" identifier="DcDoRP5ICR"/>
	<guideline x="-128.2857369835" y="-250" angle="180" identifier="Jsf24LBu1o"/>
	<guideline x="-115.7822538467" y="-200" angle="180" identifier="J8yCNpQOva"/>
	<guideline x="-103.2787707099" y="-150" angle="180" identifier="XVBwSGLNKN"/>
	<guideline x="-90.7752875731" y="-100" angle="180" identifier="bl06dv1nJB"/>
	<guideline x="-78.2718044363" y="-50" angle="180" identifier="2nEASntFH6"/>
	<guideline x="-65.7683212995" y="0" angle="180" identifier="QpFpBvE97B"/>
	<guideline x="-53.2648381627" y="50" angle="180" identifier="LFz1n5M845"/>
	<guideline x="-40.761355026" y="100" angle="180" identifier="j37FrTnTUo"/>
	<guideline x="-28.2578718892" y="150" angle="180" identifier="mpyC3CEV0w"/>
	<guideline x="-15.7543887524" y="200" angle="180" identifier="DCe2PWmhct"/>
	<guideline x="544.4990247217" y="249" angle="180" identifier="0j0AmQxyVa"/>
	<guideline x="9.2525775212" y="300" angle="180" identifier="LnT5gH0vie"/>
	<guideline x="21.756060658" y="350" angle="180" identifier="mZIyrPXOSr"/>
	<guideline x="34.2595437948" y="400" angle="180" identifier="VRC42l47ue"/>
	<guideline x="46.7630269316" y="450" angle="180" identifier="u1IxCm1wYh"/>
	<guideline x="59.2665100684" y="500" angle="180" identifier="4ksTJdpivY"/>
	<guideline x="71.7699932052" y="550" angle="180" identifier="NzxVuailgj"/>
	<guideline x="84.273476342" y="600" angle="180" identifier="nPQS3bfLqf"/>
	<guideline x="96.7769594788" y="650" angle="180" identifier="oj0JzMmdjr"/>
	<guideline x="109.2804426156" y="700" angle="180" identifier="SazgvGZMnv"/>
</glyph>
<glyph name="guillemotright" format="2">
	<unicode hex="00BB"/>
	<advance width="601"/>
	<outline>
		<contour>
			<point x="252.4889932877" y="104" type="line"/>
			<point x="261.2573900686" y="101.2686567164"/>
			<point x="282.0519384844" y="97"/>
			<point x="294.7385056486" y="97" type="qcurve" smooth="yes"/>
			<point x="304.4399981859" y="97"/>
			<point x="324.8807354646" y="104.2985074627"/>
			<point x="340.7396202524" y="113" type="qcurve" smooth="yes"/>
			<point x="391.4881763422" y="146.8358208955"/>
			<point x="476.9446981131" y="219.0298507463"/>
			<point x="529.0008359528" y="274" type="qcurve"/>
			<point x="534.0022292075" y="294" type="line"/>
			<point x="537.7346122335" y="309.9253731343"/>
			<point x="507.6676456054" y="312.7611940299"/>
			<point x="503.0036224623" y="314" type="qcurve"/>
			<point x="441.0583331916" y="243.3582089552"/>
			<point x="341.9257468577" y="161.2388059701"/>
			<point x="253.4892719387" y="108" type="qcurve"/>
		</contour>
		<contour>
			<point x="349.0158831038" y="491" type="line"/>
			<point x="409.2734900226" y="439.5074626866"/>
			<point x="471.5510748784" y="353.4179104478"/>
			<point x="493.0016719057" y="286" type="qcurve"/>
			<point x="505.6882390698" y="286"/>
			<point x="530.9491398924" y="282.7910447761"/>
			<point x="533.0019505566" y="290" type="qcurve"/>
			<point x="535.0025078585" y="298" type="line"/>
			<point x="539.6679866409" y="317.6567164179"/>
			<point x="534.0129920363" y="342.3731343284"/>
			<point x="523.0072449245" y="366" type="qcurve" smooth="yes"/>
			<point x="498.7569447309" y="416.2537313433"/>
			<point x="463.6070653666" y="460.8358208955"/>
			<point x="444.7649774882" y="478" type="qcurve" smooth="yes"/>
			<point x="429.6540249449" y="492.1791044776"/>
			<point x="406.4532165581" y="502"/>
			<point x="393.7666493939" y="502" type="qcurve" smooth="yes"/>
			<point x="379.5875449163" y="502"/>
			<point x="359.1582127351" y="498.7313432836"/>
			<point x="350.0161617547" y="495" type="qcurve"/>
		</contour>
		<contour>
			<point x="12.4889932877" y="104" type="line"/>
			<point x="21.2573900686" y="101.2686567164"/>
			<point x="42.0519384844" y="97"/>
			<point x="54.7385056486" y="97" type="qcurve" smooth="yes"/>
			<point x="64.4399981859" y="97"/>
			<point x="84.8807354646" y="104.2985074627"/>
			<point x="100.7396202524" y="113" type="qcurve" smooth="yes"/>
			<point x="151.4881763422" y="146.8358208955"/>
			<point x="236.9446981131" y="219.0298507463"/>
			<point x="289.0008359528" y="275" type="qcurve"/>
			<point x="294.0022292075" y="295" type="line"/>
			<point x="297.7346122335" y="309.9253731343"/>
			<point x="267.6676456054" y="312.7611940299"/>
			<point x="263.0036224623" y="315" type="qcurve"/>
			<point x="201.0583331916" y="243.3582089552"/>
			<point x="101.9257468577" y="161.2388059701"/>
			<point x="13.4892719387" y="108" type="qcurve"/>
		</contour>
		<contour>
			<point x="109.0158831038" y="491" type="line"/>
			<point x="169.2734900226" y="439.5074626866"/>
			<point x="231.5510748784" y="353.4179104478"/>
			<point x="253.0016719057" y="287" type="qcurve"/>
			<point x="265.6882390698" y="287"/>
			<point x="290.9491398924" y="282.7910447761"/>
			<point x="293.0019505566" y="291" type="qcurve"/>
			<point x="295.0025078585" y="299" type="line"/>
			<point x="299.6679866409" y="317.6567164179"/>
			<point x="294.0129920363" y="342.3731343284"/>
			<point x="283.0072449245" y="367" type="qcurve" smooth="yes"/>
			<point x="258.7569447309" y="416.2537313433"/>
			<point x="223.6070653666" y="460.8358208955"/>
			<point x="204.7649774882" y="478" type="qcurve" smooth="yes"/>
			<point x="189.6540249449" y="492.1791044776"/>
			<point x="166.4532165581" y="502"/>
			<point x="153.7666493939" y="502" type="qcurve" smooth="yes"/>
			<point x="139.5875449163" y="502"/>
			<point x="119.1582127351" y="498.7313432836"/>
			<point x="110.0161617547" y="495" type="qcurve"/>
		</contour>
	</outline>
	<guideline x="-65.7683212995" y="0" angle="179.1517819709" identifier="svttTDaGe1"/>
	<guideline x="-15.7683212995" y="0" angle="179.1517819709" identifier="EQ6xb5gAD4"/>
	<guideline x="34.2316787005" y="0" angle="179.1517819709" identifier="A1QUeut1gt"/>
	<guideline x="84.2316787005" y="0" angle="179.1517819709" identifier="DkuUZetYun"/>
	<guideline x="134.2316787005" y="0" angle="179.1517819709" identifier="ShKXLYh9ZM"/>
	<guideline x="184.2316787005" y="0" angle="179.1517819709" identifier="20a0myU2lI"/>
	<guideline x="234.2316787005" y="0" angle="179.1517819709" identifier="KH3UcS3Av1"/>
	<guideline x="284.2316787005" y="0" angle="179.1517819709" identifier="EAeOFSgmIM"/>
	<guideline x="334.2316787005" y="0" angle="179.1517819709" identifier="IePqgIln4o"/>
	<guideline x="384.2316787005" y="0" angle="179.1517819709" identifier="pEM2ETMwjv"/>
	<guideline x="434.2316787005" y="0" angle="179.1517819709" identifier="HuO4ZThhw6"/>
	<guideline x="484.2316787005" y="0" angle="179.1517819709" identifier="bP58jyCDPC"/>
	<guideline x="534.2316787005" y="0" angle="179.1517819709" identifier="34hKA2QuSO"/>
	<guideline x="584.2316787005" y="0" angle="179.1517819709" identifier="ayDDAKXV1T"/>
	<guideline x="-128.2857369835" y="-250" angle="180" identifier="4vq3k4Tx36"/>
	<guideline x="-115.7822538467" y="-200" angle="180" identifier="aNwCaI2wyH"/>
	<guideline x="-103.2787707099" y="-150" angle="180" identifier="Ew6hPTB1sI"/>
	<guideline x="-90.7752875731" y="-100" angle="180" identifier="LGG7IhpxVX"/>
	<guideline x="-78.2718044363" y="-50" angle="180" identifier="HyoSo12dJe"/>
	<guideline x="-65.7683212995" y="0" angle="180" identifier="PPhTrAXxpT"/>
	<guideline x="-53.2648381627" y="50" angle="180" identifier="9ed5UcGmoO"/>
	<guideline x="-40.761355026" y="100" angle="180" identifier="ZajaDG7Mx7"/>
	<guideline x="-28.2578718892" y="150" angle="180" identifier="4AiZ8i6iyx"/>
	<guideline x="-15.7543887524" y="200" angle="180" identifier="xIiiK1PKxN"/>
	<guideline x="-3.2509056156" y="250" angle="180" identifier="iTroH1wN1j"/>
	<guideline x="9.2525775212" y="300" angle="180" identifier="mon9HdXSKf"/>
	<guideline x="21.756060658" y="350" angle="180" identifier="rGOo1ADsMn"/>
	<guideline x="34.2595437948" y="400" angle="180" identifier="BCBJ8r2G88"/>
	<guideline x="46.7630269316" y="450" angle="180" identifier="ufwpHF3YWt"/>
	<guideline x="59.2665100684" y="500" angle="180" identifier="XQ0CEmYDWu"/>
	<guideline x="71.7699932052" y="550" angle="180" identifier="3yZv5ZmeW8"/>
	<guideline x="84.273476342" y="600" angle="180" identifier="6qXRxuAmRS"/>
	<guideline x="96.7769594788" y="650" angle="180" identifier="AU4dQrKW15"/>
	<guideline x="109.2804426156" y="700" angle="180" identifier="0VE0Ntcuqe"/>
</glyph>
<glyph name="Egrave" format="2">
	<unicode hex="00C8"/>
	<advance width="600"/>
	<outline>
		<contour>
			<point x="159.2804426156" y="700" type="line"/>
			<point x="158.7205851617" y="697.7611940299"/>
			<point x="157.3396034421" y="692.2388059701"/>
			<point x="156.7797459882" y="690" type="qcurve" smooth="yes"/>
			<point x="153.7938395675" y="678.0597014925"/>
			<point x="154.5501117491" y="660.9701492537"/>
			<point x="159.0273077925" y="655" type="qcurve" smooth="yes"/>
			<point x="160.7062563087" y="652.7611940299"/>
			<point x="166.0456161952" y="650"/>
			<point x="169.7769594788" y="650" type="qcurve" smooth="yes"/>
			<point x="623.7769594788" y="650" type="line"/>
			<point x="626.2025925487" y="653.7313432836"/>
			<point x="629.9084288375" y="662.5223880597"/>
			<point x="631.0281437453" y="667" type="qcurve" smooth="yes"/>
			<point x="632.707716107" y="673.7164179104"/>
			<point x="632.5072903453" y="689.0298507463"/>
			<point x="628.0300943019" y="695" type="qcurve" smooth="yes"/>
			<point x="626.3511457856" y="697.2388059701"/>
			<point x="621.0117858992" y="700"/>
			<point x="617.2804426156" y="700" type="qcurve" smooth="yes"/>
		</contour>
		<contour>
			<point x="88.482862967" y="17" type="qcurve"/>
			<point x="234.7736156675" y="602" type="line" smooth="yes"/>
			<point x="243.9179540809" y="638.5671641791"/>
			<point x="230.6406413457" y="675"/>
			<point x="203.0287010472" y="675" type="qcurve"/>
			<point x="44.2344652099" y="40" type="line"/>
			<point x="40.8753204866" y="26.5671641791"/>
			<point x="64.602265952" y="17"/>
		</contour>
		<contour>
			<point x="46.7351618373" y="50" type="line"/>
			<point x="44.2344652099" y="40" type="line" smooth="yes"/>
			<point x="40.6887013353" y="25.8208955224"/>
			<point x="52.291380193" y="0"/>
			<point x="64.2316787005" y="0" type="qcurve" smooth="yes"/>
			<point x="464.2316787005" y="0" type="line"/>
			<point x="464.7915361543" y="2.2388059701"/>
			<point x="466.1725178739" y="7.7611940299"/>
			<point x="466.7323753278" y="10" type="qcurve" smooth="yes"/>
			<point x="471.7710924128" y="30.1492537313"/>
			<point x="464.929191688" y="50"/>
			<point x="453.7351618373" y="50" type="qcurve"/>
		</contour>
		<contour>
			<point x="141.756060658" y="350" type="line"/>
			<point x="135.0377712114" y="323.1343283582"/>
			<point x="138.8197417003" y="300"/>
			<point x="152.2525775212" y="300" type="qcurve" smooth="yes"/>
			<point x="459.2525775212" y="300" type="line"/>
			<point x="459.8124349751" y="302.2388059701"/>
			<point x="461.1934166947" y="307.7611940299"/>
			<point x="461.7532741486" y="310" type="qcurve" smooth="yes"/>
			<point x="464.7391805693" y="321.9402985075"/>
			<point x="463.9829083877" y="339.0298507463"/>
			<point x="459.5057123443" y="345" type="qcurve" smooth="yes"/>
			<point x="457.8267638281" y="347.2388059701"/>
			<point x="452.4874039416" y="350"/>
			<point x="448.756060658" y="350" type="qcurve" smooth="yes"/>
		</contour>
		<contour>
			<point x="440.753199835" y="791"/>
			<point x="457.3915579425" y="795.2835820896"/>
			<point x="465.7875482147" y="802" type="qcurve"/>
			<point x="425.6777393879" y="832.5970149254"/>
			<point x="378.1599553072" y="898.6865671642"/>
			<point x="376.2968830213" y="936" type="qcurve"/>
			<point x="365.8491218272" y="936"/>
			<point x="350.6847846819" y="933.7313432836"/>
			<point x="340.7964650448" y="930" type="qcurve" smooth="yes"/>
			<point x="330.1618767511" y="926.2686567164"/>
			<point x="322.2392212112" y="911.7164179104"/>
			<point x="323.5447234764" y="905" type="qcurve" smooth="yes"/>
			<point x="327.647225578" y="876.6417910448"/>
			<point x="368.3784001314" y="820.6567164179"/>
			<point x="398.7875482147" y="802" type="qcurve"/>
			<point x="407.7423561983" y="796.0298507463"/>
			<point x="426.5740953574" y="791"/>
			<point x="434.0367819246" y="791" type="qcurve" smooth="yes"/>
		</contour>
	</outline>
</glyph>
<glyph name="Ocircumflex" format="2">
	<unicode hex="00D4"/>
	<advance width="600"/>
	<outline>
		<contour>
			<point x="414.2818358703" y="720" type="qcurve" smooth="yes"/>
			<point x="298.6101940793" y="720"/>
			<point x="126.3006588175" y="508.1343283582"/>
			<point x="83.005015717" y="335" type="qcurve" smooth="yes"/>
			<point x="75.5029258349" y="305" type="line" smooth="yes"/>
			<point x="38.3657147271" y="156.4925373134"/>
			<point x="108.3347630577" y="-20"/>
			<point x="229.2302854457" y="-20" type="qcurve" smooth="yes"/>
			<point x="237.4392406696" y="-20"/>
			<point x="251.3732306045" y="-3.4328358209"/>
			<point x="254.7323753278" y="10" type="qcurve"/>
			<point x="147.829754163" y="15.223880597"/>
			<point x="93.8485853922" y="178.4179104478"/>
			<point x="127.2534134741" y="312" type="qcurve" smooth="yes"/>
			<point x="133.005015717" y="335" type="line" smooth="yes"/>
			<point x="171.0753225813" y="487.2388059701"/>
			<point x="313.0171587037" y="670"/>
			<point x="410.7783527335" y="670" type="qcurve" smooth="yes"/>
			<point x="438.390293032" y="670"/>
			<point x="493.2326138127" y="656.1791044776"/>
			<point x="521.7764021769" y="642" type="qcurve"/>
			<point x="547.8972608012" y="662.8955223881"/>
			<point x="473.4003060196" y="720"/>
		</contour>
		<contour>
			<point x="229.2302854457" y="-20" type="qcurve" smooth="yes"/>
			<point x="344.9019272368" y="-20"/>
			<point x="511.6927924977" y="169.7971410553"/>
			<point x="550.5043190896" y="325" type="qcurve" smooth="yes"/>
			<point x="558.0064089717" y="355" type="line" smooth="yes"/>
			<point x="599.6435072206" y="521.501997057"/>
			<point x="535.1773582584" y="720"/>
			<point x="414.2818358703" y="720" type="qcurve" smooth="yes"/>
			<point x="406.0728806464" y="720"/>
			<point x="392.1388907115" y="703.4328358209"/>
			<point x="388.7797459882" y="690" type="qcurve"/>
			<point x="495.6988091691" y="684.7753159509"/>
			<point x="544.1272427162" y="499.4430857759"/>
			<point x="506.2559213326" y="348" type="qcurve" smooth="yes"/>
			<point x="500.5043190896" y="325" type="line" smooth="yes"/>
			<point x="466.9312278385" y="190.7450452655"/>
			<point x="330.4949626124" y="30"/>
			<point x="232.7337685825" y="30" type="qcurve" smooth="yes"/>
			<point x="205.121828284" y="30"/>
			<point x="150.2795075033" y="43.8208955224"/>
			<point x="121.7357191391" y="58" type="qcurve"/>
			<point x="97.4806361308" y="38.5970149254"/>
			<point x="170.1118152965" y="-20"/>
		</contour>
		<contour>
			<point x="276.0353886698" y="771" type="line"/>
			<point x="311.1127188656" y="809.8059701493"/>
			<point x="417.494322643" y="877.8208955224"/>
			<point x="470.2938178609" y="892" type="qcurve"/>
			<point x="475.5191540972" y="912.8955223881"/>
			<point x="473.0206242928" y="934"/>
			<point x="467.7967436958" y="934" type="qcurve"/>
			<point x="460.7967436958" y="934" type="line"/>
			<point x="413.7807785803" y="919.0746268657"/>
			<point x="325.7322593885" y="865.3432835821"/>
			<point x="288.7897774222" y="834" type="qcurve" smooth="yes"/>
			<point x="268.0796264946" y="816.8358208955"/>
			<point x="249.3428373327" y="792.223880597"/>
			<point x="248.0365032736" y="787" type="qcurve" smooth="yes"/>
			<point x="246.1703117607" y="779.5373134328"/>
			<point x="255.1100155355" y="771"/>
			<point x="270.0353886698" y="771" type="qcurve"/>
		</contour>
		<contour>
			<point x="625.7861549599" y="782" type="qcurve"/>
			<point x="609.1847445879" y="826.0298507463"/>
			<point x="544.4804786019" y="893.3432835821"/>
			<point x="519.2952111156" y="912" type="qcurve" smooth="yes"/>
			<point x="497.0948103077" y="927.671641791"/>
			<point x="476.5131616062" y="934"/>
			<point x="469.7967436958" y="934" type="qcurve"/>
			<point x="465.7967436958" y="934" type="line"/>
			<point x="461.3191317555" y="934"/>
			<point x="450.1424620625" y="915.3880597015"/>
			<point x="444.5438875236" y="893" type="qcurve"/>
			<point x="483.7220562331" y="879.5671641791"/>
			<point x="543.8976962893" y="829.8358208955"/>
			<point x="565.537199901" y="797" type="qcurve"/>
			<point x="574.6780031905" y="782.8208955224"/>
			<point x="585.8303737774" y="774"/>
			<point x="594.785597658" y="774" type="qcurve" smooth="yes"/>
			<point x="603.7408215386" y="774"/>
			<point x="617.9500221417" y="777.5223880597"/>
		</contour>
	</outline>
</glyph>
<glyph name="atilde" format="2">
	<unicode hex="00E3"/>
	<advance width="600"/>
	<outline>
		<contour>
			<point x="352.2690179269" y="536" type="qcurve" smooth="yes"/>
			<point x="308.2391671806" y="536"/>
			<point x="208.8089782518" y="520.4328358209"/>
			<point x="192.0169977076" y="507" type="qcurve" smooth="yes"/>
			<point x="184.5538952435" y="501.0298507463"/>
			<point x="175.8140557694" y="486.1940298507"/>
			<point x="173.0147685" y="475" type="qcurve" smooth="yes"/>
			<point x="171.8950535922" y="470.5223880597"/>
			<point x="171.4542123393" y="462.7313432836"/>
			<point x="172.0136538962" y="459" type="qcurve"/>
			<point x="176.0136538962" y="459" type="line"/>
			<point x="205.8652319588" y="470.9402985075"/>
			<point x="289.974490014" y="486"/>
			<point x="331.7655347901" y="486" type="qcurve" smooth="yes"/>
			<point x="428.7804601632" y="486"/>
			<point x="483.506359356" y="407.8507462687"/>
			<point x="470.2545280778" y="328" type="qcurve"/>
			<point x="482.1948265853" y="328"/>
			<point x="498.2702935628" y="340.0597014925"/>
			<point x="501.2561999835" y="352" type="qcurve" smooth="yes"/>
			<point x="522.9040215338" y="438.5671641791"/>
			<point x="447.0451373299" y="536"/>
		</contour>
		<contour>
			<point x="435.2653954646" y="484" type="qcurve"/>
			<point x="453.9200323979" y="454.1492537313"/>
			<point x="463.1998256664" y="399.7611940299"/>
			<point x="451.2561999835" y="352" type="qcurve" smooth="yes"/>
			<point x="433.1541423078" y="279.6119402985"/>
			<point x="402.6504594322" y="157.6311988445"/>
			<point x="388.238644974" y="100" type="qcurve" smooth="yes"/>
			<point x="376.1084001398" y="51.4925373134"/>
			<point x="407.8042305324" y="23.776119403"/>
			<point x="434.4836989198" y="29" type="qcurve"/>
			<point x="430.0073346703" y="46.9104477612"/>
			<point x="432.6400704352" y="77.6119402985"/>
			<point x="438.238644974" y="100" type="qcurve" smooth="yes"/>
			<point x="455.4948964963" y="169.0057775638"/>
			<point x="478.1154252229" y="259.4626865672"/>
			<point x="501.2561999835" y="352" type="qcurve" smooth="yes"/>
			<point x="516.1857320871" y="411.7014925373"/>
			<point x="473.1388937028" y="489.223880597"/>
		</contour>
		<contour>
			<point x="505.7351618373" y="50" type="line"/>
			<point x="501.7351618373" y="50" type="line"/>
			<point x="490.9139543922" y="45.5223880597"/>
			<point x="466.9210323741" y="40"/>
			<point x="454.2344652099" y="40" type="qcurve" smooth="yes"/>
			<point x="437.8165547621" y="40"/>
			<point x="420.3071230955" y="65.2985074627"/>
			<point x="434.4903865424" y="125" type="qcurve"/>
			<point x="412.4755651435" y="126.4925373134"/>
			<point x="391.7844088487" y="114.1791044776"/>
			<point x="388.238644974" y="100" type="qcurve" smooth="yes"/>
			<point x="374.2422086269" y="44.0298507463"/>
			<point x="401.1936686403" y="-10"/>
			<point x="443.7309820731" y="-10" type="qcurve" smooth="yes"/>
			<point x="446.7309820731" y="-10" type="line" smooth="yes"/>
			<point x="472.8503850582" y="-10"/>
			<point x="498.1994805079" y="19.8656716418"/>
			<point x="503.9846741981" y="43" type="qcurve"/>
		</contour>
		<contour>
			<point x="107.7407348561" y="130" type="qcurve" smooth="yes"/>
			<point x="108.4909438443" y="133" type="line" smooth="yes"/>
			<point x="118.9416163169" y="174.7910447761"/>
			<point x="165.7882457898" y="222.8208955224"/>
			<point x="186.4981887689" y="237" type="qcurve"/>
			<point x="146.0138939487" y="248.1940298507"/>
			<point x="67.3254944667" y="168.328358209"/>
			<point x="58.7410135071" y="134" type="qcurve" smooth="yes"/>
			<point x="57.4906651934" y="129" type="line" smooth="yes"/>
			<point x="41.0681798794" y="63.328358209"/>
			<point x="101.3279969985" y="-10"/>
			<point x="170.7309820731" y="-10" type="qcurve" smooth="yes"/>
			<point x="239.387698491" y="-10"/>
			<point x="356.4858906966" y="60.4626865672"/>
			<point x="393.9888539623" y="103" type="qcurve" smooth="yes"/>
			<point x="404.4374469501" y="114.9402985075"/>
			<point x="418.1521329418" y="143.6417910448"/>
			<point x="425.243660691" y="172" type="qcurve"/>
			<point x="356.0223040045" y="101.1044776119"/>
			<point x="233.9919975592" y="41"/>
			<point x="185.4845348726" y="41" type="qcurve" smooth="yes"/>
			<point x="182.4845348726" y="41" type="line" smooth="yes"/>
			<point x="136.2158781562" y="41"/>
			<point x="96.5435857784" y="85.223880597"/>
		</contour>
		<contour>
			<point x="446.0002786509" y="267" type="qcurve" smooth="yes"/>
			<point x="438.7248350805" y="276.7014925373"/>
			<point x="357.1624679805" y="292"/>
			<point x="289.2520202193" y="292" type="qcurve" smooth="yes"/>
			<point x="199.6997814134" y="292"/>
			<point x="78.1489893449" y="205.6417910448"/>
			<point x="58.7410135071" y="134" type="qcurve" smooth="yes"/>
			<point x="56.5015836915" y="125.0447761194"/>
			<point x="65.5720581183" y="119"/>
			<point x="81.989968566" y="119" type="qcurve"/>
			<point x="112.2181121066" y="180.1940298507"/>
			<point x="200.6440594706" y="242"/>
			<point x="279.7485370825" y="242" type="qcurve" smooth="yes"/>
			<point x="323.0321191721" y="242"/>
			<point x="405.3824266695" y="235.7014925373"/>
			<point x="444.7474224788" y="226" type="qcurve"/>
			<point x="449.4126933127" y="241.671641791"/>
			<point x="451.0371241997" y="260.2835820896"/>
		</contour>
		<contour>
			<point x="477.2804426156" y="700" type="qcurve" smooth="yes"/>
			<point x="433.2505918693" y="700"/>
			<point x="386.9827318875" y="765"/>
			<point x="326.5349706934" y="765" type="qcurve" smooth="yes"/>
			<point x="290.714075171" y="765"/>
			<point x="242.152608196" y="739.6567164179"/>
			<point x="228.531905533" y="721" type="qcurve"/>
			<point x="222.9343707365" y="713.5373134328"/>
			<point x="215.5190364783" y="696.9552238806"/>
			<point x="213.2796066628" y="688" type="qcurve" smooth="yes"/>
			<point x="211.6000343011" y="681.2835820896"/>
			<point x="210.4686314859" y="669.7164179104"/>
			<point x="211.0278650944" y="663" type="qcurve"/>
			<point x="214.0278650944" y="663" type="line"/>
			<point x="239.9627284128" y="692.1044776119"/>
			<point x="289.9010995299" y="718"/>
			<point x="313.7816965448" y="718" type="qcurve" smooth="yes"/>
			<point x="357.8115472911" y="718"/>
			<point x="404.079407273" y="653"/>
			<point x="464.527168467" y="653" type="qcurve" smooth="yes"/>
			<point x="500.3480639894" y="653"/>
			<point x="548.9095309644" y="678.3432835821"/>
			<point x="562.5302336274" y="697" type="qcurve"/>
			<point x="568.1277684239" y="704.4626865672"/>
			<point x="575.5431026821" y="721.0447761194"/>
			<point x="577.7825324977" y="730" type="qcurve" smooth="yes"/>
			<point x="579.4621048593" y="736.7164179104"/>
			<point x="580.5935076746" y="748.2835820896"/>
			<point x="580.0342740661" y="755" type="qcurve"/>
			<point x="577.0342740661" y="755" type="line"/>
			<point x="551.0994107476" y="725.8955223881"/>
			<point x="501.1610396305" y="700"/>
		</contour>
	</outline>
</glyph>
<glyph name="edieresis" format="2">
	<unicode hex="00EB"/>
	<advance width="600"/>
	<outline>
		<contour>
			<point x="393.7655347901" y="486" type="qcurve" smooth="yes"/>
			<point x="440.7804601632" y="486"/>
			<point x="483.3385334193" y="462.6268656716"/>
			<point x="510.7621909788" y="438" type="qcurve"/>
			<point x="516.173106624" y="444.7164179104"/>
			<point x="521.1440086512" y="455.5223880597"/>
			<point x="522.263723559" y="460" type="qcurve" smooth="yes"/>
			<point x="527.8622980978" y="482.3880597015"/>
			<point x="470.7018537478" y="536"/>
			<point x="407.2690179269" y="536" type="qcurve"/>
			<point x="312.4928985239" y="536"/>
			<point x="119.6066554162" y="401.3880597015"/>
			<point x="76.497631467" y="229" type="qcurve" smooth="yes"/>
			<point x="71.9963775377" y="211" type="line" smooth="yes"/>
			<point x="44.1901239947" y="99.8059701493"/>
			<point x="157.3430263458" y="-8.5074626866"/>
			<point x="254.7309820731" y="-10" type="qcurve" smooth="yes"/>
			<point x="266.6712805806" y="-10"/>
			<point x="287.616950105" y="13.5373134328"/>
			<point x="289.4831416179" y="21" type="qcurve"/>
			<point x="185.7517983343" y="21"/>
			<point x="97.4079954649" y="120.671641791"/>
			<point x="118.4959595613" y="205" type="qcurve" smooth="yes"/>
			<point x="122.7471438278" y="222" type="line" smooth="yes"/>
			<point x="155.9653527584" y="354.8358208955"/>
			<point x="298.9894153871" y="486"/>
		</contour>
		<contour>
			<point x="443.9846741981" y="43" type="qcurve" smooth="yes"/>
			<point x="455.1793278942" y="51.9552238806"/>
			<point x="468.2487275194" y="84.0447761194"/>
			<point x="470.4881573349" y="93" type="qcurve" smooth="yes"/>
			<point x="471.9811105453" y="98.9701492537"/>
			<point x="472.7391336529" y="107.0149253731"/>
			<point x="472.7393416014" y="110" type="qcurve"/>
			<point x="468.7393416014" y="110" type="line"/>
			<point x="424.8936146248" y="74.9253731343"/>
			<point x="337.6523756577" y="40"/>
			<point x="271.2344652099" y="40" type="qcurve" smooth="yes"/>
			<point x="198.8464055084" y="40"/>
			<point x="131.0846274353" y="85.1791044776"/>
			<point x="100.4901078915" y="121" type="qcurve"/>
			<point x="68.9572938796" y="78.4626865672"/>
			<point x="183.0891910283" y="-10"/>
			<point x="254.7309820731" y="-10" type="qcurve" smooth="yes"/>
			<point x="313.6862059537" y="-10"/>
			<point x="418.7967033818" y="22.8507462687"/>
		</contour>
		<contour>
			<point x="285.9958202358" y="203" type="line" smooth="yes"/>
			<point x="418.0853724747" y="203"/>
			<point x="525.7082069013" y="305.8208955224"/>
			<point x="541.7574539127" y="370" type="qcurve" smooth="yes"/>
			<point x="542.7577325637" y="374" type="line" smooth="yes"/>
			<point x="558.8069795751" y="438.1791044776"/>
			<point x="495.3287194194" y="536"/>
			<point x="407.2690179269" y="536" type="qcurve" smooth="yes"/>
			<point x="396.8212567329" y="536"/>
			<point x="380.3721313969" y="516.4179104478"/>
			<point x="376.2665100684" y="500" type="qcurve"/>
			<point x="449.4008384266" y="500"/>
			<point x="508.8069795751" y="438.1791044776"/>
			<point x="492.7577325637" y="374" type="qcurve" smooth="yes"/>
			<point x="491.7574539127" y="370" type="line" smooth="yes"/>
			<point x="478.3208750195" y="316.2686567164"/>
			<point x="392.040278486" y="252"/>
			<point x="300.2492337099" y="252" type="qcurve" smooth="yes"/>
			<point x="223.3835620681" y="252"/>
			<point x="154.5091440451" y="266.8209750485"/>
			<point x="124.751323592" y="282" type="qcurve"/>
			<point x="116.7722338211" y="260.7263792207"/>
			<point x="114.7706444118" y="237.9701492537"/>
			<point x="119.2478404552" y="232" type="qcurve" smooth="yes"/>
			<point x="129.3215315528" y="218.5671641791"/>
			<point x="219.5331336687" y="203"/>
			<point x="276.9958202358" y="203" type="qcurve" smooth="yes"/>
		</contour>
		<contour>
			<point x="365.7783527335" y="670" type="qcurve"/>
			<point x="378.7819751958" y="722" type="line" smooth="yes"/>
			<point x="382.8875965243" y="738.4179104478"/>
			<point x="361.4150104065" y="757"/>
			<point x="337.5344133915" y="757" type="qcurve" smooth="yes"/>
			<point x="328.5791895109" y="757"/>
			<point x="313.1275919596" y="755.4925373134"/>
			<point x="306.7842044033" y="754" type="qcurve"/>
			<point x="293.7805819411" y="702" type="line" smooth="yes"/>
			<point x="289.6749606126" y="685.5820895522"/>
			<point x="311.8938153871" y="667"/>
			<point x="335.0281437453" y="667" type="qcurve" smooth="yes"/>
			<point x="343.9833676259" y="667"/>
			<point x="359.4349651772" y="668.5074626866"/>
		</contour>
		<contour>
			<point x="565.7783527335" y="670" type="qcurve"/>
			<point x="578.7819751958" y="722" type="line" smooth="yes"/>
			<point x="582.8875965243" y="738.4179104478"/>
			<point x="561.4150104065" y="757"/>
			<point x="537.5344133915" y="757" type="qcurve" smooth="yes"/>
			<point x="528.5791895109" y="757"/>
			<point x="513.1275919596" y="755.4925373134"/>
			<point x="506.7842044033" y="754" type="qcurve"/>
			<point x="493.7805819411" y="702" type="line" smooth="yes"/>
			<point x="489.6749606126" y="685.5820895522"/>
			<point x="511.8938153871" y="667"/>
			<point x="535.0281437453" y="667" type="qcurve" smooth="yes"/>
			<point x="543.9833676259" y="667"/>
			<point x="559.4349651772" y="668.5074626866"/>
		</contour>
	</outline>
</glyph>
<glyph name="eth" format="2">
	<unicode hex="00F0"/>
	<advance width="600"/>
	<outline>
		<contour>
			<point x="344.2676246722" y="516" type="qcurve" smooth="yes"/>
			<point x="249.4915052692" y="516"/>
			<point x="103.4780824877" y="376.8805970149"/>
			<point x="72.4993033726" y="253" type="qcurve" smooth="yes"/>
			<point x="70.7488157335" y="246" type="line" smooth="yes"/>
			<point x="42.3827047366" y="132.5671641791"/>
			<point x="126.4772507298" y="-10"/>
			<point x="225.7309820731" y="-10" type="qcurve" smooth="yes"/>
			<point x="240.6563552074" y="-10"/>
			<point x="254.9936421396" y="11.0447761194"/>
			<point x="257.2330719552" y="20" type="qcurve"/>
			<point x="133.3535146826" y="34.9253731343"/>
			<point x="105.3266090704" y="184.328358209"/>
			<point x="121.7490943844" y="250" type="qcurve" smooth="yes"/>
			<point x="123.2495123608" y="256" type="line" smooth="yes"/>
			<point x="143.5909998521" y="337.3432835821"/>
			<point x="255.16712661" y="466"/>
			<point x="335.7641415354" y="466" type="qcurve" smooth="yes"/>
			<point x="393.9730967593" y="466"/>
			<point x="469.1712974724" y="418.7462686567"/>
			<point x="501.2573145873" y="368" type="qcurve"/>
			<point x="504.0559780113" y="370.2388059701"/>
			<point x="507.3885052951" y="376.5223880597"/>
			<point x="508.5082202028" y="381" type="qcurve" smooth="yes"/>
			<point x="518.3990352215" y="420.552238806"/>
			<point x="432.3273261647" y="516"/>
		</contour>
		<contour>
			<point x="225.7309820731" y="-10" type="qcurve" smooth="yes"/>
			<point x="330.9548626701" y="-10"/>
			<point x="493.020942234" y="135.1194029851"/>
			<point x="523.9997213491" y="259" type="qcurve" smooth="yes"/>
			<point x="527.2506269646" y="272" type="line" smooth="yes"/>
			<point x="563.4547423159" y="416.776119403"/>
			<point x="483.314223004" y="649.2835820896"/>
			<point x="403.2843437288" y="756" type="qcurve" smooth="yes"/>
			<point x="397.6878486746" y="763.4626865672"/>
			<point x="385.994274231" y="770"/>
			<point x="377.7853190071" y="770" type="qcurve" smooth="yes"/>
			<point x="364.3524831862" y="770"/>
			<point x="343.6169541919" y="763.4776119403"/>
			<point x="335.034552717" y="759" type="qcurve"/>
			<point x="334.0342740661" y="755" type="line"/>
			<point x="427.4963653168" y="639.328358209"/>
			<point x="511.9617891056" y="410.8059701493"/>
			<point x="477.2506269646" y="272" type="qcurve" smooth="yes"/>
			<point x="473.9997213491" y="259" type="line" smooth="yes"/>
			<point x="453.4716147066" y="176.9104477612"/>
			<point x="332.9956592397" y="40"/>
			<point x="235.2344652099" y="40" type="qcurve" smooth="yes"/>
			<point x="203.1449129711" y="40"/>
			<point x="147.5563235337" y="53.8208955224"/>
			<point x="124.2364157665" y="68" type="qcurve"/>
			<point x="107.2576081225" y="50.8358208955"/>
			<point x="157.8205343119" y="-10"/>
		</contour>
		<contour>
			<point x="635.532184184" y="725" type="qcurve"/>
			<point x="446.2787707099" y="676" type="line" smooth="yes"/>
			<point x="435.8308015674" y="673.0149253731"/>
			<point x="420.3867519616" y="672.7313432836"/>
			<point x="404.5282830708" y="669" type="qcurve" smooth="yes"/>
			<point x="226.2751482477" y="624" type="line" smooth="yes"/>
			<point x="210.4166793569" y="620.2686567164"/>
			<point x="194.0687525775" y="607.1791044776"/>
			<point x="190.5229887028" y="593" type="qcurve" smooth="yes"/>
			<point x="188.8434163412" y="586.2835820896"/>
			<point x="186.9581428572" y="572.7164179104"/>
			<point x="186.771107809" y="566" type="qcurve"/>
			<point x="427.5254965613" y="629" type="line" smooth="yes"/>
			<point x="441.145159482" y="632.7313432836"/>
			<point x="461.0817464013" y="633.0149253731"/>
			<point x="472.2759842005" y="636" type="qcurve" smooth="yes"/>
			<point x="586.5280044198" y="665" type="line" smooth="yes"/>
			<point x="609.662748675" y="670.9701492537"/>
			<point x="628.738411124" y="685.8358208955"/>
			<point x="633.0306516038" y="703" type="qcurve" smooth="yes"/>
			<point x="634.3369856629" y="708.223880597"/>
			<point x="635.7183874384" y="719.776119403"/>
		</contour>
	</outline>
</glyph>
<glyph name="ntilde" format="2">
	<unicode hex="00F1"/>
	<advance width="600"/>
	<outline>
		<contour>
			<point x="82.9813303868" y="-5" type="qcurve"/>
			<point x="199.0136538962" y="459" type="line" smooth="yes"/>
			<point x="204.0523709812" y="479.1492537313"/>
			<point x="206.9836973882" y="511.0447761194"/>
			<point x="200.2679033231" y="520" type="qcurve" smooth="yes"/>
			<point x="194.6714082689" y="527.4626865672"/>
			<point x="179.7314258431" y="532"/>
			<point x="172.268739276" y="532" type="qcurve" smooth="yes"/>
			<point x="168.5373959924" y="532"/>
			<point x="159.6231118739" y="530.4925373134"/>
			<point x="155.5185302877" y="529" type="qcurve"/>
			<point x="157.1962311132" y="508.8507462687"/>
			<point x="153.5335697406" y="477.0746268657"/>
			<point x="144.7624696297" y="442" type="qcurve" smooth="yes"/>
			<point x="38.7329326297" y="18" type="line" smooth="yes"/>
			<point x="35.3737879064" y="4.5671641791"/>
			<point x="56.563419939" y="-5"/>
			<point x="72.9813303868" y="-5" type="qcurve" smooth="yes"/>
			<point x="75.2201363569" y="-5"/>
			<point x="80.7425244166" y="-5"/>
		</contour>
		<contour>
			<point x="547.5057711538" y="452.9701492537"/>
			<point x="502.4743114702" y="537"/>
			<point x="443.5190875896" y="537" type="qcurve" smooth="yes"/>
			<point x="377.1011771419" y="537"/>
			<point x="225.3652275079" y="417.3134328358"/>
			<point x="158.7546674033" y="330" type="qcurve" smooth="yes"/>
			<point x="141.9620630137" y="307.6119402985"/>
			<point x="127.7720293486" y="257.8507462687"/>
			<point x="132.2475618042" y="228" type="qcurve"/>
			<point x="192.8888044489" y="327.2537313433"/>
			<point x="363.1051566916" y="487"/>
			<point x="431.0156044528" y="487" type="qcurve" smooth="yes"/>
			<point x="468.3290372887" y="487"/>
			<point x="494.9032479655" y="427.4626865672"/>
			<point x="485.7574539127" y="370" type="qcurve"/>
			<point x="514.4889011706" y="371.4925373134"/>
			<point x="531.2699049911" y="388.0447761194"/>
			<point x="533.5093348066" y="397" type="qcurve" smooth="yes"/>
		</contour>
		<contour>
			<point x="445.2316787005" y="0" type="qcurve"/>
			<point x="446.5398842957" y="32.0895522388"/>
			<point x="456.4692167688" y="88.9253731343"/>
			<point x="465.2403168797" y="124" type="qcurve" smooth="yes"/>
			<point x="533.5093348066" y="397" type="line"/>
			<point x="539.8543859507" y="422.3731343284"/>
			<point x="525.4197433495" y="450"/>
			<point x="506.7630269316" y="450" type="qcurve"/>
			<point x="470.1875448139" y="330.5970149254"/>
			<point x="435.3994749045" y="212.6119402985"/>
			<point x="415.9910831698" y="135" type="qcurve" smooth="yes"/>
			<point x="414.7407348561" y="130" type="line" smooth="yes"/>
			<point x="395.1457239701" y="51.6417910448"/>
			<point x="413.3285543004" y="-2"/>
			<point x="432.731539375" y="-2" type="qcurve" smooth="yes"/>
			<point x="436.4628826586" y="-2"/>
			<point x="442.806253579" y="-0.7462686567"/>
		</contour>
		<contour>
			<point x="493.2804426156" y="700" type="qcurve" smooth="yes"/>
			<point x="449.2505918693" y="700"/>
			<point x="402.9827318875" y="765"/>
			<point x="342.5349706934" y="765" type="qcurve" smooth="yes"/>
			<point x="306.714075171" y="765"/>
			<point x="258.152608196" y="739.6567164179"/>
			<point x="244.531905533" y="721" type="qcurve"/>
			<point x="238.9343707365" y="713.5373134328"/>
			<point x="231.5190364783" y="696.9552238806"/>
			<point x="229.2796066628" y="688" type="qcurve" smooth="yes"/>
			<point x="227.6000343011" y="681.2835820896"/>
			<point x="226.4686314859" y="669.7164179104"/>
			<point x="227.0278650944" y="663" type="qcurve"/>
			<point x="230.0278650944" y="663" type="line"/>
			<point x="255.9627284128" y="692.1044776119"/>
			<point x="305.9010995299" y="718"/>
			<point x="329.7816965448" y="718" type="qcurve" smooth="yes"/>
			<point x="373.8115472911" y="718"/>
			<point x="420.079407273" y="653"/>
			<point x="480.527168467" y="653" type="qcurve" smooth="yes"/>
			<point x="516.3480639894" y="653"/>
			<point x="564.9095309644" y="678.3432835821"/>
			<point x="578.5302336274" y="697" type="qcurve"/>
			<point x="584.1277684239" y="704.4626865672"/>
			<point x="591.5431026821" y="721.0447761194"/>
			<point x="593.7825324977" y="730" type="qcurve" smooth="yes"/>
			<point x="595.4621048593" y="736.7164179104"/>
			<point x="596.5935076746" y="748.2835820896"/>
			<point x="596.0342740661" y="755" type="qcurve"/>
			<point x="593.0342740661" y="755" type="line"/>
			<point x="567.0994107476" y="725.8955223881"/>
			<point x="517.1610396305" y="700"/>
		</contour>
	</outline>
</glyph>
<glyph name="ocircumflex" format="2">
	<unicode hex="00F4"/>
	<advance width="600"/>
	<outline>
		<contour>
			<point x="368.2690179269" y="536" type="qcurve" smooth="yes"/>
			<point x="273.4928985239" y="536"/>
			<point x="102.4554095386" y="372.7910447761"/>
			<point x="66.9977707925" y="231" type="qcurve" smooth="yes"/>
			<point x="64.9972134906" y="223" type="line" smooth="yes"/>
			<point x="37.3775790988" y="112.552238806"/>
			<point x="128.7459074462" y="-10"/>
			<point x="231.7309820731" y="-10" type="qcurve" smooth="yes"/>
			<point x="246.6563552074" y="-10"/>
			<point x="260.9936421396" y="11.0447761194"/>
			<point x="263.2330719552" y="20" type="qcurve"/>
			<point x="147.5624699065" y="34.9253731343"/>
			<point x="99.2614866533" y="160.0746268657"/>
			<point x="115.497352816" y="225" type="qcurve" smooth="yes"/>
			<point x="116.9977707925" y="231" type="line" smooth="yes"/>
			<point x="142.3779753686" y="332.4925373134"/>
			<point x="268.4670273274" y="486"/>
			<point x="358.7655347901" y="486" type="qcurve" smooth="yes"/>
			<point x="390.8550870289" y="486"/>
			<point x="445.8838190124" y="469.9402985075"/>
			<point x="469.7635842335" y="458" type="qcurve"/>
			<point x="483.7569013537" y="469.1940298507"/>
			<point x="436.1794656881" y="536"/>
		</contour>
		<contour>
			<point x="231.7309820731" y="-10" type="qcurve" smooth="yes"/>
			<point x="333.2235193865" y="-10"/>
			<point x="487.5679306332" y="113.3134328358"/>
			<point x="515.7474224788" y="226" type="qcurve" smooth="yes"/>
			<point x="517.7479797807" y="234" type="line" smooth="yes"/>
			<point x="551.1528078625" y="367.5820895522"/>
			<point x="464.5376746433" y="536"/>
			<point x="368.2690179269" y="536" type="qcurve" smooth="yes"/>
			<point x="353.3436447926" y="536"/>
			<point x="337.6256547917" y="513.4328358209"/>
			<point x="334.2665100684" y="500" type="qcurve"/>
			<point x="434.265886223" y="491.0447761194"/>
			<point x="493.5611407878" y="337.223880597"/>
			<point x="467.2478404552" y="232" type="qcurve" smooth="yes"/>
			<point x="465.7474224788" y="226" type="line" smooth="yes"/>
			<point x="445.9657924415" y="146.8955223881"/>
			<point x="333.025509986" y="40"/>
			<point x="241.2344652099" y="40" type="qcurve" smooth="yes"/>
			<point x="209.1449129711" y="40"/>
			<point x="154.1161809876" y="56.0597014925"/>
			<point x="130.2364157665" y="68" type="qcurve"/>
			<point x="114.3773230303" y="55.3134328358"/>
			<point x="163.8205343119" y="-10"/>
		</contour>
		<contour>
			<point x="243.5263325142" y="641" type="line"/>
			<point x="279.7233776177" y="684.2835820896"/>
			<point x="387.8629338003" y="759.328358209"/>
			<point x="441.0356673208" y="775" type="qcurve"/>
			<point x="447.0074801622" y="798.8805970149"/>
			<point x="445.0128220664" y="822"/>
			<point x="439.7889414694" y="822" type="qcurve"/>
			<point x="432.7889414694" y="822" type="line"/>
			<point x="385.3997380513" y="805.5820895522"/>
			<point x="295.7201674772" y="745.328358209"/>
			<point x="258.0312089057" y="711" type="qcurve" smooth="yes"/>
			<point x="236.7612005242" y="691.5970149254"/>
			<point x="217.5205396538" y="664.9701492537"/>
			<point x="216.0275864434" y="659" type="qcurve" smooth="yes"/>
			<point x="213.9747757792" y="650.7910447761"/>
			<point x="222.6009593798" y="641"/>
			<point x="237.5263325142" y="641" type="qcurve"/>
		</contour>
		<contour>
			<point x="593.527168467" y="653" type="qcurve"/>
			<point x="578.232092154" y="702.2537313433"/>
			<point x="515.3492290847" y="776.8507462687"/>
			<point x="490.537199901" y="797" type="qcurve" smooth="yes"/>
			<point x="468.896656547" y="814.9104477612"/>
			<point x="448.5053593798" y="822"/>
			<point x="441.7889414694" y="822" type="qcurve"/>
			<point x="437.7889414694" y="822" type="line"/>
			<point x="433.3113295291" y="822"/>
			<point x="421.6307881276" y="801.3731343284"/>
			<point x="415.2857369835" y="776" type="qcurve"/>
			<point x="454.0906673904" y="761.0746268657"/>
			<point x="513.0719448783" y="706.5671641791"/>
			<point x="533.7783527335" y="670" type="qcurve"/>
			<point x="542.5459177205" y="654.328358209"/>
			<point x="553.3213176218" y="644"/>
			<point x="562.2765415024" y="644" type="qcurve" smooth="yes"/>
			<point x="571.231765383" y="644"/>
			<point x="585.5044164975" y="647.776119403"/>
		</contour>
	</outline>
</glyph>
<glyph name="otilde" format="2">
	<unicode hex="00F5"/>
	<advance width="600"/>
	<outline>
		<contour>
			<point x="368.2690179269" y="536" type="qcurve" smooth="yes"/>
			<point x="273.4928985239" y="536"/>
			<point x="102.4554095386" y="372.7910447761"/>
			<point x="66.9977707925" y="231" type="qcurve" smooth="yes"/>
			<point x="64.9972134906" y="223" type="line" smooth="yes"/>
			<point x="37.3775790988" y="112.552238806"/>
			<point x="128.7459074462" y="-10"/>
			<point x="231.7309820731" y="-10" type="qcurve" smooth="yes"/>
			<point x="246.6563552074" y="-10"/>
			<point x="260.9936421396" y="11.0447761194"/>
			<point x="263.2330719552" y="20" type="qcurve"/>
			<point x="147.5624699065" y="34.9253731343"/>
			<point x="99.2614866533" y="160.0746268657"/>
			<point x="115.497352816" y="225" type="qcurve" smooth="yes"/>
			<point x="116.9977707925" y="231" type="line" smooth="yes"/>
			<point x="142.3779753686" y="332.4925373134"/>
			<point x="268.4670273274" y="486"/>
			<point x="358.7655347901" y="486" type="qcurve" smooth="yes"/>
			<point x="390.8550870289" y="486"/>
			<point x="445.8838190124" y="469.9402985075"/>
			<point x="469.7635842335" y="458" type="qcurve"/>
			<point x="483.7569013537" y="469.1940298507"/>
			<point x="436.1794656881" y="536"/>
		</contour>
		<contour>
			<point x="231.7309820731" y="-10" type="qcurve" smooth="yes"/>
			<point x="333.2235193865" y="-10"/>
			<point x="487.5679306332" y="113.3134328358"/>
			<point x="515.7474224788" y="226" type="qcurve" smooth="yes"/>
			<point x="517.7479797807" y="234" type="line" smooth="yes"/>
			<point x="551.1528078625" y="367.5820895522"/>
			<point x="464.5376746433" y="536"/>
			<point x="368.2690179269" y="536" type="qcurve" smooth="yes"/>
			<point x="353.3436447926" y="536"/>
			<point x="337.6256547917" y="513.4328358209"/>
			<point x="334.2665100684" y="500" type="qcurve"/>
			<point x="434.265886223" y="491.0447761194"/>
			<point x="493.5611407878" y="337.223880597"/>
			<point x="467.2478404552" y="232" type="qcurve" smooth="yes"/>
			<point x="465.7474224788" y="226" type="line" smooth="yes"/>
			<point x="445.9657924415" y="146.8955223881"/>
			<point x="333.025509986" y="40"/>
			<point x="241.2344652099" y="40" type="qcurve" smooth="yes"/>
			<point x="209.1449129711" y="40"/>
			<point x="154.1161809876" y="56.0597014925"/>
			<point x="130.2364157665" y="68" type="qcurve"/>
			<point x="114.3773230303" y="55.3134328358"/>
			<point x="163.8205343119" y="-10"/>
		</contour>
		<contour>
			<point x="493.2804426156" y="700" type="qcurve" smooth="yes"/>
			<point x="449.2505918693" y="700"/>
			<point x="402.9827318875" y="765"/>
			<point x="342.5349706934" y="765" type="qcurve" smooth="yes"/>
			<point x="306.714075171" y="765"/>
			<point x="258.152608196" y="739.6567164179"/>
			<point x="244.531905533" y="721" type="qcurve"/>
			<point x="238.9343707365" y="713.5373134328"/>
			<point x="231.5190364783" y="696.9552238806"/>
			<point x="229.2796066628" y="688" type="qcurve" smooth="yes"/>
			<point x="227.6000343011" y="681.2835820896"/>
			<point x="226.4686314859" y="669.7164179104"/>
			<point x="227.0278650944" y="663" type="qcurve"/>
			<point x="230.0278650944" y="663" type="line"/>
			<point x="255.9627284128" y="692.1044776119"/>
			<point x="305.9010995299" y="718"/>
			<point x="329.7816965448" y="718" type="qcurve" smooth="yes"/>
			<point x="373.8115472911" y="718"/>
			<point x="420.079407273" y="653"/>
			<point x="480.527168467" y="653" type="qcurve" smooth="yes"/>
			<point x="516.3480639894" y="653"/>
			<point x="564.9095309644" y="678.3432835821"/>
			<point x="578.5302336274" y="697" type="qcurve"/>
			<point x="584.1277684239" y="704.4626865672"/>
			<point x="591.5431026821" y="721.0447761194"/>
			<point x="593.7825324977" y="730" type="qcurve" smooth="yes"/>
			<point x="595.4621048593" y="736.7164179104"/>
			<point x="596.5935076746" y="748.2835820896"/>
			<point x="596.0342740661" y="755" type="qcurve"/>
			<point x="593.0342740661" y="755" type="line"/>
			<point x="567.0994107476" y="725.8955223881"/>
			<point x="517.1610396305" y="700"/>
		</contour>
	</outline>
</glyph>
<glyph name="udieresis" format="2">
	<unicode hex="00FC"/>
	<advance width="600"/>
	<outline>
		<contour>
			<point x="517.0186696132" y="531" type="qcurve"/>
			<point x="400.9863461038" y="67" type="line" smooth="yes"/>
			<point x="395.9476290188" y="46.8507462687"/>
			<point x="393.0163026118" y="14.9552238806"/>
			<point x="399.7320966769" y="6" type="qcurve" smooth="yes"/>
			<point x="405.3285917311" y="-1.4626865672"/>
			<point x="420.2685741569" y="-6"/>
			<point x="427.731260724" y="-6" type="qcurve" smooth="yes"/>
			<point x="431.4626040076" y="-6"/>
			<point x="440.3768881261" y="-4.4925373134"/>
			<point x="444.4814697123" y="-3" type="qcurve"/>
			<point x="442.8037688868" y="17.1492537313"/>
			<point x="446.4664302594" y="48.9253731343"/>
			<point x="455.2375303703" y="84" type="qcurve" smooth="yes"/>
			<point x="561.2670673703" y="508" type="line" smooth="yes"/>
			<point x="564.6262120936" y="521.4328358209"/>
			<point x="543.436580061" y="531"/>
			<point x="527.0186696132" y="531" type="qcurve" smooth="yes"/>
			<point x="524.7798636431" y="531"/>
			<point x="519.2574755834" y="531"/>
		</contour>
		<contour>
			<point x="52.4942288462" y="73.0298507463"/>
			<point x="97.5256885298" y="-11"/>
			<point x="156.4809124104" y="-11" type="qcurve" smooth="yes"/>
			<point x="222.8988228581" y="-11"/>
			<point x="374.6347724921" y="108.6865671642"/>
			<point x="441.2453325967" y="196" type="qcurve" smooth="yes"/>
			<point x="458.0379369863" y="218.3880597015"/>
			<point x="472.2279706514" y="268.1492537313"/>
			<point x="467.7524381958" y="298" type="qcurve"/>
			<point x="407.1111955511" y="198.7462686567"/>
			<point x="236.8948433084" y="39"/>
			<point x="168.9843955472" y="39" type="qcurve" smooth="yes"/>
			<point x="131.6709627113" y="39"/>
			<point x="105.0967520345" y="98.5373134328"/>
			<point x="114.2425460873" y="156" type="qcurve"/>
			<point x="85.5110988294" y="154.5074626866"/>
			<point x="68.7300950089" y="137.9552238806"/>
			<point x="66.4906651934" y="129" type="qcurve" smooth="yes"/>
		</contour>
		<contour>
			<point x="154.7683212995" y="526" type="qcurve"/>
			<point x="153.4601157043" y="493.9104477612"/>
			<point x="143.5307832312" y="437.0746268657"/>
			<point x="134.7596831203" y="402" type="qcurve" smooth="yes"/>
			<point x="66.4906651934" y="129" type="line"/>
			<point x="60.1456140493" y="103.6268656716"/>
			<point x="74.5802566505" y="76"/>
			<point x="93.2369730684" y="76" type="qcurve"/>
			<point x="129.8124551861" y="195.4029850746"/>
			<point x="164.6005250955" y="313.3880597015"/>
			<point x="184.0089168302" y="391" type="qcurve" smooth="yes"/>
			<point x="185.2592651439" y="396" type="line" smooth="yes"/>
			<point x="204.8542760299" y="474.3582089552"/>
			<point x="186.6714456996" y="528"/>
			<point x="167.268460625" y="528" type="qcurve" smooth="yes"/>
			<point x="163.5371173414" y="528"/>
			<point x="157.193746421" y="526.7462686567"/>
		</contour>
		<contour>
			<point x="341.7783527335" y="670" type="qcurve"/>
			<point x="354.7819751958" y="722" type="line" smooth="yes"/>
			<point x="358.8875965243" y="738.4179104478"/>
			<point x="337.4150104065" y="757"/>
			<point x="313.5344133915" y="757" type="qcurve" smooth="yes"/>
			<point x="304.5791895109" y="757"/>
			<point x="289.1275919596" y="755.4925373134"/>
			<point x="282.7842044033" y="754" type="qcurve"/>
			<point x="269.7805819411" y="702" type="line" smooth="yes"/>
			<point x="265.6749606126" y="685.5820895522"/>
			<point x="287.8938153871" y="667"/>
			<point x="311.0281437453" y="667" type="qcurve" smooth="yes"/>
			<point x="319.9833676259" y="667"/>
			<point x="335.4349651772" y="668.5074626866"/>
		</contour>
		<contour>
			<point x="541.7783527335" y="670" type="qcurve"/>
			<point x="554.7819751958" y="722" type="line" smooth="yes"/>
			<point x="558.8875965243" y="738.4179104478"/>
			<point x="537.4150104065" y="757"/>
			<point x="513.5344133915" y="757" type="qcurve" smooth="yes"/>
			<point x="504.5791895109" y="757"/>
			<point x="489.1275919596" y="755.4925373134"/>
			<point x="482.7842044033" y="754" type="qcurve"/>
			<point x="469.7805819411" y="702" type="line" smooth="yes"/>
			<point x="465.6749606126" y="685.5820895522"/>
			<point x="487.8938153871" y="667"/>
			<point x="511.0281437453" y="667" type="qcurve" smooth="yes"/>
			<point x="519.9833676259" y="667"/>
			<point x="535.4349651772" y="668.5074626866"/>
		</contour>
	</outline>
</glyph>
<glyph name="ydieresis" format="2">
	<unicode hex="00FF"/>
	<advance width="600"/>
	<outline>
		<contour>
			<point x="562.5185302877" y="529" type="qcurve" smooth="yes"/>
			<point x="558.0409183475" y="529"/>
			<point x="550.126634229" y="527.4925373134"/>
			<point x="546.7683212995" y="526" type="qcurve"/>
			<point x="448.0544843575" y="241.671641791"/>
			<point x="266.4444304795" y="-52.6268656716"/>
			<point x="172.2227618703" y="-128" type="qcurve" smooth="yes"/>
			<point x="126.5112592777" y="-164.5671641791"/>
			<point x="33.9972485859" y="-205"/>
			<point x="-10.0326021604" y="-205" type="qcurve" smooth="yes"/>
			<point x="-25.0326021604" y="-205" type="line"/>
			<point x="-25.7828111486" y="-208" type="line"/>
			<point x="-30.8215282336" y="-228.1492537313"/>
			<point x="-22.9723041477" y="-250"/>
			<point x="-10.2857369835" y="-250" type="qcurve" smooth="yes"/>
			<point x="-5.2857369835" y="-250" type="line" smooth="yes"/>
			<point x="43.2217257031" y="-250"/>
			<point x="146.9114245711" y="-205.0447761194"/>
			<point x="198.2202540118" y="-164" type="qcurve" smooth="yes"/>
			<point x="297.106361661" y="-84.8955223881"/>
			<point x="491.1616088614" y="226.1044776119"/>
			<point x="586.5163010802" y="497" type="qcurve" smooth="yes"/>
			<point x="592.3010788734" y="514.1641791045"/>
			<point x="581.1752467057" y="529"/>
		</contour>
		<contour>
			<point x="151.5185302877" y="529" type="qcurve" smooth="yes"/>
			<point x="147.0409183475" y="529"/>
			<point x="138.8729028857" y="527.4925373134"/>
			<point x="134.7683212995" y="526" type="qcurve"/>
			<point x="103.2224065343" y="295.4029850746"/>
			<point x="133.2699763134" y="121.2537313433"/>
			<point x="164.2366944174" y="72" type="qcurve" smooth="yes"/>
			<point x="183.4509808561" y="41.4029850746"/>
			<point x="261.2167533273" y="0"/>
			<point x="308.2316787005" y="0" type="qcurve" smooth="yes"/>
			<point x="315.2316787005" y="0" type="line" smooth="yes"/>
			<point x="324.1869025811" y="0"/>
			<point x="350.5092682991" y="21.1044776119"/>
			<point x="355.7346045354" y="42" type="qcurve"/>
			<point x="339.7346045354" y="42" type="line" smooth="yes"/>
			<point x="287.4957985652" y="42"/>
			<point x="220.297065504" y="81.6119402985"/>
			<point x="207.238923625" y="104" type="qcurve" smooth="yes"/>
			<point x="172.1682477802" y="160.7164179104"/>
			<point x="163.2267069086" y="357.1343283582"/>
			<point x="182.2653954646" y="484" type="qcurve" smooth="yes"/>
			<point x="186.9317060409" y="514.5970149254"/>
			<point x="169.4289780489" y="529"/>
		</contour>
		<contour>
			<point x="341.7783527335" y="670" type="qcurve"/>
			<point x="354.7819751958" y="722" type="line" smooth="yes"/>
			<point x="358.8875965243" y="738.4179104478"/>
			<point x="337.4150104065" y="757"/>
			<point x="313.5344133915" y="757" type="qcurve" smooth="yes"/>
			<point x="304.5791895109" y="757"/>
			<point x="289.1275919596" y="755.4925373134"/>
			<point x="282.7842044033" y="754" type="qcurve"/>
			<point x="269.7805819411" y="702" type="line" smooth="yes"/>
			<point x="265.6749606126" y="685.5820895522"/>
			<point x="287.8938153871" y="667"/>
			<point x="311.0281437453" y="667" type="qcurve" smooth="yes"/>
			<point x="319.9833676259" y="667"/>
			<point x="335.4349651772" y="668.5074626866"/>
		</contour>
		<contour>
			<point x="541.7783527335" y="670" type="qcurve"/>
			<point x="554.7819751958" y="722" type="line" smooth="yes"/>
			<point x="558.8875965243" y="738.4179104478"/>
			<point x="537.4150104065" y="757"/>
			<point x="513.5344133915" y="757" type="qcurve" smooth="yes"/>
			<point x="504.5791895109" y="757"/>
			<point x="489.1275919596" y="755.4925373134"/>
			<point x="482.7842044033" y="754" type="qcurve"/>
			<point x="469.7805819411" y="702" type="line" smooth="yes"/>
			<point x="465.6749606126" y="685.5820895522"/>
			<point x="487.8938153871" y="667"/>
			<point x="511.0281437453" y="667" type="qcurve" smooth="yes"/>
			<point x="519.9833676259" y="667"/>
			<point x="535.4349651772" y="668.5074626866"/>
		</contour>
	</outline>
</glyph>
<glyph name="Emacron" format="2">
	<unicode hex="0112"/>
	<advance width="600"/>
	<outline>
		<contour>
			<point x="159.2804426156" y="700" type="line"/>
			<point x="158.7205851617" y="697.7611940299"/>
			<point x="157.3396034421" y="692.2388059701"/>
			<point x="156.7797459882" y="690" type="qcurve" smooth="yes"/>
			<point x="153.7938395675" y="678.0597014925"/>
			<point x="154.5501117491" y="660.9701492537"/>
			<point x="159.0273077925" y="655" type="qcurve" smooth="yes"/>
			<point x="160.7062563087" y="652.7611940299"/>
			<point x="166.0456161952" y="650"/>
			<point x="169.7769594788" y="650" type="qcurve" smooth="yes"/>
			<point x="623.7769594788" y="650" type="line"/>
			<point x="626.2025925487" y="653.7313432836"/>
			<point x="629.9084288375" y="662.5223880597"/>
			<point x="631.0281437453" y="667" type="qcurve" smooth="yes"/>
			<point x="632.707716107" y="673.7164179104"/>
			<point x="632.5072903453" y="689.0298507463"/>
			<point x="628.0300943019" y="695" type="qcurve" smooth="yes"/>
			<point x="626.3511457856" y="697.2388059701"/>
			<point x="621.0117858992" y="700"/>
			<point x="617.2804426156" y="700" type="qcurve" smooth="yes"/>
		</contour>
		<contour>
			<point x="88.482862967" y="17" type="qcurve"/>
			<point x="234.7736156675" y="602" type="line" smooth="yes"/>
			<point x="243.9179540809" y="638.5671641791"/>
			<point x="230.6406413457" y="675"/>
			<point x="203.0287010472" y="675" type="qcurve"/>
			<point x="44.2344652099" y="40" type="line"/>
			<point x="40.8753204866" y="26.5671641791"/>
			<point x="64.602265952" y="17"/>
		</contour>
		<contour>
			<point x="46.7351618373" y="50" type="line"/>
			<point x="44.2344652099" y="40" type="line" smooth="yes"/>
			<point x="40.6887013353" y="25.8208955224"/>
			<point x="52.291380193" y="0"/>
			<point x="64.2316787005" y="0" type="qcurve" smooth="yes"/>
			<point x="464.2316787005" y="0" type="line"/>
			<point x="464.7915361543" y="2.2388059701"/>
			<point x="466.1725178739" y="7.7611940299"/>
			<point x="466.7323753278" y="10" type="qcurve" smooth="yes"/>
			<point x="471.7710924128" y="30.1492537313"/>
			<point x="464.929191688" y="50"/>
			<point x="453.7351618373" y="50" type="qcurve"/>
		</contour>
		<contour>
			<point x="141.756060658" y="350" type="line"/>
			<point x="135.0377712114" y="323.1343283582"/>
			<point x="138.8197417003" y="300"/>
			<point x="152.2525775212" y="300" type="qcurve" smooth="yes"/>
			<point x="459.2525775212" y="300" type="line"/>
			<point x="459.8124349751" y="302.2388059701"/>
			<point x="461.1934166947" y="307.7611940299"/>
			<point x="461.7532741486" y="310" type="qcurve" smooth="yes"/>
			<point x="464.7391805693" y="321.9402985075"/>
			<point x="463.9829083877" y="339.0298507463"/>
			<point x="459.5057123443" y="345" type="qcurve" smooth="yes"/>
			<point x="457.8267638281" y="347.2388059701"/>
			<point x="452.4874039416" y="350"/>
			<point x="448.756060658" y="350" type="qcurve" smooth="yes"/>
		</contour>
		<contour>
			<point x="259.7917279788" y="862" type="line"/>
			<point x="259.2318705249" y="859.7611940299"/>
			<point x="257.8508888053" y="854.2388059701"/>
			<point x="257.2910313514" y="852" type="qcurve" smooth="yes"/>
			<point x="253.1854100229" y="835.5820895522"/>
			<point x="256.6066528022" y="812"/>
			<point x="270.288244842" y="812" type="qcurve" smooth="yes"/>
			<point x="627.288244842" y="812" type="line"/>
			<point x="627.8481022959" y="814.2388059701"/>
			<point x="629.2290840155" y="819.7611940299"/>
			<point x="629.7889414694" y="822" type="qcurve" smooth="yes"/>
			<point x="633.8945627979" y="838.4179104478"/>
			<point x="630.2245637997" y="862"/>
			<point x="616.7917279788" y="862" type="qcurve" smooth="yes"/>
		</contour>
	</outline>
</glyph>
<glyph name="Ebreve" format="2">
	<unicode hex="0114"/>
	<advance width="600"/>
	<outline>
		<contour>
			<point x="159.2804426156" y="700" type="line"/>
			<point x="158.7205851617" y="697.7611940299"/>
			<point x="157.3396034421" y="692.2388059701"/>
			<point x="156.7797459882" y="690" type="qcurve" smooth="yes"/>
			<point x="153.7938395675" y="678.0597014925"/>
			<point x="154.5501117491" y="660.9701492537"/>
			<point x="159.0273077925" y="655" type="qcurve" smooth="yes"/>
			<point x="160.7062563087" y="652.7611940299"/>
			<point x="166.0456161952" y="650"/>
			<point x="169.7769594788" y="650" type="qcurve" smooth="yes"/>
			<point x="623.7769594788" y="650" type="line"/>
			<point x="626.2025925487" y="653.7313432836"/>
			<point x="629.9084288375" y="662.5223880597"/>
			<point x="631.0281437453" y="667" type="qcurve" smooth="yes"/>
			<point x="632.707716107" y="673.7164179104"/>
			<point x="632.5072903453" y="689.0298507463"/>
			<point x="628.0300943019" y="695" type="qcurve" smooth="yes"/>
			<point x="626.3511457856" y="697.2388059701"/>
			<point x="621.0117858992" y="700"/>
			<point x="617.2804426156" y="700" type="qcurve" smooth="yes"/>
		</contour>
		<contour>
			<point x="88.482862967" y="17" type="qcurve"/>
			<point x="234.7736156675" y="602" type="line" smooth="yes"/>
			<point x="243.9179540809" y="638.5671641791"/>
			<point x="230.6406413457" y="675"/>
			<point x="203.0287010472" y="675" type="qcurve"/>
			<point x="44.2344652099" y="40" type="line"/>
			<point x="40.8753204866" y="26.5671641791"/>
			<point x="64.602265952" y="17"/>
		</contour>
		<contour>
			<point x="46.7351618373" y="50" type="line"/>
			<point x="44.2344652099" y="40" type="line" smooth="yes"/>
			<point x="40.6887013353" y="25.8208955224"/>
			<point x="52.291380193" y="0"/>
			<point x="64.2316787005" y="0" type="qcurve" smooth="yes"/>
			<point x="464.2316787005" y="0" type="line"/>
			<point x="464.7915361543" y="2.2388059701"/>
			<point x="466.1725178739" y="7.7611940299"/>
			<point x="466.7323753278" y="10" type="qcurve" smooth="yes"/>
			<point x="471.7710924128" y="30.1492537313"/>
			<point x="464.929191688" y="50"/>
			<point x="453.7351618373" y="50" type="qcurve"/>
		</contour>
		<contour>
			<point x="141.756060658" y="350" type="line"/>
			<point x="135.0377712114" y="323.1343283582"/>
			<point x="138.8197417003" y="300"/>
			<point x="152.2525775212" y="300" type="qcurve" smooth="yes"/>
			<point x="459.2525775212" y="300" type="line"/>
			<point x="459.8124349751" y="302.2388059701"/>
			<point x="461.1934166947" y="307.7611940299"/>
			<point x="461.7532741486" y="310" type="qcurve" smooth="yes"/>
			<point x="464.7391805693" y="321.9402985075"/>
			<point x="463.9829083877" y="339.0298507463"/>
			<point x="459.5057123443" y="345" type="qcurve" smooth="yes"/>
			<point x="457.8267638281" y="347.2388059701"/>
			<point x="452.4874039416" y="350"/>
			<point x="448.756060658" y="350" type="qcurve" smooth="yes"/>
		</contour>
		<contour>
			<point x="336.0468133585" y="935" type="qcurve"/>
			<point x="325.9720825186" y="933.5074626866"/>
			<point x="308.3895729105" y="927.4776119403"/>
			<point x="302.0459774057" y="923" type="qcurve"/>
			<point x="298.3144261736" y="920.0149253731"/>
			<point x="295.0525313575" y="909.9552238806"/>
			<point x="296.5444448255" y="901" type="qcurve" smooth="yes"/>
			<point x="304.0040121657" y="856.223880597"/>
			<point x="371.3400656716" y="806"/>
			<point x="431.7878268656" y="806" type="qcurve" smooth="yes"/>
			<point x="435.7878268656" y="806" type="line" smooth="yes"/>
			<point x="456.6833492537" y="806"/>
			<point x="481.4911867801" y="832.8059701493"/>
			<point x="484.2904740496" y="844" type="qcurve"/>
			<point x="404.4397277809" y="844"/>
			<point x="340.1478598208" y="885.7462686567"/>
		</contour>
		<contour>
			<point x="600.0468133585" y="935" type="qcurve"/>
			<point x="571.3120389253" y="885.7462686567"/>
			<point x="486.1412203182" y="844"/>
			<point x="406.2904740496" y="844" type="qcurve"/>
			<point x="403.4911867801" y="832.8059701493"/>
			<point x="414.8923044775" y="806"/>
			<point x="435.7878268656" y="806" type="qcurve" smooth="yes"/>
			<point x="439.7878268656" y="806" type="line" smooth="yes"/>
			<point x="500.2355880596" y="806"/>
			<point x="592.6905793299" y="856.223880597"/>
			<point x="622.5444448255" y="901" type="qcurve" smooth="yes"/>
			<point x="628.5152179246" y="909.9552238806"/>
			<point x="630.2845754274" y="920.0149253731"/>
			<point x="628.0459774057" y="923" type="qcurve"/>
			<point x="623.9418117165" y="927.4776119403"/>
			<point x="609.3750675932" y="933.5074626866"/>
		</contour>
	</outline>
</glyph>
<glyph name="Eogonek" format="2">
	<unicode hex="0118"/>
	<advance width="600"/>
	<outline>
		<contour>
			<point x="159.2804426156" y="700" type="line"/>
			<point x="158.7205851617" y="697.7611940299"/>
			<point x="157.3396034421" y="692.2388059701"/>
			<point x="156.7797459882" y="690" type="qcurve" smooth="yes"/>
			<point x="153.7938395675" y="678.0597014925"/>
			<point x="154.5501117491" y="660.9701492537"/>
			<point x="159.0273077925" y="655" type="qcurve" smooth="yes"/>
			<point x="160.7062563087" y="652.7611940299"/>
			<point x="166.0456161952" y="650"/>
			<point x="169.7769594788" y="650" type="qcurve" smooth="yes"/>
			<point x="623.7769594788" y="650" type="line"/>
			<point x="626.2025925487" y="653.7313432836"/>
			<point x="629.9084288375" y="662.5223880597"/>
			<point x="631.0281437453" y="667" type="qcurve" smooth="yes"/>
			<point x="632.707716107" y="673.7164179104"/>
			<point x="632.5072903453" y="689.0298507463"/>
			<point x="628.0300943019" y="695" type="qcurve" smooth="yes"/>
			<point x="626.3511457856" y="697.2388059701"/>
			<point x="621.0117858992" y="700"/>
			<point x="617.2804426156" y="700" type="qcurve" smooth="yes"/>
		</contour>
		<contour>
			<point x="88.482862967" y="17" type="qcurve"/>
			<point x="234.7736156675" y="602" type="line" smooth="yes"/>
			<point x="243.9179540809" y="638.5671641791"/>
			<point x="230.6406413457" y="675"/>
			<point x="203.0287010472" y="675" type="qcurve"/>
			<point x="44.2344652099" y="40" type="line"/>
			<point x="40.8753204866" y="26.5671641791"/>
			<point x="64.602265952" y="17"/>
		</contour>
		<contour>
			<point x="46.7351618373" y="50" type="line"/>
			<point x="44.2344652099" y="40" type="line" smooth="yes"/>
			<point x="40.6887013353" y="25.8208955224"/>
			<point x="52.291380193" y="0"/>
			<point x="64.2316787005" y="0" type="qcurve" smooth="yes"/>
			<point x="464.2316787005" y="0" type="line"/>
			<point x="464.7915361543" y="2.2388059701"/>
			<point x="466.1725178739" y="7.7611940299"/>
			<point x="466.7323753278" y="10" type="qcurve" smooth="yes"/>
			<point x="471.7710924128" y="30.1492537313"/>
			<point x="464.929191688" y="50"/>
			<point x="453.7351618373" y="50" type="qcurve"/>
		</contour>
		<contour>
			<point x="141.756060658" y="350" type="line"/>
			<point x="135.0377712114" y="323.1343283582"/>
			<point x="138.8197417003" y="300"/>
			<point x="152.2525775212" y="300" type="qcurve" smooth="yes"/>
			<point x="459.2525775212" y="300" type="line"/>
			<point x="459.8124349751" y="302.2388059701"/>
			<point x="461.1934166947" y="307.7611940299"/>
			<point x="461.7532741486" y="310" type="qcurve" smooth="yes"/>
			<point x="464.7391805693" y="321.9402985075"/>
			<point x="463.9829083877" y="339.0298507463"/>
			<point x="459.5057123443" y="345" type="qcurve" smooth="yes"/>
			<point x="457.8267638281" y="347.2388059701"/>
			<point x="452.4874039416" y="350"/>
			<point x="448.756060658" y="350" type="qcurve" smooth="yes"/>
		</contour>
		<contour>
			<point x="223.4717169292" y="-143" type="qcurve" smooth="yes"/>
			<point x="210.5949954898" y="-194.4925373134"/>
			<point x="254.9829197329" y="-250"/>
			<point x="308.7142630165" y="-250" type="qcurve" smooth="yes"/>
			<point x="351.997845106" y="-250"/>
			<point x="412.5000140085" y="-218.8656716418"/>
			<point x="419.2183034552" y="-192" type="qcurve" smooth="yes"/>
			<point x="420.8978758168" y="-185.2835820896"/>
			<point x="422.3985766032" y="-175.223880597"/>
			<point x="420.7198360354" y="-170" type="qcurve"/>
			<point x="416.7198360354" y="-170" type="line"/>
			<point x="393.3978487835" y="-185.671641791"/>
			<point x="347.3520745115" y="-200"/>
			<point x="324.2177461533" y="-200" type="qcurve" smooth="yes"/>
			<point x="293.1690423041" y="-200"/>
			<point x="269.7608922486" y="-169.8358208955"/>
			<point x="277.9721349056" y="-137" type="qcurve" smooth="yes"/>
			<point x="289.1692839834" y="-92.223880597"/>
			<point x="365.72148773" y="-39.1641791045"/>
			<point x="426.7301461203" y="-22" type="qcurve" smooth="yes"/>
			<point x="449.8648903754" y="-16.0298507463"/>
			<point x="462.7947112355" y="-5.7462686567"/>
			<point x="464.2316787005" y="0" type="qcurve"/>
			<point x="461.0606087677" y="8.2089552239"/>
			<point x="452.8933627153" y="17.7462686567"/>
			<point x="447.482862967" y="17" type="qcurve" smooth="yes"/>
			<point x="369.3106493176" y="8.7910447761"/>
			<point x="242.1336320588" y="-68.3731343284"/>
		</contour>
	</outline>
</glyph>
<glyph name="Gbreve" format="2">
	<unicode hex="011E"/>
	<advance width="600"/>
	<outline>
		<contour>
			<point x="472.7783527335" y="670" type="qcurve" smooth="yes"/>
			<point x="533.2261139275" y="670"/>
			<point x="572.4721285952" y="612.7910447761"/>
			<point x="562.0214561227" y="571" type="qcurve"/>
			<point x="576.2005606003" y="571"/>
			<point x="589.7199690504" y="581.7910447761"/>
			<point x="591.7727797146" y="590" type="qcurve" smooth="yes"/>
			<point x="599.4241649178" y="620.5970149254"/>
			<point x="593.0914778056" y="665.5820895522"/>
			<point x="580.7791886863" y="682" type="qcurve" smooth="yes"/>
			<point x="565.66865204" y="702.1492537313"/>
			<point x="520.356462736" y="720"/>
			<point x="485.2818358703" y="720" type="qcurve" smooth="yes"/>
			<point x="350.2072090046" y="720"/>
			<point x="123.5820907199" y="477.2686567164"/>
			<point x="74.5012539292" y="281" type="qcurve" smooth="yes"/>
			<point x="70.2500696627" y="264" type="line" smooth="yes"/>
			<point x="60.919112098" y="226.6865671642"/>
			<point x="81.479779967" y="133.4328358209"/>
			<point x="104.2400382288" y="120" type="qcurve"/>
			<point x="102.190138843" y="153.5820895522"/>
			<point x="113.0460131208" y="227.1940298507"/>
			<point x="122.7502089882" y="266" type="qcurve" smooth="yes"/>
			<point x="126.2511842665" y="280" type="line" smooth="yes"/>
			<point x="169.1735890645" y="451.6417910448"/>
			<point x="363.0768601962" y="670"/>
		</contour>
		<contour>
			<point x="247.7337685825" y="30" type="qcurve" smooth="yes"/>
			<point x="154.450186493" y="30"/>
			<point x="91.2140802778" y="175.8805970149"/>
			<point x="122.7527168467" y="302" type="qcurve"/>
			<point x="104.8422690855" y="302"/>
			<point x="74.3556909912" y="280.4179104478"/>
			<point x="70.2500696627" y="264" type="qcurve" smooth="yes"/>
			<point x="37.591718186" y="133.4029850746"/>
			<point x="122.5437182816" y="-20"/>
			<point x="235.2302854457" y="-20" type="qcurve" smooth="yes"/>
			<point x="332.9914794756" y="-20"/>
			<point x="485.3540701969" y="96.4626865672"/>
			<point x="508.4948449575" y="189" type="qcurve" smooth="yes"/>
			<point x="509.995262934" y="195" type="line" smooth="yes"/>
			<point x="519.8860779526" y="234.552238806"/>
			<point x="504.0906668426" y="279"/>
			<point x="472.0011146038" y="279" type="qcurve"/>
			<point x="472.1864860643" y="261.8358208955"/>
			<point x="466.4037645894" y="220.6268656716"/>
			<point x="460.2453325967" y="196" type="qcurve" smooth="yes"/>
			<point x="441.9566557697" y="122.8656716418"/>
			<point x="323.1069029109" y="30"/>
		</contour>
		<contour>
			<point x="296.2525775212" y="300" type="line"/>
			<point x="294.2001827539" y="297.7611940299"/>
			<point x="290.621247488" y="289.4776119403"/>
			<point x="289.5015325802" y="285" type="qcurve" smooth="yes"/>
			<point x="287.2621027646" y="276.0447761194"/>
			<point x="288.3319658229" y="261.223880597"/>
			<point x="292.2495123608" y="256" type="qcurve" smooth="yes"/>
			<point x="294.4881103825" y="253.0149253731"/>
			<point x="302.0177511009" y="250"/>
			<point x="305.7490943844" y="250" type="qcurve" smooth="yes"/>
			<point x="560.7490943844" y="250" type="line"/>
			<point x="563.2497910118" y="260" type="line" smooth="yes"/>
			<point x="568.2885080968" y="280.1492537313"/>
			<point x="561.446607372" y="300"/>
			<point x="550.2525775212" y="300" type="qcurve" smooth="yes"/>
		</contour>
		<contour>
			<point x="564.015047151" y="479" type="qcurve"/>
			<point x="591.7727797146" y="590" type="line" smooth="yes"/>
			<point x="602.2234521872" y="631.7910447761"/>
			<point x="566.2423244222" y="688.447761194"/>
			<point x="533.7789100354" y="678" type="qcurve"/>
			<point x="544.5984538928" y="658.5970149254"/>
			<point x="547.3153685081" y="612.1641791045"/>
			<point x="543.0231280283" y="595" type="qcurve" smooth="yes"/>
			<point x="520.2667887194" y="504" type="line" smooth="yes"/>
			<point x="516.7210248447" y="489.8208955224"/>
			<point x="530.1119227509" y="477"/>
			<point x="549.5149078255" y="477" type="qcurve" smooth="yes"/>
			<point x="553.2462511091" y="477"/>
			<point x="560.8433533728" y="478.2537313433"/>
		</contour>
		<contour>
			<point x="353.0468133585" y="935" type="qcurve"/>
			<point x="342.9720825186" y="933.5074626866"/>
			<point x="325.3895729105" y="927.4776119403"/>
			<point x="319.0459774057" y="923" type="qcurve"/>
			<point x="315.3144261736" y="920.0149253731"/>
			<point x="312.0525313575" y="909.9552238806"/>
			<point x="313.5444448255" y="901" type="qcurve" smooth="yes"/>
			<point x="321.0040121657" y="856.223880597"/>
			<point x="388.3400656716" y="806"/>
			<point x="448.7878268656" y="806" type="qcurve" smooth="yes"/>
			<point x="452.7878268656" y="806" type="line" smooth="yes"/>
			<point x="473.6833492537" y="806"/>
			<point x="498.4911867801" y="832.8059701493"/>
			<point x="501.2904740496" y="844" type="qcurve"/>
			<point x="421.4397277809" y="844"/>
			<point x="357.1478598208" y="885.7462686567"/>
		</contour>
		<contour>
			<point x="617.0468133585" y="935" type="qcurve"/>
			<point x="588.3120389253" y="885.7462686567"/>
			<point x="503.1412203182" y="844"/>
			<point x="423.2904740496" y="844" type="qcurve"/>
			<point x="420.4911867801" y="832.8059701493"/>
			<point x="431.8923044775" y="806"/>
			<point x="452.7878268656" y="806" type="qcurve" smooth="yes"/>
			<point x="456.7878268656" y="806" type="line" smooth="yes"/>
			<point x="517.2355880596" y="806"/>
			<point x="609.6905793299" y="856.223880597"/>
			<point x="639.5444448255" y="901" type="qcurve" smooth="yes"/>
			<point x="645.5152179246" y="909.9552238806"/>
			<point x="647.2845754274" y="920.0149253731"/>
			<point x="645.0459774057" y="923" type="qcurve"/>
			<point x="640.9418117165" y="927.4776119403"/>
			<point x="626.3750675932" y="933.5074626866"/>
		</contour>
	</outline>
</glyph>
